<?xml version="1.0" encoding="utf-8"?>
<!-- Generator: Adobe Illustrator 27.0.0, SVG Export Plug-In . SVG Version: 6.00 Build 0)  -->
<svg version="1.1" id="Capa_1" xmlns="http://www.w3.org/2000/svg" xmlns:xlink="http://www.w3.org/1999/xlink" x="0px" y="0px"
	 viewBox="0 0 800 287.9" style="enable-background:new 0 0 800 287.9;" xml:space="preserve">
<style type="text/css">
	.st0{fill:#085157;}
</style>
<g>
	<path class="st0" d="M66,2.1c-9.7,2.1-17.1,5.2-25.2,10.5C23.4,24,10.6,43,4.2,66.6C1.9,75.2,1.6,78,1.6,94.7
		c-0.1,20.4,1.2,27.7,7.4,43.7c8.4,21.9,25.3,40.8,43.5,48.8c17.1,7.6,39.8,7.6,56.9,0.1c33.8-15,56.1-59.3,51.7-102.6
		c-4.3-41.3-27.7-72.9-60.6-81.6C92.2,0.9,74.1,0.4,66,2.1z M90.5,24.1c13.2,3.5,23.6,12.8,30.9,27.8c7.6,15.3,9,22.2,9,43.3
		c0,14.3-0.3,19.4-1.8,25c-8.2,31.2-23.7,48.6-44.8,50.2c-18.3,1.4-33.2-8.7-43.3-29.2C27,113.8,26.7,79.9,39.6,53
		C50.5,30.2,70.7,18.8,90.5,24.1z"/>
	<path class="st0" d="M321.3,4.4L304,4.7v93v93h13.5H331v-41.9v-41.9l23.3-0.4c24.3-0.5,26.6-0.9,37.2-5.8
		c7.2-3.4,17.5-14.1,21.2-22c9.3-19.6,6.2-41.3-8.1-56.7c-7.1-7.7-13.5-11.8-23.4-15c-6.9-2.3-9.6-2.6-25.2-2.8
		C346.4,4.1,330.7,4.2,321.3,4.4z M372.6,28.1c6.4,3,11.6,8.1,15.1,14.9c2.3,4.3,2.7,6.5,2.7,12.9c0,6.9-0.5,8.6-3.5,14.5
		c-3.7,7.2-9.7,12.3-16.7,14.3c-2,0.5-11.7,1-21.4,1H331v-30v-30h18.3C366.4,25.7,367.8,25.9,372.6,28.1z"/>
	<path class="st0" d="M743,21.2l-11.5,4.3L731,42.3l-0.5,16.9l-6.7,0.3l-6.8,0.3v9.4v9.4l6.8,0.3l6.7,0.3l0.5,44.5
		c0.4,33,0.8,45.3,1.8,47.4c5.9,13.5,20.2,21.5,38.4,21.6c9.9,0,9.8,0.1,9.8-9v-7.8l-7.2-1c-8-1.2-11.5-3.2-14-8.3
		c-1.6-3.1-1.8-7.4-1.8-45.7V78.7h11.5H781v-9.5v-9.5h-11.5H758V38.2c0-19.8-0.1-21.5-1.7-21.4C755.3,16.8,749.3,18.8,743,21.2z"/>
	<path class="st0" d="M228.5,56.8c-15.9,1.5-31.2,7.1-44.7,16.2l-7.8,5.2v56.2v56.3h13h13v-52.9V84.9l3.3-2c9-5.6,24.5-7.8,34.1-5
		c5.4,1.6,12.8,9,14.4,14.4c0.8,2.8,1.2,17.2,1.2,49.7c0.1,25.2,0.3,46.4,0.6,47.2c0.5,1.2,3,1.5,13.5,1.5h13l-0.3-54.3l-0.3-54.2
		l-2.3-4.3C270.9,62.3,252.1,54.5,228.5,56.8z"/>
	<path class="st0" d="M559.8,59.9l-11.8,4v63.4v63.4h13h13v-67.5c0-53.4-0.3-67.5-1.2-67.4C572.1,55.8,566.2,57.7,559.8,59.9z"/>
	<path class="st0" d="M648.3,56.9c-16.5,1.7-29.9,6.6-44.1,15.8l-8.2,5.4v56.3v56.3h13.5H623v-53.4V84l6.8-3.1
		c11.1-5.2,25-5.9,32.9-1.9c4.3,2.3,8.4,6.7,10.7,11.7c2,4.3,2.1,6.1,2.4,52.3l0.3,47.8l13.2-0.3l13.2-0.3v-52
		c0-58.6,0-58.2-7.5-66.8C684.8,59.9,668.2,54.7,648.3,56.9z"/>
	<path class="st0" d="M456.3,58.1c-29.5,7.2-48.5,39.2-44.3,74.9c2.7,23.3,12.2,41,27.4,51.1c18.3,12.1,46.4,11.8,64.8-0.8
		c21-14.3,32-46.7,26-75.9C524.9,81.8,509,64,486.5,58.2C479.4,56.4,463.6,56.4,456.3,58.1z M482.2,79.5c9.2,4,15.7,13,18.9,26.2
		c2,7.8,1.7,31.5-0.5,40.4c-4.6,19.2-13.5,27.6-28.8,27.6c-9,0-13.9-2.1-19.2-8c-8.3-9.2-12-22.6-12.1-43.5c0-17,1.9-25.6,7.4-33.2
		C455.8,78.1,470.1,74.1,482.2,79.5z"/>
	<g>
		<g>
			<path class="st0" d="M27.1,272.3l6.2,0.9c-0.2,4.7-1.6,8.3-4.1,10.8s-6.1,3.7-10.8,3.7c-5.7,0-9.9-2.3-12.5-6.9
				c-1.8-3.2-2.7-8.5-2.7-15.7v-11.5c0-4.2,0.3-7.6,0.8-10.1s1.4-4.7,2.6-6.5c2.6-3.9,6.5-5.9,11.8-5.9c4.5,0,8,1.3,10.4,3.8
				c2.5,2.5,3.8,6.1,4,10.9l-6.1,0.6c-0.6-5.7-3.3-8.6-8.1-8.6c-3.2,0-5.4,1.2-6.8,3.7c-1.3,2.5-2,6.7-2,12.6v10.5
				c0,5.9,0.7,10.1,2,12.6s3.6,3.7,6.8,3.7C23.6,280.9,26.5,278,27.1,272.3z"/>
			<path class="st0" d="M41.3,266v-13.5c0-4,0.3-7.2,0.8-9.6c0.6-2.4,1.5-4.5,2.8-6.3c2.8-3.8,6.9-5.7,12.3-5.7
				c5.9,0,10.1,2.2,12.9,6.7c2,3.2,3,8.3,3,15V266c0,4-0.3,7.2-0.8,9.6c-0.6,2.5-1.5,4.6-2.8,6.3c-2.8,3.8-6.8,5.7-12.2,5.7
				c-5.9,0-10.2-2.2-12.9-6.7C42.3,277.7,41.3,272.7,41.3,266z M66.5,265.2v-11.9c0-5.5-0.7-9.5-2.2-12s-3.8-3.7-7.1-3.7
				s-5.7,1.2-7.1,3.7c-1.5,2.5-2.2,6.5-2.2,12v11.9c0,5.5,0.7,9.5,2.2,12s3.8,3.7,7.1,3.7s5.6-1.2,7.1-3.7S66.5,270.7,66.5,265.2z"
				/>
			<path class="st0" d="M83,286.9v-55.2h6.3l13,34l13-34h6.3v55.2h-6.4v-39.5l-10.8,27.9h-4.2l-10.8-27.9v39.5L83,286.9L83,286.9z"
				/>
			<path class="st0" d="M132.5,286.9v-55.2h6.3l13,34l13-34h6.3v55.2h-6.4v-39.5l-10.8,27.9h-4.2l-10.8-27.9v39.5L132.5,286.9
				L132.5,286.9z"/>
			<path class="st0" d="M181.7,231.6h6.6v34.8c0,4.6,0.5,8,1.4,10c1.4,3,4,4.5,7.5,4.5c3.8,0,6.4-1.7,7.8-5.2c0.7-1.9,1-5,1-9.3
				v-34.8h6.6v34.8c0,4-0.2,7.1-0.6,9.2c-0.4,2.1-1.1,4-2.1,5.6c-2.6,4.3-6.9,6.4-12.7,6.4c-6.3,0-10.8-2.5-13.4-7.3
				c-0.8-1.6-1.3-3.3-1.6-5.3s-0.5-4.8-0.5-8.6V231.6z"/>
			<path class="st0" d="M223.4,286.9v-55.2h6.4l19.7,41.3v-41.3h6.4v55.2h-6.4l-19.7-41.3v41.3H223.4z"/>
			<path class="st0" d="M266.8,286.9v-55.2h6.6v55.2H266.8z"/>
			<path class="st0" d="M293.4,286.9v-48.4H281v-6.8h31.4v6.8H300v48.4H293.4z"/>
			<path class="st0" d="M330.5,286.9v-20l-13.8-35.3h7l10.1,27l10.1-27h7l-13.8,35.3v20L330.5,286.9L330.5,286.9z"/>
		</g>
	</g>
	<g>
		<g>
			<path class="st0" d="M400.8,272.3l6.2,0.9c-0.2,4.7-1.6,8.3-4.1,10.8s-6.1,3.7-10.8,3.7c-5.7,0-9.9-2.3-12.5-6.9
				c-1.8-3.2-2.7-8.5-2.7-15.7v-11.5c0-4.2,0.3-7.6,0.8-10.1s1.4-4.7,2.6-6.5c2.6-3.9,6.5-5.9,11.8-5.9c4.5,0,8,1.3,10.4,3.8
				c2.5,2.5,3.8,6.1,4,10.9l-6.1,0.6c-0.6-5.7-3.3-8.6-8.1-8.6c-3.2,0-5.4,1.2-6.8,3.7c-1.3,2.5-2,6.7-2,12.6v10.5
				c0,5.9,0.7,10.1,2,12.6s3.6,3.7,6.8,3.7C397.4,280.9,400.2,278,400.8,272.3z"/>
			<path class="st0" d="M422.5,263.7v23.2h-6.6v-55.2h15.7c5.1,0,8.7,1.3,10.8,4c2.1,2.6,3.2,6.5,3.2,11.7c0,4.5-0.7,8-2.1,10.5
				s-3.6,4.1-6.6,5l9.6,24h-7.3l-8.8-23.2H422.5z M422.3,257.1h9c2.6,0,4.6-0.8,5.8-2.3c1.2-1.5,1.9-3.9,1.9-7.1
				c0-3.3-0.6-5.7-1.9-7.2s-3.3-2.2-6.1-2.2h-8.6L422.3,257.1L422.3,257.1z"/>
			<path class="st0" d="M454.9,286.9v-55.2h26.5v6.8h-19.9v17.1h16.9v6.8h-16.9v17.7h20.1v6.8H454.9z"/>
			<path class="st0" d="M489.7,286.9v-55.2h14.5c5.6-0.1,9.8,1.6,12.5,5.1s4,8.9,3.9,16.1v12.8c0.2,7.2-1.1,12.5-3.9,16.1
				c-2.7,3.5-6.9,5.2-12.5,5.1L489.7,286.9L489.7,286.9z M496.3,280.2h6.7c3.9,0.1,6.7-1,8.4-3.4c1.7-2.3,2.5-6.3,2.6-11.9v-11.4
				c0-5.6-0.9-9.5-2.6-11.9c-1.7-2.3-4.5-3.5-8.3-3.4h-6.7v42H496.3z"/>
			<path class="st0" d="M530.4,286.9v-55.2h6.6v55.2H530.4z"/>
			<path class="st0" d="M557,286.9v-48.4h-12.4v-6.8H576v6.8h-12.4v48.4H557z"/>
		</g>
	</g>
	<g>
		<g>
			<path class="st0" d="M604.2,231.6h6.6v34.8c0,4.6,0.5,8,1.4,10c1.4,3,4,4.5,7.5,4.5c3.8,0,6.4-1.7,7.8-5.2c0.7-1.9,1-5,1-9.3
				v-34.8h6.6v34.8c0,4-0.2,7.1-0.6,9.2c-0.4,2.1-1.1,4-2.1,5.6c-2.6,4.3-6.9,6.4-12.7,6.4c-6.3,0-10.8-2.5-13.4-7.3
				c-0.8-1.6-1.3-3.3-1.6-5.3s-0.5-4.8-0.5-8.6V231.6z"/>
			<path class="st0" d="M645.8,286.9v-55.2h6.4l19.7,41.3v-41.3h6.4v55.2h-6.4l-19.7-41.3v41.3H645.8z"/>
			<path class="st0" d="M689.3,286.9v-55.2h6.6v55.2H689.3z"/>
			<path class="st0" d="M705.7,266v-13.5c0-4,0.3-7.2,0.8-9.6c0.6-2.4,1.5-4.5,2.8-6.3c2.8-3.8,6.9-5.7,12.3-5.7
				c5.9,0,10.1,2.2,12.9,6.7c2,3.2,3,8.3,3,15V266c0,4-0.3,7.2-0.8,9.6c-0.6,2.5-1.5,4.6-2.8,6.3c-2.8,3.8-6.8,5.7-12.2,5.7
				c-5.9,0-10.2-2.2-12.9-6.7C706.7,277.7,705.7,272.7,705.7,266z M730.9,265.2v-11.9c0-5.5-0.7-9.5-2.2-12s-3.8-3.7-7.1-3.7
				s-5.7,1.2-7.1,3.7c-1.5,2.5-2.2,6.5-2.2,12v11.9c0,5.5,0.7,9.5,2.2,12s3.8,3.7,7.1,3.7s5.6-1.2,7.1-3.7S730.9,270.7,730.9,265.2z
				"/>
			<path class="st0" d="M747.4,286.9v-55.2h6.4l19.7,41.3v-41.3h6.4v55.2h-6.4l-19.7-41.3v41.3H747.4z"/>
		</g>
	</g>
	<g>
		<path class="st0" d="M790.4,16.1c-5,0-9.1,4.1-9.1,9.1s4.1,9.1,9.1,9.1s9.1-4.1,9.1-9.1S795.4,16.1,790.4,16.1z M790.4,32.5
			c-4,0-7.3-3.3-7.3-7.3s3.3-7.3,7.3-7.3s7.3,3.3,7.3,7.3S794.4,32.5,790.4,32.5z"/>
		<path class="st0" d="M792.3,20.7h-5.4v9.1h1.4v-3.9h1.7l3.2,3.9l1.1-0.9l-2.5-3.1c1.1,0,2-0.3,2.5-1c0.6-0.8,0.5-1.7,0.5-1.7
			C794.6,21.3,793.1,20.7,792.3,20.7z M793.2,24c-0.3,0.3-0.8,0.5-1.6,0.5h-3.3v-2.3h4c0.2,0,1,0.1,1.2,1.2
			C793.4,23.4,793.5,23.7,793.2,24z"/>
	</g>
</g>
</svg>
