<svg width="172" height="53" viewBox="0 0 172 53" fill="none" xmlns="http://www.w3.org/2000/svg">
<g id="Logos/Red">
<g id="Group">
<path id="Fill 1" fill-rule="evenodd" clip-rule="evenodd" d="M153.783 53.0032H0V0H171.999V34.7605C171.999 44.8361 163.844 53.0032 153.783 53.0032Z" fill="#D12A2E"/>
<path id="Fill 2" fill-rule="evenodd" clip-rule="evenodd" d="M28.9697 33.6008H22.2939V29.2324H28.9697C30.5909 29.2324 31.5172 30.1219 31.5172 31.3975C31.5172 32.788 30.5515 33.6008 28.9697 33.6008ZM22.2939 19.4158H28.7381C30.0894 19.4158 31.0147 20.1882 31.0147 21.4255C31.0147 22.7 30.0894 23.4352 28.7381 23.4352H22.2939V19.4158ZM33.37 26.1013C35.8006 25.5609 37.7681 23.397 37.7681 20.1882C37.7681 16.9423 35.3757 13.6187 30.2435 13.6187H15.6563V39.3969H30.7066C35.7613 39.3969 38.2695 36.1498 38.2695 32.4018C38.2695 29.1547 36.1098 26.5269 33.37 26.1013Z" fill="white"/>
<path id="Fill 3" fill-rule="evenodd" clip-rule="evenodd" d="M57.104 39.3969H75.9745V33.6008H63.7416V29.2324H75.7047V23.4352H63.7416V19.4158H75.9745V13.6187H57.104V39.3969Z" fill="white"/>
<path id="Fill 4" fill-rule="evenodd" clip-rule="evenodd" d="M107.428 19.0681C109.897 19.0681 112.097 20.7693 112.946 22.8173L118.657 20.0724C116.998 16.7105 113.64 13.1943 107.428 13.1943C99.5175 13.1943 93.4971 18.5659 93.4971 26.5271C93.4971 34.4499 99.5175 39.8609 107.428 39.8609C113.64 39.8609 116.998 36.2288 118.657 32.9435L112.946 30.2368C112.097 32.286 109.897 33.986 107.428 33.986C103.222 33.986 100.249 30.7412 100.249 26.5271C100.249 22.2757 103.222 19.0681 107.428 19.0681Z" fill="white"/>
<path id="Fill 5" fill-rule="evenodd" clip-rule="evenodd" d="M150.978 13.6187V28.7291C150.978 31.7825 149.126 33.9859 145.576 33.9859C141.986 33.9859 140.134 31.7825 140.134 28.7291V13.6187H133.381V28.9611C133.381 35.2998 137.317 39.8608 145.576 39.8608C153.833 39.8608 157.693 35.3392 157.693 28.9228V13.6187H150.978Z" fill="white"/>
<path id="Fill 6" fill-rule="evenodd" clip-rule="evenodd" d="M45.0689 43.0649H47.5468V9.93799H45.0689V43.0649Z" fill="white"/>
<path id="Fill 7" fill-rule="evenodd" clip-rule="evenodd" d="M84.7617 43.0649H87.2384V9.93799H84.7617V43.0649Z" fill="white"/>
<path id="Fill 8" fill-rule="evenodd" clip-rule="evenodd" d="M124.453 43.0649H126.93V9.93799H124.453V43.0649Z" fill="white"/>
</g>
</g>
</svg>
