<svg width="46" height="50" viewBox="0 0 46 50" fill="none" xmlns="http://www.w3.org/2000/svg">
<g id="EHOL" clip-path="url(#clip0_1007_2984)">
<path id="Vector" fill-rule="evenodd" clip-rule="evenodd" d="M11.4085 7.68078L0.0203358 15.3211L0.00992376 18.4188L-0.000488281 21.5164H1.50462H3.00973V30.6227V39.729L3.1001 39.7527C3.14981 39.7656 12.1454 39.7891 23.0904 39.8047L42.9903 39.8332V30.6952V21.5571H44.4749H45.9594L45.9566 18.5167C45.955 16.8445 45.941 15.4442 45.9254 15.4049C45.9099 15.3656 40.7819 11.8926 34.53 7.68704C23.6041 0.337531 23.1556 0.0406087 22.9797 0.0405273C22.8038 0.0404867 22.3528 0.338222 11.4085 7.68078ZM30.5209 13.0643L38.0254 18.0795L38.0269 25.8177L38.0284 33.556H23.0203H8.01219L8.02244 25.7807L8.03273 18.0053L15.4757 13.0087C19.5694 10.2605 22.9407 8.02041 22.9675 8.03062C22.9944 8.04083 26.3934 10.306 30.5209 13.0643ZM15.0487 19.8691V23.1434H22.9797H30.9108V22.3163C30.9108 21.8614 30.8986 20.3879 30.8837 19.042L30.8567 16.5949H22.9527H15.0487V19.8691ZM15.0893 27.4346V30.7088H23.0204H30.9514V27.4346V24.1603H23.0204H15.0893V27.4346ZM7.88509 40.7551C7.56594 40.8364 7.25898 41.0055 7.08694 41.1947C6.83461 41.4723 6.72951 41.7025 6.65618 42.1383C6.59867 42.48 6.59782 42.5655 6.64854 42.8773C6.75949 43.5592 7.03557 43.9169 7.64159 44.1641C7.94187 44.2865 8.52901 44.2905 8.8055 44.172C9.05103 44.0667 9.08345 44.0689 9.28624 44.2036C9.45841 44.318 9.73762 44.4567 9.79582 44.4567C9.81327 44.4567 9.85821 44.3924 9.89571 44.3138L9.96384 44.1709L9.66173 44.0214L9.35961 43.872L9.47886 43.7361C9.84467 43.3195 9.98763 42.5208 9.80237 41.929C9.63431 41.3922 9.33427 41.0484 8.8445 40.8318C8.63903 40.7409 8.10773 40.6985 7.88509 40.7551ZM26.0301 40.7387C25.4683 40.8312 25.3358 40.8855 25.0221 41.1513C24.7871 41.3505 24.7058 41.4858 24.5661 41.9108C24.4855 42.1557 24.4764 42.2484 24.4945 42.6319C24.5135 43.0317 24.5286 43.0991 24.6601 43.3678C24.8326 43.7204 24.9264 43.8287 25.1963 43.9874C25.6204 44.2368 25.677 44.2534 26.1026 44.2534C26.7467 44.2534 27.1272 44.0614 27.4531 43.5721C27.6229 43.3172 27.6585 43.2265 27.7166 42.901C27.7777 42.5589 27.7782 42.4904 27.7222 42.1474C27.6508 41.71 27.4778 41.3435 27.2568 41.1613C26.9082 40.874 26.3586 40.6846 26.0301 40.7387ZM32.5254 40.8129C32.0331 40.9586 31.8055 41.2313 31.8055 41.6755C31.8055 42.0962 32.05 42.3707 32.558 42.5203C32.6922 42.5599 32.8478 42.6071 32.9037 42.6253C32.9596 42.6435 33.1095 42.6813 33.2369 42.7093C33.3642 42.7373 33.5375 42.799 33.6221 42.8465C33.7978 42.9451 33.9612 43.1641 33.9612 43.3012C33.9612 43.4712 33.8096 43.6648 33.5993 43.7633C33.4244 43.8452 33.3533 43.8545 33.0196 43.8393C32.6952 43.8244 32.6144 43.8061 32.47 43.7139C32.2699 43.5864 32.1845 43.4746 32.1284 43.267L32.0871 43.1145H31.8622C31.6673 43.1145 31.6401 43.124 31.658 43.1857C31.6694 43.2248 31.6981 43.33 31.7218 43.4195C31.8735 43.9917 32.3031 44.2534 33.0904 44.2534C33.5017 44.2534 33.7606 44.184 33.9893 44.0125C34.2289 43.8328 34.3393 43.6191 34.3604 43.2942C34.3786 43.014 34.2972 42.806 34.0971 42.6215C33.8575 42.4005 33.7396 42.357 32.7111 42.1097C32.5127 42.0619 32.4299 42.0173 32.3313 41.905C32.2234 41.7821 32.2089 41.7402 32.2308 41.6143C32.2914 41.2664 32.7538 41.0574 33.2408 41.158C33.3772 41.1861 33.5356 41.2459 33.5928 41.2906C33.7091 41.3816 33.8348 41.5926 33.8374 41.701C33.8389 41.76 33.8776 41.7722 34.0628 41.7722C34.2808 41.7722 34.2865 41.7693 34.2865 41.6582C34.2865 41.4586 34.092 41.1314 33.8912 40.9933C33.6964 40.8592 33.2227 40.7151 32.985 40.7176C32.9067 40.7184 32.6999 40.7613 32.5254 40.8129ZM41.0136 40.7556C40.1572 40.9308 39.6445 41.6816 39.7082 42.6671C39.7724 43.6599 40.4035 44.2558 41.3865 44.2519C41.9422 44.2497 42.1778 44.1819 42.6341 43.8929L42.8676 43.7449L42.868 43.1043L42.8683 42.4637H42.1362H41.4041V42.6671V42.8704H41.9125H42.4209V43.2068V43.5431L42.1733 43.6792C41.9648 43.7939 41.8718 43.8187 41.5842 43.8367C41.1019 43.8668 40.7991 43.7954 40.5762 43.5992C40.2139 43.2803 40.0628 42.6712 40.2005 42.0844C40.2797 41.7465 40.4436 41.498 40.6989 41.329C40.9516 41.1615 41.1634 41.1083 41.4855 41.1312C41.9119 41.1614 42.2011 41.3507 42.3124 41.6723C42.3431 41.7608 42.3846 41.8326 42.4047 41.8319C42.4248 41.8311 42.5201 41.8156 42.6165 41.7974C42.7869 41.7652 42.791 41.7607 42.7657 41.636C42.6936 41.28 42.3347 40.9344 41.9176 40.8191C41.6417 40.7428 41.2207 40.7133 41.0136 40.7556ZM3.57914 42.484V44.2127H4.86031H6.14148V44.0093V43.8059H5.08401H4.02653V43.2162V42.6264H4.98233H5.93812V42.423V42.2196H4.98233H4.02653V41.6909V41.1621H5.04333H6.06013V40.9587V40.7554H4.81964H3.57914V42.484ZM10.5029 42.0264C10.5213 43.2321 10.5271 43.3101 10.6163 43.5416C10.726 43.8264 10.8501 43.975 11.1035 44.1248C11.2782 44.2281 11.3123 44.233 11.8559 44.233C12.4038 44.233 12.4325 44.2288 12.6155 44.1212C12.7201 44.0597 12.8625 43.9407 12.9319 43.8568C13.1633 43.577 13.1857 43.4288 13.208 42.0264L13.2283 40.7554H12.9815H12.7346L12.7221 42.0264C12.7101 43.2342 12.7051 43.307 12.6206 43.4887C12.4908 43.7675 12.315 43.8466 11.825 43.8466C11.5997 43.8466 11.4266 43.8281 11.3997 43.8012C11.3748 43.7762 11.3116 43.7346 11.2594 43.7086C11.2023 43.6801 11.1285 43.5726 11.0742 43.4387C10.988 43.2261 10.9839 43.1612 10.9827 41.9858L10.9815 40.7554H10.7325H10.4835L10.5029 42.0264ZM14.7888 41.0299C14.7315 41.1809 14.4389 41.9597 14.1386 42.7604L13.5926 44.2163L13.8386 44.2043L14.0846 44.1923L14.2671 43.6737L14.4495 43.1552H15.1713H15.8931L16.0759 43.6737L16.2586 44.1923L16.525 44.2043L16.7913 44.2163L16.0988 42.4858L15.4062 40.7554H15.1496H14.8931L14.7888 41.0299ZM17.1229 42.484V44.2127H18.2007H19.2785V44.0093V43.8059H18.4244H17.5703V42.2807V40.7554H17.3466H17.1229V42.484ZM21.1495 42.484V44.2127H21.3935H21.6375V43.3992V42.5857H22.512H23.3864V43.3992V44.2127H23.6101H23.8338V42.484V40.7554H23.6101H23.3864V41.4672V42.179H22.512H21.6375V41.4672V40.7554H21.3935H21.1495V42.484ZM28.3581 42.0264C28.3706 43.098 28.384 43.3311 28.4438 43.5116C28.5287 43.7684 28.6998 43.9733 28.9539 44.1227C29.1338 44.2285 29.1649 44.233 29.7109 44.233C30.2535 44.233 30.289 44.2279 30.4634 44.1254C30.564 44.0662 30.7082 43.9408 30.7838 43.8467C31.0177 43.5556 31.0328 43.4455 31.0328 42.0301V40.7554H30.8112H30.5896L30.5771 42.0264C30.5652 43.2342 30.5601 43.307 30.4756 43.4887C30.3471 43.7649 30.1688 43.8466 29.6945 43.8466C29.2532 43.8466 29.0951 43.7723 28.9274 43.4862L28.817 43.2977L28.8018 42.0265L28.7866 40.7554H28.5649H28.3432L28.3581 42.0264ZM35.0593 42.484V44.2127H35.3033H35.5474V42.484V40.7554H35.3033H35.0593V42.484ZM36.3201 42.484V44.2127H36.5433H36.7664L36.7772 42.8734L36.7879 41.534L37.6623 42.8727L38.5368 44.2113L38.791 44.212L39.0452 44.2127V42.484V40.7554H38.822H38.5989L38.5881 42.1149L38.5774 43.4745L37.6876 42.1149L36.7978 40.7554H36.559H36.3201V42.484ZM8.73611 41.2437C9.1711 41.4309 9.39524 41.8588 9.39524 42.5023C9.39524 42.9377 9.31565 43.259 9.1604 43.4505C9.10167 43.523 9.04843 43.5895 9.04213 43.5985C9.03582 43.6074 8.96172 43.5672 8.87741 43.5092C8.71435 43.397 8.53234 43.3178 8.43733 43.3178C8.40557 43.3178 8.35184 43.3841 8.31796 43.4652C8.24382 43.6427 8.24378 43.6432 8.30592 43.6432C8.33313 43.6432 8.43502 43.6737 8.53234 43.7108L8.70935 43.7784L8.57989 43.8329C8.39052 43.9125 8.11981 43.8996 7.81973 43.7966C7.30149 43.6187 7.05164 43.146 7.08405 42.4049C7.09849 42.0746 7.11797 41.9915 7.23543 41.7601C7.40402 41.428 7.52949 41.3066 7.8109 41.2036C8.09162 41.1009 8.43896 41.1159 8.73611 41.2437ZM26.525 41.2016C26.7737 41.2747 27.0622 41.5688 27.1738 41.8627C27.2559 42.0792 27.2697 42.1838 27.2645 42.5513C27.2591 42.9297 27.244 43.0165 27.1455 43.2362C27.0146 43.5278 26.7938 43.7212 26.4684 43.8293C26.1793 43.9254 25.7705 43.8892 25.5465 43.7477C25.3496 43.6235 25.0766 43.29 25.0202 43.1049C24.8985 42.7057 24.9429 42.0785 25.1173 41.7316C25.3722 41.2249 25.9127 41.0213 26.525 41.2016ZM15.2866 41.579C15.3519 41.786 15.4787 42.1428 15.5683 42.3722L15.7312 42.7891H15.1435C14.8203 42.7891 14.5636 42.7753 14.5732 42.7586C14.5905 42.7283 15.0841 41.3512 15.1126 41.2536C15.1414 41.155 15.169 41.2065 15.2866 41.579ZM4.67729 45.0058C4.62136 45.0378 4.54299 45.0646 4.50309 45.0654C4.46319 45.0662 4.34422 45.1114 4.23872 45.1659C3.78624 45.3994 3.42324 45.919 3.31742 46.4847C3.23347 46.9333 3.23709 47.2447 3.33006 47.5803C3.47571 48.1059 3.75623 48.5448 4.09783 48.7816C4.40006 48.991 4.64772 49.0529 5.18361 49.0529H5.6707L6.00917 48.8853C6.41626 48.6836 6.66273 48.4545 6.83071 48.1218C7.00926 47.7681 7.07694 47.4652 7.07694 47.02C7.07694 46.1312 6.70255 45.4706 5.99782 45.1161C5.66993 44.9511 4.88727 44.8858 4.67729 45.0058ZM16.2979 45.0651C15.9854 45.1774 15.9329 45.2094 15.6649 45.452C14.9393 46.1086 14.8789 47.6122 15.5444 48.4525C15.6846 48.6296 16.1148 48.9227 16.3531 49.0036C16.5445 49.0686 17.3804 49.0676 17.5674 49.0021C17.9177 48.8794 18.2394 48.6647 18.4331 48.4242C18.6618 48.1403 18.7761 47.8621 18.8595 47.3868C18.9273 46.9998 18.8979 46.6745 18.7525 46.2036C18.6076 45.7344 18.2887 45.3691 17.8127 45.1273C17.3954 44.9152 16.785 44.8902 16.2979 45.0651ZM7.76836 46.9989V49.0122H8.03273H8.2971V48.1988V47.3853H8.96619C9.45706 47.3853 9.69813 47.3678 9.87115 47.3197C10.0009 47.2836 10.157 47.245 10.2182 47.2338C10.3601 47.2079 10.5954 46.9481 10.7206 46.6792C10.7972 46.5147 10.8181 46.4017 10.8184 46.1497C10.8187 45.8675 10.8042 45.8037 10.6963 45.6152C10.5741 45.4016 10.4186 45.2558 10.1883 45.139C9.96888 45.0278 9.54528 44.9855 8.64964 44.9855H7.76836V46.9989ZM11.5102 46.9989V49.0122H11.7746H12.0389V48.1988V47.3853H12.7243C13.1012 47.3853 13.4627 47.3691 13.5276 47.3494C13.5924 47.3296 13.7278 47.2896 13.8285 47.2604C14.0965 47.1828 14.2066 47.0918 14.3773 46.8067C14.5203 46.568 14.5305 46.5291 14.5349 46.2057C14.5421 45.6691 14.3657 45.3578 13.9302 45.1386C13.7098 45.0277 13.2858 44.9855 12.3915 44.9855H11.5102V46.9989ZM19.6039 46.9959V49.0122H19.8683H20.1327V48.1174V47.2226H20.561C20.8279 47.2226 21.0387 47.2432 21.1203 47.2773C21.3342 47.3667 21.6794 47.7817 22.0667 48.415L22.4306 49.0101L22.7458 49.0112C22.9192 49.0118 23.0611 49.0028 23.0611 48.9914C23.0611 48.9799 22.8948 48.7052 22.6917 48.3809C22.3157 47.7807 21.9992 47.3905 21.7799 47.2567C21.6611 47.1842 21.6605 47.1822 21.7567 47.1821C21.9025 47.1818 22.1196 47.0991 22.3493 46.9563C22.8663 46.6348 22.9315 45.8127 22.4778 45.338C22.2082 45.056 21.9781 45.0123 20.6716 44.9942L19.6039 44.9795V46.9959ZM23.3051 45.2295V45.4736H23.9762H24.6473V47.2429V49.0122H24.9116H25.176V47.2429V45.4736H25.8267H26.4775V45.2295V44.9855H24.8913H23.3051V45.2295ZM27.0469 46.3142C27.0469 47.1168 27.0651 47.749 27.0929 47.9107C27.1752 48.3907 27.4242 48.7674 27.7693 48.9341C27.9338 49.0136 28.0441 49.0299 28.5215 49.0447C29.0312 49.0606 29.1018 49.0539 29.3146 48.9699C29.8165 48.7715 30.0175 48.5289 30.1136 48.0052C30.1649 47.7255 30.1788 47.3655 30.1787 46.3176L30.1787 44.9855H29.9166H29.6545L29.642 46.4803L29.6296 47.975L29.5279 48.1564C29.4629 48.2725 29.3541 48.3823 29.226 48.4615C29.0363 48.5787 29.0041 48.585 28.6091 48.5832C28.1009 48.5807 27.965 48.521 27.7466 48.204L27.596 47.9856L27.5839 46.4856L27.5719 44.9855H27.3094H27.0469V46.3142ZM31.0734 46.9989V49.0122H31.3175H31.5615L31.5616 47.4361L31.5616 45.86L32.6089 47.435L33.6561 49.01L33.9307 49.0111L34.2052 49.0122V46.9989V44.9855H33.9616H33.7181L33.7074 46.5462L33.6968 48.1068L32.6423 46.5462L31.5879 44.9855H31.3307H31.0734V46.9989ZM35.1813 46.9989V49.0122H35.4457H35.7101V46.9989V44.9855H35.4457H35.1813V46.9989ZM36.3608 45.2295V45.4736H37.0116H37.6623V47.2429V49.0122H37.9267H38.1911V47.2429V45.4736H38.8621H39.5332V45.2295V44.9855H37.947H36.3608V45.2295ZM39.7187 45.0973C39.7587 45.1589 40.1085 45.685 40.4961 46.2666L41.2008 47.324V48.1681V49.0122H41.4652H41.7295V48.1673V47.3224L42.4608 46.2555C42.8629 45.6687 43.2219 45.1429 43.2585 45.0871L43.3251 44.9855H43.0212H42.7173L42.1672 45.8295C41.8646 46.2937 41.5896 46.7274 41.5561 46.7934L41.495 46.9134L41.3833 46.6917C41.3218 46.5698 41.2216 46.406 41.1607 46.3277C41.0998 46.2494 40.8804 45.9154 40.6732 45.5854L40.2965 44.9855H39.9712H39.6459L39.7187 45.0973ZM5.73053 45.5324C6.33561 45.8391 6.59257 46.3638 6.53482 47.1747C6.50867 47.5417 6.37176 47.975 6.23352 48.1284C6.19407 48.1722 6.052 48.2917 5.91778 48.394C5.68197 48.5739 5.66252 48.5807 5.34061 48.5978C4.8414 48.6243 4.69262 48.5895 4.41458 48.3814C4.12297 48.1632 3.93392 47.8782 3.86482 47.5526C3.80003 47.2473 3.82976 46.5434 3.91932 46.2625C3.99204 46.0343 4.23579 45.7289 4.41816 45.6374C4.48238 45.6051 4.56621 45.5529 4.60444 45.5214C4.80117 45.359 5.39978 45.3648 5.73053 45.5324ZM17.5254 45.5324C18.1403 45.8441 18.3817 46.3463 18.328 47.2022C18.2949 47.7297 18.1315 48.0959 17.8251 48.3292C17.4908 48.5838 17.4253 48.6054 17.0009 48.6012C16.524 48.5965 16.4916 48.5871 16.1873 48.365C15.9816 48.2149 15.9166 48.1354 15.7899 47.8791L15.6384 47.5725L15.6386 47.0213C15.6389 46.5097 15.6471 46.4508 15.7524 46.2017C15.8789 45.9025 16.0295 45.7378 16.3273 45.5734C16.6191 45.4122 16.7045 45.3922 17.0257 45.4099C17.2339 45.4213 17.3739 45.4556 17.5254 45.5324ZM21.683 45.4742C22.2363 45.6279 22.4154 46.1481 22.0498 46.54C21.8564 46.7474 21.7327 46.7711 20.8343 46.7734L20.1327 46.7752V46.104V45.4329L20.8343 45.4332C21.2201 45.4333 21.6021 45.4517 21.683 45.4742ZM9.95753 45.5888C10.1707 45.7014 10.2879 45.9266 10.289 46.2261C10.29 46.4971 10.1836 46.6639 9.92678 46.7941C9.73201 46.8928 9.69288 46.8972 9.0102 46.8972H8.2971V46.1815V45.4658L9.03936 45.4809C9.71761 45.4946 9.7968 45.5039 9.95753 45.5888ZM13.6538 45.571C13.8858 45.6695 13.9912 45.8539 13.9912 46.1613C13.9912 46.5126 13.9393 46.6181 13.6931 46.7673L13.4788 46.8972H12.7589H12.0389V46.1814V45.4657L12.7609 45.4821C13.3359 45.4951 13.5176 45.5132 13.6538 45.571Z" fill="black"/>
</g>
<defs>
<clipPath id="clip0_1007_2984">
<rect width="46" height="49.0531" fill="white"/>
</clipPath>
</defs>
</svg>
