<?xml version="1.0" encoding="UTF-8"?>
<svg width="356px" height="318px" viewBox="0 0 356 318" version="1.1" xmlns="http://www.w3.org/2000/svg" xmlns:xlink="http://www.w3.org/1999/xlink">
    <title>Trim-Logo-ShieldOnly-Primary Copy</title>
    <g id="Trim-Logo-ShieldOnly-Primary-Copy" stroke="none" stroke-width="1" fill="none" fill-rule="evenodd">
        <g id="Logo/ShieldOnly/Primary" transform="translate(0, 0)">
            <g id="shield/full-color" transform="translate(0, -0)">
                <path d="M0,2.84217094e-14 L0,224.296885 C0,275.79853 41.8751809,317.6737 93.3768403,317.6737 L356.1797,317.6737 L356.1797,93.3768148 C356.1797,41.8751695 314.304519,2.84217094e-14 262.80286,2.84217094e-14 L0,2.84217094e-14 L0,2.84217094e-14 Z" id="Outer-Shield" fill="#26D07C" fill-rule="nonzero"></path>
                <path d="M14.4397176,14.4397136 L262.80286,14.4397136 C306.122012,14.4397136 341.739982,50.0576739 341.739982,93.3768148 L341.739982,303.233986 L93.3768403,303.233986 C50.0576876,303.233986 14.4397176,267.616026 14.4397176,224.296885 L14.4397176,14.4397136" id="Middle-Shield" fill="#FFFFFF"></path>
                <g id="Utility/53-elements/Stencil" transform="translate(28.8794, 28.3981)" fill="#1D4094">
                    <path d="M226.447613,218.283704 L171.620225,218.283704 C171.620225,218.283704 204.146013,211.348448 198.569887,185.457279 C194.852792,168.349289 173.942804,159.102924 173.942804,159.102924 C207.862139,152.168632 199.034403,126.276499 199.034403,126.276499 C199.034403,126.276499 193.458277,107.320584 171.620225,99.9231073 L227.840193,99.9231073 C242.710507,99.9231073 254.789855,111.94473 258.506949,121.653317 C262.68856,134.137161 258.971465,153.554335 234.346318,158.640702 C246.427601,163.727069 256.648886,169.736918 259.436949,184.06965 C262.68856,197.939197 252.467275,218.283704 226.447613,218.283704 L226.447613,218.283704 Z M114.447999,222.443701 L164.628293,37.044552 L176.244093,37.044552 L126.063799,222.443701 L114.447999,222.443701 Z M39.1993325,160.833367 C74.9757637,153.43589 65.6835109,124.770426 65.6835109,124.770426 C65.6835109,124.770426 60.1073851,103.965623 36.8757854,96.1059243 L92.1860764,96.1059243 C108.942518,96.1059243 122.386382,109.051028 125.175412,123.384723 C129.356055,144.189525 112.629613,160.833367 97.7612345,160.833367 L39.1993325,160.833367 Z M36.8757854,83.7405243 L116.328321,83.7405243 L116.328321,41.6677345 L36.8757854,41.6677345 L36.8757854,83.7405243 Z M231.516868,0 L0,0 L0,193.010885 C0,229.591863 29.841983,259.914845 66.9049618,259.914845 L298.42083,259.914845 L298.42083,66.9039602 C298.42083,30.322982 268.578847,0 231.516868,0 L231.516868,0 Z" id="Fill-4-Copy"></path>
                </g>
            </g>
        </g>
    </g>
</svg>