<svg width="38" height="17" viewBox="0 0 38 17" fill="none" xmlns="http://www.w3.org/2000/svg">
<g clip-path="url(#clip0_329_265)">
<path d="M4.31252 16.0976H0.326904V0.481934H8.52523V4.56357H4.31252V7.09136H8.28191V11.1735H4.31252V16.0976Z" fill="#003256"/>
<path d="M21.6148 8.28213C21.6148 1.12937 15.5872 0.481934 13.0916 0.481934H9.07397V16.0828H13.0916L13.0854 12.0154V4.49908C15.5572 4.49908 17.6573 5.47099 17.6573 8.25725C17.6573 11.043 15.5572 12.0154 13.0854 12.0154L13.0916 16.0828C16.1969 16.0833 21.6148 15.4496 21.6148 8.28213Z" fill="#003256"/>
<path d="M26.2901 0.449219H22.3044V16.0974H26.2901V0.449219Z" fill="#003256"/>
<path d="M34.4274 11.9667C32.5128 11.9667 30.9284 10.3063 30.9284 8.27C30.9284 6.23376 32.5128 4.57277 34.4274 4.57277C36.173 4.57277 37.0857 5.56093 37.6868 6.8624V1.25942C37.6868 1.25942 35.9221 0.416992 34.2776 0.416992C30.6249 0.416992 26.6675 3.99287 26.6675 8.27C26.6675 13.5064 30.4422 16.1225 34.2776 16.1225C35.9216 16.1225 37.6868 15.2811 37.6868 15.2811V9.72686C36.9674 11.0471 36.1635 11.9667 34.4274 11.9667Z" fill="#003256"/>
</g>
<defs>
<clipPath id="clip0_329_265">
<rect width="37.36" height="15.74" fill="white" transform="translate(0.326904 0.399902)"/>
</clipPath>
</defs>
</svg>
