<svg width="272" height="147" viewBox="0 0 272 147" fill="none" xmlns="http://www.w3.org/2000/svg">
<g clip-path="url(#clip0_33_50325)">
<path d="M47.4266 118.867C48.3533 109.428 53.9546 100.005 62.8668 96.709C59.5735 106.486 59.8519 117.11 63.6526 126.701C65.1318 130.395 67.1624 134.35 65.9609 138.143C65.2134 140.503 63.2818 142.344 61.0997 143.52C58.9174 144.697 56.4771 145.294 54.0672 145.88L53.6005 146.286C49.5266 137.716 46.4999 128.307 47.4266 118.867Z" fill="#F0F0F0"/>
<path d="M62.9607 96.8846C57.9287 102.811 54.7616 110.381 54.2079 118.141C54.0881 119.819 54.113 121.531 54.5227 123.171C54.9343 124.766 55.7666 126.222 56.933 127.388C57.9986 128.497 59.2174 129.508 59.9943 130.857C60.8133 132.277 60.8861 133.914 60.3912 135.459C59.7857 137.349 58.5357 138.91 57.2602 140.393C55.844 142.04 54.3468 143.729 53.7826 145.878C53.7143 146.139 53.3133 146.018 53.3816 145.758C54.3631 142.018 57.9186 139.816 59.5532 136.428C60.3159 134.847 60.6058 133.027 59.8096 131.4C59.1133 129.977 57.8574 128.933 56.7686 127.82C55.6255 126.651 54.7386 125.358 54.2579 123.784C53.7663 122.173 53.6743 120.458 53.7505 118.784C53.9517 114.991 54.7493 111.253 56.1141 107.707C57.6493 103.651 59.8684 99.8874 62.6754 96.5784C62.8492 96.3737 63.1334 96.6812 62.9607 96.8846L62.9607 96.8846Z" fill="white"/>
<path d="M54.2545 115.609C52.9523 115.329 51.7922 114.597 50.9814 113.542C50.1705 112.487 49.7617 111.18 49.828 109.852C49.8312 109.798 49.8553 109.747 49.8953 109.71C49.9353 109.674 49.988 109.654 50.0423 109.655C50.0966 109.656 50.1483 109.679 50.1864 109.717C50.2246 109.756 50.2463 109.808 50.2469 109.862C50.1829 111.098 50.5638 112.316 51.3209 113.297C52.078 114.277 53.1613 114.955 54.3754 115.209C54.6392 115.264 54.5168 115.664 54.2545 115.609Z" fill="white"/>
<path d="M56.3184 126.897C58.6191 125.444 60.2864 123.178 60.9877 120.553C61.057 120.293 61.458 120.414 61.3888 120.674C60.6539 123.404 58.914 125.758 56.5165 127.265C56.2879 127.409 56.091 127.04 56.3184 126.897Z" fill="white"/>
<path d="M58.0481 104.037C58.5294 104.25 59.0561 104.34 59.581 104.3C60.1059 104.26 60.6126 104.09 61.0555 103.806C61.2822 103.66 61.4788 104.029 61.2536 104.174C60.7628 104.486 60.203 104.673 59.6231 104.718C59.0433 104.764 58.461 104.668 57.9272 104.437C57.875 104.42 57.8315 104.383 57.8055 104.335C57.7795 104.286 57.7729 104.23 57.7871 104.177C57.8034 104.124 57.8399 104.079 57.8888 104.053C57.9377 104.027 57.9949 104.021 58.0481 104.037H58.0481Z" fill="white"/>
<path d="M90.7154 112.801C90.5764 112.897 90.4375 112.992 90.2985 113.091C88.4372 114.383 86.6841 115.824 85.0566 117.399C84.9289 117.519 84.8012 117.642 84.6771 117.765C80.7967 121.602 77.6638 126.125 75.4377 131.103C74.5537 133.085 73.8221 135.131 73.2492 137.223C72.4582 140.113 71.8309 143.309 70.178 145.699C70.0084 145.95 69.8233 146.191 69.6239 146.419L54.1331 146.822C54.0974 146.806 54.0617 146.792 54.0258 146.776L53.4081 146.82C53.4301 146.71 53.4553 146.597 53.4773 146.487C53.4897 146.423 53.5057 146.359 53.5182 146.295C53.5276 146.252 53.5372 146.21 53.5433 146.171C53.5463 146.157 53.5496 146.142 53.5528 146.132C53.5588 146.093 53.5686 146.057 53.5748 146.022C53.7138 145.386 53.8575 144.751 54.0059 144.115C54.0058 144.112 54.0058 144.112 54.0092 144.108C55.1525 139.268 56.7108 134.481 58.9477 130.081C59.015 129.949 59.0821 129.813 59.1565 129.681C60.1759 127.703 61.3554 125.812 62.6835 124.027C63.4138 123.051 64.1932 122.114 65.0186 121.217C67.1557 118.904 69.6441 116.941 72.3925 115.399C77.872 112.327 84.275 111.039 90.2594 112.672C90.4124 112.714 90.5622 112.756 90.7154 112.801Z" fill="#F0F0F0"/>
<path d="M90.6857 112.999C83.0921 114.708 75.9964 118.849 70.8724 124.712C69.7647 125.979 68.7514 127.361 68.0891 128.917C67.4552 130.438 67.2411 132.101 67.4689 133.733C67.6508 135.258 68.0138 136.798 67.8208 138.341C67.6174 139.968 66.688 141.318 65.3608 142.254C63.7369 143.4 61.7975 143.895 59.884 144.313C57.7594 144.777 55.5453 145.226 53.798 146.603C53.5863 146.77 53.3392 146.432 53.5506 146.266C56.5906 143.869 60.7582 144.247 64.1073 142.524C65.67 141.72 66.9995 140.441 67.3454 138.664C67.6478 137.11 67.2748 135.522 67.0773 133.979C66.87 132.358 66.9416 130.793 67.5079 129.247C68.0873 127.666 69.0485 126.241 70.119 124.951C72.5683 122.043 75.4605 119.537 78.6897 117.526C82.3624 115.21 86.405 113.538 90.6427 112.583C90.905 112.524 90.9463 112.94 90.6857 112.999H90.6857Z" fill="white"/>
<path d="M72.4372 122.718C71.5663 121.712 71.082 120.431 71.0709 119.101C71.0597 117.772 71.5224 116.482 72.3763 115.462C72.5498 115.256 72.8785 115.516 72.7048 115.722C71.9079 116.67 71.477 117.872 71.4899 119.11C71.5028 120.347 71.9587 121.54 72.7752 122.471C72.9524 122.674 72.6134 122.92 72.4372 122.718Z" fill="white"/>
<path d="M67.2746 132.971C69.9885 133.193 72.6864 132.386 74.8305 130.711C75.0428 130.545 75.29 130.882 75.078 131.048C72.8435 132.787 70.0342 133.621 67.2106 133.384C66.9414 133.362 67.007 132.949 67.2746 132.971H67.2746Z" fill="white"/>
<path d="M82.4481 115.758C82.7038 116.217 83.0698 116.606 83.5132 116.889C83.9567 117.172 84.4636 117.341 84.9886 117.38C85.2579 117.4 85.1921 117.813 84.9245 117.793C84.3447 117.747 83.7851 117.56 83.2944 117.248C82.8038 116.936 82.3972 116.51 82.1101 116.005C82.079 115.959 82.0664 115.904 82.0748 115.85C82.0832 115.795 82.112 115.746 82.1554 115.713C82.2003 115.68 82.2562 115.667 82.311 115.675C82.3659 115.684 82.4151 115.713 82.4481 115.758Z" fill="white"/>
<path d="M181.633 34.2821C181.401 33.6006 178.501 31.284 180.278 30.8946L181.736 32.8339L188.437 26.1472L189.11 26.8197L181.633 34.2821Z" fill="#FFCD00"/>
<path d="M181.633 57.0198C181.401 56.3383 178.501 54.0217 180.278 53.6323L181.736 55.5716L188.437 48.8849L189.11 49.5574L181.633 57.0198Z" fill="#FFCD00"/>
<path d="M181.633 80.0822C181.401 79.4007 178.501 77.0841 180.278 76.6947L181.736 78.634L188.437 71.9473L189.11 72.6199L181.633 80.0822Z" fill="#FFCD00"/>
<path d="M175.462 61.4368C176.604 61.4368 177.53 60.5129 177.53 59.3734C177.53 58.2338 176.604 57.3099 175.462 57.3099C174.32 57.3099 173.394 58.2338 173.394 59.3734C173.394 60.5129 174.32 61.4368 175.462 61.4368Z" fill="#3F3D56"/>
<path d="M175.462 38.9455C176.604 38.9455 177.53 38.0217 177.53 36.8821C177.53 35.7425 176.604 34.8187 175.462 34.8187C174.32 34.8187 173.394 35.7425 173.394 36.8821C173.394 38.0217 174.32 38.9455 175.462 38.9455Z" fill="#3F3D56"/>
<path d="M228.5 32.1362H195.209V32.5489H228.5V32.1362Z" fill="#3F3D56"/>
<path d="M176.496 85.4125C177.638 85.4125 178.564 84.4887 178.564 83.3491C178.564 82.2095 177.638 81.2856 176.496 81.2856C175.354 81.2856 174.428 82.2095 174.428 83.3491C174.428 84.4887 175.354 85.4125 176.496 85.4125Z" fill="#3F3D56"/>
<path d="M228.5 54.8738H195.209V55.2865H228.5V54.8738Z" fill="#3F3D56"/>
<path d="M228.5 77.9363H195.209V78.349H228.5V77.9363Z" fill="#3F3D56"/>
<path d="M186.855 83.1567H176.516V72.6332H183.547V73.0459H176.93V82.744H186.441V77.9981H186.855V83.1567Z" fill="#3F3D56"/>
<path d="M186.855 60.0464H176.516V49.5229H183.547V49.9356H176.93V59.6337H186.441V54.8878H186.855V60.0464Z" fill="#3F3D56"/>
<path d="M186.855 36.5234H176.516V26H183.547V26.4127H176.93V36.1107H186.441V31.3649H186.855V36.5234Z" fill="#3F3D56"/>
<path d="M119.352 63.5071C119.352 63.5071 116.589 75.1491 119.966 75.1491C123.343 75.1491 131.326 61.9752 131.326 61.9752L128.562 58.6052L123.603 65.4763L123.343 61.9752L119.352 63.5071Z" fill="#A0616A"/>
<path d="M130.589 62.4813C132.074 62.4813 133.277 61.2804 133.277 59.7989C133.277 58.3174 132.074 57.1165 130.589 57.1165C129.105 57.1165 127.901 58.3174 127.901 59.7989C127.901 61.2804 129.105 62.4813 130.589 62.4813Z" fill="#A0616A"/>
<path d="M117.009 142.799L120.587 142.799L122.29 129.027L117.008 129.027L117.009 142.799Z" fill="#A0616A"/>
<path d="M116.883 146.524L127.886 146.524V146.385C127.886 145.251 127.435 144.164 126.632 143.363C125.829 142.562 124.739 142.111 123.604 142.111H123.603L121.594 140.59L117.844 142.111L116.883 142.112L116.883 146.524Z" fill="#2F2E41"/>
<path d="M78.5207 138.345L81.7222 139.939L89.4085 128.374L84.6832 126.021L78.5207 138.345Z" fill="#A0616A"/>
<path d="M76.741 141.621L86.5863 146.524L86.6484 146.4C87.1556 145.386 87.2383 144.212 86.8783 143.137C86.5183 142.062 85.7452 141.174 84.7289 140.668L84.7287 140.667L83.6113 138.41L79.575 138.101L78.7156 137.673L76.741 141.621Z" fill="#2F2E41"/>
<path d="M159.331 146.538H41.5V147H159.331V146.538Z" fill="#CCCCCC"/>
<path d="M93.8759 84.6275C93.8759 84.6275 92.446 101.784 92.139 105.461C91.9285 107.766 91.4123 110.032 90.6039 112.201C90.6039 112.201 89.9899 113.427 89.9899 114.652L83.0309 127.273C83.0309 127.273 80.9044 128.833 81.2114 130.058C81.5184 131.283 79.9293 132.019 79.9293 132.019L87.2577 133.428C87.2577 133.428 86.9507 132.509 87.8717 132.203C88.7928 131.896 89.526 129.239 89.526 129.239L99.8143 112.507L107.183 97.189C107.183 97.189 111.481 110.976 112.402 112.507C112.402 112.507 115.779 129.664 116.393 131.196C117.007 132.728 117.314 132.728 117.007 133.341C116.7 133.953 116.7 134.566 117.007 134.872C117.314 135.179 123.147 134.872 123.147 134.872L121.612 113.12L118.849 87.0787L104.727 82.7896L93.8759 84.6275Z" fill="#2F2E41"/>
<path d="M107.703 43.6694C111.264 43.6694 114.15 40.7889 114.15 37.2356C114.15 33.6824 111.264 30.8019 107.703 30.8019C104.142 30.8019 101.255 33.6824 101.255 37.2356C101.255 40.7889 104.142 43.6694 107.703 43.6694Z" fill="#A0616A"/>
<path d="M119.463 53.0717L111.788 48.4313C111.788 48.4313 111.575 45.5498 109.389 45.4142C108.291 45.3461 106.643 45.2421 104.171 45.083C103.648 45.0494 103.296 47.9021 102.697 47.8634L94.5951 50.008L95.8232 70.8411C95.8232 70.8411 93.9811 79.1131 94.5951 80.645C95.2091 82.1768 93.06 82.7895 93.6741 83.0959C94.2881 83.4023 93.6741 85.5469 93.6741 85.5469C93.6741 85.5469 105.648 91.6743 118.849 87.0787L117.621 83.0959C117.788 82.5753 117.82 82.0207 117.712 81.4846C117.605 80.9485 117.362 80.4486 117.007 80.0322C117.007 80.0322 118.235 78.194 116.7 76.6621C116.7 76.6621 117.314 73.9048 115.779 72.6793L115.472 68.3901L116.393 66.2456L119.463 53.0717Z" fill="#E6E6E6"/>
<path d="M102.108 40.9111L101.928 40.4934C101.905 40.4394 99.6246 35.0606 101.646 31.7428C102.581 30.2068 104.282 29.3396 106.702 29.1655C110.487 28.8924 113.078 29.7885 114.404 31.827C114.627 32.1725 114.752 32.5714 114.766 32.9818C114.781 33.3921 114.684 33.7988 114.486 34.159C114.289 34.5193 113.998 34.8197 113.644 35.0288C113.29 35.238 112.885 35.348 112.474 35.3474H112.423L111.728 34.4462L111.687 34.5338C111.435 35.0775 110.857 35.3751 110.18 35.3099C110.064 35.3017 109.962 35.4009 109.88 35.6133C109.853 35.7062 109.801 35.79 109.729 35.8558C109.658 35.9217 109.57 35.9672 109.476 35.9876C108.975 36.0848 108.262 35.4557 107.942 35.1422C107.93 35.2143 107.902 35.283 107.861 35.3436C107.82 35.4041 107.766 35.4552 107.703 35.4932C107.367 35.687 106.843 35.4339 106.693 35.3533C105.495 35.6072 104.72 35.5392 104.388 35.1516C104.163 36.7412 103.68 39.6024 103.1 39.761C103.04 39.7749 102.976 39.769 102.919 39.7441C102.862 39.7193 102.815 39.6769 102.784 39.6231C102.645 39.4423 102.52 39.3522 102.442 39.3775C102.253 39.4374 102.142 40.0568 102.126 40.4566L102.108 40.9111Z" fill="#2F2E41"/>
<path d="M116.086 53.378L119.149 52.8815C121.355 54.9968 122.858 57.7365 123.454 60.7309C124.375 65.6328 124.682 66.5519 124.682 66.5519L117.314 68.3901L113.323 60.7309L116.086 53.378Z" fill="#E6E6E6"/>
<path d="M102.496 59.7539L100.604 83.6966L148.903 87.4986L150.796 63.556L102.496 59.7539Z" fill="white"/>
<path d="M107.656 61.6089C106.474 60.7666 104.974 60.7057 104.4 60.7178C104.575 61.2626 105.119 62.6598 106.301 63.5025C107.486 64.3469 108.985 64.406 109.557 64.3942C109.382 63.8496 108.839 62.4518 107.656 61.6089Z" fill="#FFCD00"/>
<path d="M112.319 76.8441L104.564 76.2336C104.335 76.2156 104.104 76.2428 103.886 76.3136C103.667 76.3844 103.464 76.4976 103.29 76.6465C103.115 76.7955 102.971 76.9773 102.867 77.1817C102.762 77.386 102.699 77.6089 102.681 77.8376C102.663 78.0663 102.69 78.2963 102.761 78.5144C102.832 78.7326 102.946 78.9347 103.095 79.1091C103.244 79.2836 103.426 79.427 103.631 79.5312C103.836 79.6353 104.059 79.6983 104.288 79.7163L112.044 80.3268C112.507 80.3632 112.965 80.2147 113.318 79.9139C113.671 79.6131 113.89 79.1847 113.927 78.7228C113.963 78.261 113.814 77.8036 113.513 77.4513C113.211 77.099 112.782 76.8806 112.319 76.8441Z" fill="#FFCD00"/>
<path d="M148.892 61.2287L105.409 57.8055C104.903 57.7657 104.395 57.8258 103.912 57.9822C103.43 58.1386 102.983 58.3884 102.597 58.7172C102.211 59.0459 101.894 59.4473 101.664 59.8984C101.433 60.3495 101.294 60.8414 101.254 61.3461L99.5822 82.486C99.5018 83.5056 99.8305 84.5153 100.496 85.2931C101.161 86.0709 102.109 86.5531 103.131 86.6338L146.614 90.057C147.119 90.0967 147.628 90.0367 148.111 89.8803C148.593 89.7238 149.04 89.4741 149.426 89.1453C149.812 88.8165 150.129 88.4151 150.359 87.9641C150.589 87.513 150.728 87.021 150.768 86.5163L152.357 66.4237L152.389 66.0132L152.44 65.3745C152.48 64.8698 152.42 64.3622 152.263 63.8807C152.106 63.3992 151.856 62.9532 151.526 62.5683C151.197 62.1833 150.795 61.8668 150.343 61.637C149.891 61.4072 149.398 61.2684 148.892 61.2287ZM147.608 79.6216L147.332 83.1043C147.282 83.7194 146.99 84.2896 146.519 84.6902C146.049 85.0909 145.438 85.2893 144.822 85.2422L139.004 84.7848C138.388 84.7345 137.817 84.4428 137.415 83.9733C137.014 83.5038 136.815 82.8948 136.862 82.2795L137.138 78.7967C137.188 78.1817 137.481 77.6116 137.951 77.211C138.421 76.8104 139.032 76.6119 139.648 76.6588L145.463 77.1167C146.08 77.1672 146.651 77.4589 147.053 77.9281C147.455 78.3974 147.654 79.0061 147.608 79.6216ZM102.296 77.8055C102.341 77.2419 102.609 76.7193 103.04 76.3521C103.47 75.985 104.03 75.8034 104.594 75.8471L112.35 76.458C112.63 76.4796 112.903 76.5561 113.154 76.6831C113.404 76.81 113.627 76.985 113.81 77.198C113.992 77.4111 114.131 77.6579 114.218 77.9245C114.305 78.1911 114.339 78.4722 114.317 78.7517C114.295 79.0313 114.218 79.3038 114.091 79.5537C113.964 79.8036 113.788 80.026 113.574 80.2081C113.361 80.3903 113.113 80.5287 112.846 80.6153C112.579 80.702 112.297 80.7353 112.017 80.7132L112.013 80.7143L104.258 80.1034C103.978 80.0813 103.705 80.0043 103.454 79.8768C103.204 79.7493 102.982 79.5738 102.799 79.3604C102.617 79.1469 102.479 78.8998 102.393 78.633C102.306 78.3661 102.274 78.085 102.296 77.8055ZM103.957 60.5797L103.904 60.3633L104.127 60.3428C104.214 60.3335 106.277 60.1487 107.883 61.2934C109.489 62.4381 109.981 64.4464 110.002 64.5305L110.053 64.7474L109.831 64.7699C109.515 64.7933 109.198 64.7912 108.882 64.7636C107.878 64.7049 106.908 64.3781 106.074 63.8173C104.468 62.6726 103.976 60.6642 103.957 60.5797Z" fill="#FFCD00"/>
<path d="M141.084 81.9313L138.563 81.7329C138.384 81.7191 138.206 81.777 138.069 81.894C137.932 82.0109 137.847 82.1774 137.832 82.3568C137.818 82.5362 137.876 82.7138 137.993 82.8508C138.11 82.9877 138.277 83.0728 138.456 83.0873L140.977 83.2857C141.157 83.2995 141.335 83.2416 141.472 83.1246C141.609 83.0077 141.694 82.8412 141.708 82.6618C141.722 82.4824 141.664 82.3047 141.547 82.1678C141.43 82.0308 141.264 81.9458 141.084 81.9313Z" fill="#FFCD00"/>
<path d="M145.737 82.2976L143.217 82.0992C143.037 82.0855 142.859 82.1435 142.722 82.2604C142.585 82.3774 142.5 82.5438 142.486 82.7231C142.472 82.9024 142.53 83.08 142.647 83.217C142.763 83.3539 142.93 83.439 143.11 83.4536L145.63 83.652C145.81 83.6657 145.988 83.6077 146.125 83.4907C146.262 83.3738 146.346 83.2074 146.361 83.0281C146.375 82.8488 146.317 82.6712 146.2 82.5342C146.083 82.3973 145.917 82.3122 145.737 82.2976Z" fill="#FFCD00"/>
<path d="M141.222 80.19L138.701 79.9916C138.521 79.9779 138.343 80.0359 138.206 80.1528C138.07 80.2698 137.985 80.4362 137.97 80.6155C137.956 80.7948 138.014 80.9724 138.131 81.1094C138.248 81.2463 138.414 81.3314 138.594 81.346L141.114 81.5444C141.294 81.5582 141.472 81.5003 141.609 81.3833C141.746 81.2664 141.831 81.0999 141.845 80.9205C141.86 80.7411 141.802 80.5634 141.685 80.4265C141.568 80.2895 141.401 80.2045 141.222 80.19Z" fill="#FFCD00"/>
<path d="M145.875 80.5563L143.354 80.3579C143.175 80.3441 142.997 80.402 142.86 80.519C142.722 80.6359 142.638 80.8024 142.623 80.9818C142.609 81.1612 142.667 81.3388 142.784 81.4758C142.901 81.6127 143.068 81.6978 143.247 81.7123L145.768 81.9107C145.948 81.9245 146.126 81.8666 146.263 81.7496C146.4 81.6327 146.485 81.4662 146.499 81.2868C146.513 81.1074 146.455 80.9297 146.338 80.7928C146.221 80.6558 146.055 80.5708 145.875 80.5563Z" fill="#FFCD00"/>
<path d="M141.359 78.4487L138.839 78.2502C138.659 78.2364 138.481 78.2943 138.344 78.4113C138.207 78.5283 138.122 78.6947 138.108 78.8741C138.093 79.0535 138.151 79.2312 138.268 79.3681C138.385 79.5051 138.552 79.5902 138.732 79.6046L141.252 79.803C141.432 79.8167 141.61 79.7587 141.747 79.6418C141.884 79.5248 141.968 79.3584 141.983 79.1791C141.997 78.9998 141.939 78.8222 141.822 78.6853C141.705 78.5483 141.539 78.4632 141.359 78.4487Z" fill="#FFCD00"/>
<path d="M146.012 78.815L143.492 78.6165C143.312 78.6028 143.134 78.6608 142.997 78.7778C142.86 78.8947 142.776 79.0611 142.761 79.2404C142.747 79.4198 142.805 79.5974 142.922 79.7343C143.039 79.8712 143.205 79.9563 143.385 79.9709L145.905 80.1693C146.085 80.183 146.263 80.125 146.4 80.0081C146.537 79.8911 146.622 79.7247 146.636 79.5454C146.65 79.3661 146.592 79.1885 146.476 79.0516C146.359 78.9146 146.192 78.8295 146.012 78.815Z" fill="#FFCD00"/>
<path d="M100.608 68.0164L100.576 68.428L151.619 72.4292L151.651 72.0177L100.608 68.0164Z" fill="white"/>
<path d="M152.389 66.0132L152.357 66.4238L150.581 66.2847L131.654 64.8011L131.688 64.3901L150.613 65.8741L152.389 66.0132Z" fill="#3F3D56"/>
<path d="M89.9899 61.65C89.9899 61.65 87.2267 73.2921 90.6039 73.2921C93.9811 73.2921 101.963 60.1182 101.963 60.1182L99.2003 56.7481L94.2408 63.6193L93.981 60.1182L89.9899 61.65Z" fill="#A0616A"/>
<path d="M101.227 60.6243C102.712 60.6243 103.915 59.4233 103.915 57.9418C103.915 56.4604 102.712 55.2594 101.227 55.2594C99.7426 55.2594 98.5391 56.4604 98.5391 57.9418C98.5391 59.4233 99.7426 60.6243 101.227 60.6243Z" fill="#A0616A"/>
<path d="M96.8316 51.8462L94.9895 50.0079C94.9895 50.0079 91.3053 52.1525 90.9983 54.2971C90.6913 56.4417 89.1562 63.1818 89.1562 63.1818L94.836 63.6414L96.6781 60.8841L96.8316 51.8462Z" fill="#E6E6E6"/>
</g>
<defs>
<clipPath id="clip0_33_50325">
<rect width="187" height="121" fill="white" transform="translate(41.5 26)"/>
</clipPath>
</defs>
</svg>
