<svg width="180" height="101" viewBox="0 0 180 101" fill="none" xmlns="http://www.w3.org/2000/svg">
<g clip-path="url(#clip0_257_2789)">
<path d="M15.2232 83.1486C16.7585 85.5817 18.629 87.7864 20.7793 89.6977C20.8285 89.7425 20.8789 89.7854 20.9294 89.8294L25.5206 87.1014C25.4867 87.0552 25.4492 87.0035 25.409 86.9468C23.0118 83.6094 12.1852 61.4061 12.1191 56.4893C12.1107 56.8962 8.2228 72.1777 15.2232 83.1486Z" fill="#E6E6E6"/>
<path d="M19.8935 90.2244C19.9644 90.2563 20.0368 90.2873 20.1097 90.3169L23.5542 88.2702C23.5004 88.2392 23.4376 88.2025 23.3657 88.1613C22.1866 87.4725 18.678 85.4028 15.2235 83.1488C11.5118 80.7261 7.86029 78.0921 7.22665 76.73C7.35851 77.0435 11.4453 86.569 19.8935 90.2244Z" fill="#E6E6E6"/>
<path d="M165.403 92.0996C165.325 94.9756 164.844 97.8264 163.971 100.568C163.952 100.632 163.931 100.694 163.91 100.758H158.569C158.575 100.701 158.58 100.637 158.586 100.568C158.942 96.4743 156.908 71.856 154.453 67.5952C154.668 67.9408 165.817 79.0922 165.403 92.0996Z" fill="#E6E6E6"/>
<path d="M165.002 100.568C164.957 100.632 164.911 100.695 164.863 100.758H160.856C160.887 100.704 160.922 100.64 160.963 100.568C161.625 99.3736 163.584 95.8021 165.402 92.0997C167.356 88.1209 169.149 83.9912 168.998 82.4966C169.045 82.8335 170.397 93.11 165.002 100.568Z" fill="#E6E6E6"/>
<path d="M86.6599 100.609H24.8993C23.4354 100.608 22.032 100.026 20.9969 98.9905C19.9618 97.9554 19.3796 96.552 19.3779 95.0881V5.52135C19.3796 4.05751 19.9618 2.65409 20.9969 1.61899C22.032 0.583895 23.4354 0.00165243 24.8993 0H86.6599C88.1237 0.00165243 89.5271 0.583894 90.5622 1.61899C91.5973 2.65408 92.1796 4.0575 92.1812 5.52135V95.0881C92.1796 96.552 91.5973 97.9554 90.5622 98.9905C89.5271 100.026 88.1237 100.608 86.6599 100.609Z" fill="#CACACA"/>
<path d="M86.7686 97.0869H24.7906C24.3393 97.0864 23.9067 96.9069 23.5876 96.5879C23.2686 96.2688 23.0891 95.8362 23.0886 95.3849V5.22496C23.0891 4.77372 23.2686 4.34111 23.5876 4.02203C23.9067 3.70295 24.3393 3.52346 24.7906 3.52295H86.7686C87.2198 3.52346 87.6525 3.70295 87.9715 4.02203C88.2906 4.34111 88.4701 4.77372 88.4706 5.22496V95.3849C88.4701 95.8362 88.2906 96.2688 87.9715 96.5879C87.6525 96.9069 87.2198 97.0864 86.7686 97.0869Z" fill="white"/>
<path d="M55.5447 2.16059C55.8041 2.16059 56.0144 1.9503 56.0144 1.69089C56.0144 1.43148 55.8041 1.22119 55.5447 1.22119C55.2853 1.22119 55.075 1.43148 55.075 1.69089C55.075 1.9503 55.2853 2.16059 55.5447 2.16059Z" fill="white"/>
<path d="M179.77 100.935H0.230286C0.16921 100.935 0.110636 100.911 0.067449 100.868C0.0242618 100.825 0 100.766 0 100.705C0 100.644 0.0242618 100.585 0.067449 100.542C0.110636 100.499 0.16921 100.475 0.230286 100.475H179.77C179.831 100.475 179.889 100.499 179.933 100.542C179.976 100.585 180 100.644 180 100.705C180 100.766 179.976 100.825 179.933 100.868C179.889 100.911 179.831 100.935 179.77 100.935Z" fill="#CACACA"/>
<path d="M55.7791 74.7222C59.0904 74.7222 61.7747 72.0379 61.7747 68.7266C61.7747 65.4153 59.0904 62.731 55.7791 62.731C52.4678 62.731 49.7834 65.4153 49.7834 68.7266C49.7834 72.0379 52.4678 74.7222 55.7791 74.7222Z" fill="#E4E4E4"/>
<path d="M59.5328 57.2192H52.0254L47.4931 35.0487C47.3767 33.891 47.5041 32.7218 47.8672 31.6164C48.2303 30.511 48.821 29.4939 49.6012 28.6307C50.3814 27.7676 51.3339 27.0775 52.3971 26.6049C53.4604 26.1324 54.6109 25.8879 55.7744 25.8872C56.9379 25.8865 58.0887 26.1297 59.1525 26.6009C60.2163 27.0722 61.1696 27.7612 61.9508 28.6234C62.7321 29.4856 63.324 30.502 63.6884 31.607C64.0528 32.712 64.1816 33.8811 64.0665 35.0389L59.5328 57.2192Z" fill="#E4E4E4"/>
<path d="M85.277 27.4186H112.717C114.041 27.4186 115.325 27.8691 116.359 28.696C117.394 29.523 118.116 30.6771 118.407 31.9688L132.271 93.4663C132.423 94.1371 132.425 94.8328 132.279 95.5047C132.133 96.1767 131.842 96.8085 131.426 97.3559C131.01 97.9034 130.479 98.3531 129.871 98.6737C129.262 98.9943 128.591 99.178 127.905 99.2118L99.6965 100.602C98.186 100.676 96.7001 100.198 95.516 99.2577C94.3318 98.3171 93.5304 96.9777 93.2612 95.4896L85.3963 52.0102L83.9086 43.7858L81.7133 31.6491C81.6192 31.1293 81.641 30.5951 81.7771 30.0847C81.9132 29.5742 82.1602 29.1001 82.5006 28.6961C82.8409 28.292 83.2662 27.9681 83.7461 27.7473C84.226 27.5264 84.7488 27.4142 85.277 27.4186Z" fill="#3F3D56"/>
<path d="M109.104 28.7446H112.307C113.227 28.7446 114.119 29.0592 114.836 29.6362C115.552 30.2131 116.05 31.0178 116.246 31.9165L129.554 92.9122C129.63 93.2634 129.63 93.627 129.554 93.9781C129.477 94.3293 129.325 94.6597 129.109 94.9469C128.893 95.2341 128.617 95.4712 128.301 95.6421C127.985 95.813 127.635 95.9136 127.277 95.9371L99.16 97.7799C98.3668 97.8319 97.5822 97.59 96.9559 97.1004C96.3297 96.6107 95.9057 95.9077 95.7647 95.1253L84.4088 32.0803C84.3353 31.6722 84.3523 31.253 84.4585 30.8522C84.5647 30.4514 84.7575 30.0789 85.0235 29.7607C85.2894 29.4426 85.6219 29.1868 85.9975 29.0112C86.3731 28.8356 86.7827 28.7446 87.1973 28.7446H90.2359C90.53 28.7446 90.8159 28.8416 91.0493 29.0205C91.2827 29.1994 91.4506 29.4502 91.5271 29.7342C91.5946 29.9849 91.7429 30.2064 91.9489 30.3643C92.155 30.5222 92.4074 30.6078 92.667 30.6078H107.092C107.601 30.6078 108.09 30.4159 108.463 30.0705C108.836 29.725 109.065 29.2515 109.104 28.7446Z" fill="white"/>
<path d="M123.295 48.2967C123.385 48.3548 123.47 48.42 123.55 48.4915L132.844 46.1221L133.478 43.8799L136.987 44.3945L136.25 48.4731C136.191 48.8026 136.026 49.1039 135.781 49.3317C135.535 49.5596 135.223 49.7017 134.89 49.7368L124.037 50.8796C123.861 51.2521 123.575 51.5618 123.217 51.7676C122.86 51.9735 122.449 52.0657 122.038 52.0321C121.627 51.9984 121.236 51.8405 120.917 51.5792C120.598 51.3179 120.366 50.9658 120.252 50.5695C120.138 50.1733 120.148 49.7518 120.279 49.3611C120.411 48.9703 120.658 48.6289 120.989 48.3821C121.319 48.1354 121.716 47.9951 122.128 47.9798C122.54 47.9646 122.947 48.0751 123.295 48.2967Z" fill="#FFB6B6"/>
<path d="M116.662 56.7061C119.973 56.7061 122.658 54.0218 122.658 50.7105C122.658 47.3992 119.973 44.7148 116.662 44.7148C113.351 44.7148 110.666 47.3992 110.666 50.7105C110.666 54.0218 113.351 56.7061 116.662 56.7061Z" fill="#FFDC55"/>
<path d="M120.416 39.2025H112.908L108.376 17.0321C108.26 15.8744 108.387 14.7052 108.75 13.5998C109.113 12.4943 109.704 11.4773 110.484 10.6141C111.264 9.75095 112.217 9.06086 113.28 8.58832C114.343 8.11579 115.494 7.8713 116.657 7.87061C117.821 7.86992 118.972 8.11305 120.036 8.58432C121.099 9.0556 122.053 9.74456 122.834 10.6068C123.615 11.469 124.207 12.4854 124.571 13.5904C124.936 14.6954 125.065 15.8645 124.95 17.0223L120.416 39.2025Z" fill="#FFDC55"/>
<path d="M137.614 46.4299L135.22 48.4955L131.87 51.3831L130.391 43.8131L130.236 43.026L130.114 42.4013L133.508 36.4888L136.338 36.6512L136.531 36.6628L136.535 36.7054L136.58 37.1019L137.16 42.32L137.173 42.4457L137.614 46.4299Z" fill="#3F3D56"/>
<path d="M121.964 98.2003L119.593 98.2001L118.465 89.0542L121.965 89.0544L121.964 98.2003Z" fill="#FFB6B6"/>
<path d="M122.569 100.499L114.923 100.498V100.402C114.923 99.6124 115.237 98.8555 115.795 98.2974C116.353 97.7394 117.11 97.4258 117.899 97.4258H117.899L122.569 97.426L122.569 100.499Z" fill="#2F2E41"/>
<path d="M146.72 98.3936L144.349 98.3934L143.221 89.2476L146.721 89.2478L146.72 98.3936Z" fill="#FFB6B6"/>
<path d="M147.325 100.692L139.68 100.692V100.595C139.68 99.8057 139.993 99.0489 140.551 98.4908C141.109 97.9327 141.866 97.6192 142.655 97.6191H142.656L147.325 97.6193L147.325 100.692Z" fill="#2F2E41"/>
<path d="M148.615 94.3658L142.233 95.3328L132.948 63.9079L123.086 95.5262L115.93 94.5592L125.213 57.8117V54.9105L126.47 50.5589L126.339 49.381L125.424 41.1438L125.027 37.5715L125.002 37.3408C124.98 37.1471 125.031 36.9524 125.146 36.7944C125.26 36.6365 125.429 36.5268 125.619 36.4865L128.598 35.8599H133.466L136.338 36.6509L136.535 36.7051L136.624 36.7302L136.58 37.1015L135.907 42.7452L135.87 43.0546L135.22 48.4952L135.077 49.6885C140.686 53.7501 140.879 57.8117 140.879 57.8117L148.615 94.3658Z" fill="#2F2E41"/>
<path d="M130.443 33.4132C133.067 33.4132 135.194 31.2864 135.194 28.6629C135.194 26.0394 133.067 23.9126 130.443 23.9126C127.82 23.9126 125.693 26.0394 125.693 28.6629C125.693 31.2864 127.82 33.4132 130.443 33.4132Z" fill="#FFB6B6"/>
<path d="M135.433 48.5973L126.036 49.8262L126.211 51.1686L135.608 49.9397L135.433 48.5973Z" fill="#3F3D56"/>
<path d="M113.431 50.2308C113.521 50.2889 113.606 50.3541 113.686 50.4256L122.98 48.0562L123.614 45.814L127.123 46.3286L126.387 50.4071C126.327 50.7366 126.162 51.0379 125.917 51.2658C125.672 51.4937 125.359 51.6358 125.026 51.6709L114.174 52.8137C113.997 53.1861 113.711 53.4959 113.354 53.7017C112.996 53.9076 112.585 53.9998 112.174 53.9662C111.763 53.9325 111.372 53.7745 111.053 53.5133C110.734 53.252 110.502 52.8999 110.389 52.5036C110.275 52.1074 110.284 51.6859 110.416 51.2951C110.547 50.9044 110.794 50.5629 111.125 50.3162C111.455 50.0695 111.853 49.9291 112.265 49.9139C112.677 49.8986 113.084 50.0092 113.431 50.2308Z" fill="#FFB6B6"/>
<path d="M127.727 37.6975L126.083 36.4403C125.639 36.2717 125.03 36.7507 124.923 37.2139L122.602 46.6909L127.437 50.1723L128.114 49.1085L127.727 37.6975Z" fill="#3F3D56"/>
<g opacity="0.2">
<path d="M137.16 42.3197C136.75 42.4826 136.331 42.6246 135.907 42.7452C135.771 42.7858 135.632 42.8245 135.495 42.8612C134.59 43.1124 133.659 43.2628 132.721 43.3099C132.317 43.327 131.913 43.316 131.51 43.277C131.079 43.234 130.652 43.1498 130.236 43.0256C130.222 43.0217 130.207 43.0179 130.193 43.014C129.329 42.7685 128.536 42.318 127.882 41.7008C127.736 41.5586 127.6 41.4067 127.474 41.2463C127.113 40.8039 126.848 40.2912 126.696 39.7407C126.544 39.1902 126.509 38.6142 126.592 38.0492C126.608 37.9468 126.63 37.8455 126.658 37.7456C126.731 37.4734 126.827 37.2081 126.946 36.9526C126.998 36.8327 127.056 36.7147 127.118 36.5987L129.304 35.8599H133.466L136.338 36.6509L136.531 36.6625L136.535 36.7051L136.624 36.7302L136.58 37.1015L137.16 42.3197Z" fill="black"/>
</g>
<path d="M126.803 24.7299C125.915 24.621 124.94 24.698 124.248 25.2651C123.555 25.8322 123.332 27.0111 123.987 27.6205C124.568 28.1599 125.475 28.0331 126.253 28.1865C126.922 28.3366 127.522 28.707 127.957 29.2384C128.391 29.7699 128.634 30.4317 128.648 31.1179C128.636 33.0856 126.748 34.5758 126.409 36.5141C126.177 37.837 126.735 39.2292 127.7 40.1637C128.664 41.0981 129.99 41.6031 131.326 41.7399C132.662 41.8767 134.013 41.6677 135.311 41.3245C136.615 40.9798 137.899 40.4908 138.993 39.7022C140.087 38.9136 140.984 37.8019 141.335 36.4998C141.686 35.1977 141.434 33.7049 140.529 32.7052C139.492 31.5604 137.768 31.1667 136.871 29.9093C135.866 28.4998 136.238 26.4925 135.425 24.9644C134.882 23.9442 133.854 23.2483 132.757 22.8817C131.661 22.5151 130.491 22.4427 129.336 22.4072C128.728 22.3886 128.103 22.3824 127.537 22.6037C126.971 22.8251 126.474 23.3296 126.445 23.9364C126.415 24.5432 126.803 24.7299 126.803 24.7299Z" fill="#2F2E41"/>
</g>
<defs>
<clipPath id="clip0_257_2789">
<rect width="180" height="100.935" fill="white"/>
</clipPath>
</defs>
</svg>
