<svg width="240" height="94" viewBox="0 0 240 94" fill="none" xmlns="http://www.w3.org/2000/svg">
<g clip-path="url(#clip0_225_22850)">
<path d="M86.9826 72.4122C76.0547 72.4122 66.1795 64.8311 63.7245 53.73C61.4517 43.4531 67.9636 33.2431 78.2405 30.9703C80.2022 30.5365 82.2302 30.4933 84.2087 30.8432C86.1871 31.1931 88.0773 31.9292 89.7712 33.0096C91.4652 34.09 92.9298 35.4935 94.0813 37.1399C95.2329 38.7863 96.0488 40.6434 96.4827 42.6051C97.1815 45.7819 96.5916 49.1061 94.8426 51.8485C93.0935 54.5909 90.328 56.5275 87.1529 57.2335C84.9592 57.7097 82.6688 57.4257 80.6578 56.4284C78.6468 55.431 77.0347 53.7794 76.0863 51.7449C76.0782 51.7276 76.0737 51.7089 76.0729 51.6899C76.0721 51.6708 76.075 51.6518 76.0816 51.6339C76.0882 51.616 76.0982 51.5996 76.1111 51.5856C76.1241 51.5715 76.1396 51.5602 76.157 51.5523C76.1743 51.5443 76.193 51.5398 76.2121 51.5391C76.2311 51.5384 76.2501 51.5415 76.268 51.5481C76.2859 51.5548 76.3022 51.5649 76.3162 51.5779C76.3301 51.5909 76.3414 51.6065 76.3492 51.6239C77.2697 53.5987 78.8344 55.2017 80.7863 56.1697C82.7382 57.1377 84.9613 57.4131 87.0904 56.9508C90.1906 56.2614 92.8908 54.3705 94.5986 51.6929C96.3064 49.0152 96.8824 45.7694 96.2001 42.6676C95.3404 38.7806 92.9719 35.3944 89.6155 33.2537C86.2592 31.1131 82.1899 30.3934 78.303 31.253C73.4378 32.3348 69.2003 35.3022 66.5203 39.5042C63.8402 43.7063 62.9364 48.7999 64.0071 53.6675C66.8093 66.3382 79.3972 74.367 92.0684 71.5648C96.2547 70.6419 100.189 68.8151 103.595 66.2123C107.001 63.6095 109.797 60.2936 111.788 56.4968C111.796 56.48 111.808 56.465 111.823 56.4528C111.838 56.4406 111.855 56.4314 111.873 56.4257C111.891 56.42 111.91 56.418 111.929 56.4197C111.948 56.4214 111.966 56.4269 111.983 56.4357C112 56.4446 112.015 56.4567 112.027 56.4713C112.039 56.486 112.049 56.5029 112.054 56.5211C112.06 56.5393 112.062 56.5584 112.06 56.5773C112.058 56.5963 112.053 56.6147 112.044 56.6315C110.034 60.4656 107.21 63.8141 103.771 66.4424C100.331 69.0708 96.3583 70.9155 92.1309 71.8475C90.4404 72.2222 88.7141 72.4116 86.9826 72.4122Z" fill="#E6E6E6"/>
<path d="M115.144 39.8289C115.109 39.8289 115.074 39.8156 115.048 39.7918C115.021 39.7679 115.005 39.7351 115.001 39.6996C114.883 38.6055 114.705 37.5188 114.467 36.4444C110.687 19.352 95.2609 7.19243 77.7868 7.54783C77.7484 7.54859 77.7113 7.53408 77.6836 7.50748C77.6559 7.48088 77.64 7.44437 77.6392 7.40599C77.6384 7.36761 77.6529 7.3305 77.6795 7.30281C77.7061 7.27513 77.7426 7.25914 77.781 7.25836C86.3579 7.09909 94.7257 9.91245 101.464 15.221C108.203 20.5295 112.897 28.0061 114.75 36.3819C114.99 37.4668 115.17 38.5641 115.289 39.6688C115.291 39.6877 115.289 39.7068 115.284 39.725C115.278 39.7432 115.269 39.7602 115.257 39.775C115.245 39.7898 115.231 39.8021 115.214 39.8112C115.197 39.8203 115.179 39.826 115.16 39.8281C115.155 39.8286 115.15 39.8289 115.144 39.8289Z" fill="#E6E6E6"/>
<path d="M35.3226 63.5665C35.2897 63.5665 35.2578 63.5552 35.2321 63.5346C35.2064 63.514 35.1886 63.4852 35.1815 63.453C33.3598 55.2442 33.8053 46.6946 36.4702 38.7195C39.135 30.7445 43.919 23.6446 50.3096 18.18C50.3241 18.1674 50.3408 18.1579 50.3589 18.1519C50.377 18.1459 50.3961 18.1435 50.4152 18.1449C50.4342 18.1463 50.4528 18.1515 50.4698 18.1601C50.4868 18.1687 50.502 18.1806 50.5144 18.1951C50.5268 18.2096 50.5363 18.2264 50.5422 18.2445C50.5481 18.2627 50.5503 18.2818 50.5488 18.3008C50.5473 18.3198 50.542 18.3384 50.5333 18.3553C50.5246 18.3723 50.5126 18.3874 50.4981 18.3997C44.1472 23.8303 39.3931 30.886 36.7448 38.8113C34.0965 46.7366 33.6538 55.2329 35.4641 63.3906C35.4688 63.4117 35.4687 63.4337 35.4637 63.4548C35.4588 63.4759 35.4492 63.4956 35.4356 63.5125C35.422 63.5294 35.4048 63.543 35.3853 63.5524C35.3657 63.5617 35.3443 63.5666 35.3226 63.5665Z" fill="#E6E6E6"/>
<path d="M75.3234 23.3024H52.7447C52.0923 23.3017 51.4669 23.0422 51.0057 22.5809C50.5444 22.1196 50.2849 21.4942 50.2842 20.8419V2.4605C50.2849 1.80816 50.5444 1.18275 51.0057 0.721474C51.4669 0.2602 52.0923 0.000734368 52.7447 0H75.3234C75.9757 0.000734368 76.6012 0.2602 77.0624 0.721474C77.5237 1.18275 77.7832 1.80816 77.7839 2.4605V20.8419C77.7832 21.4942 77.5237 22.1196 77.0624 22.5809C76.6012 23.0422 75.9757 23.3017 75.3234 23.3024ZM52.7447 0.289471C52.1691 0.290122 51.6173 0.519064 51.2103 0.926071C50.8032 1.33308 50.5743 1.88491 50.5737 2.4605V20.8419C50.5743 21.4175 50.8032 21.9693 51.2103 22.3763C51.6173 22.7833 52.1691 23.0123 52.7447 23.0129H75.3234C75.899 23.0123 76.4508 22.7833 76.8578 22.3763C77.2648 21.9693 77.4938 21.4175 77.4944 20.8419V2.4605C77.4938 1.88491 77.2648 1.33308 76.8578 0.926071C76.4508 0.519064 75.899 0.290122 75.3234 0.289471H52.7447Z" fill="#3F3D56"/>
<path d="M72.7569 5.51926H61.3618C61.2616 5.5213 61.1644 5.48523 61.0898 5.41835C61.0153 5.35148 60.9689 5.25878 60.96 5.15901C60.9572 5.10736 60.965 5.05569 60.9829 5.00715C61.0007 4.9586 61.0283 4.9142 61.0639 4.87666C61.0994 4.83912 61.1423 4.80922 61.1898 4.78879C61.2373 4.76835 61.2885 4.75781 61.3402 4.75781H72.9398C73.3219 5.0936 73.0891 5.51927 72.7568 5.51927L72.7569 5.51926Z" fill="#CCCCCC"/>
<path d="M72.7569 7.51926H61.3618C61.2616 7.5213 61.1644 7.48523 61.0898 7.41835C61.0153 7.35148 60.9689 7.25878 60.96 7.15901C60.9572 7.10736 60.965 7.05569 60.9829 7.00715C61.0007 6.9586 61.0283 6.9142 61.0639 6.87666C61.0994 6.83912 61.1423 6.80922 61.1898 6.78879C61.2373 6.76835 61.2885 6.75781 61.3402 6.75781H72.9398C73.3219 7.0936 73.0891 7.51926 72.7568 7.51926H72.7569Z" fill="#CCCCCC"/>
<path d="M58.8987 8.65583H55.4209C55.3074 8.65571 55.1985 8.61056 55.1182 8.53026C55.0379 8.44997 54.9928 8.34111 54.9927 8.22756V4.12358C54.9928 4.01003 55.0379 3.90117 55.1182 3.82088C55.1985 3.74059 55.3074 3.69543 55.4209 3.69531H58.8987C59.0122 3.69547 59.121 3.74064 59.2013 3.82092C59.2816 3.9012 59.3268 4.01005 59.3269 4.12358V8.22756C59.3268 8.34111 59.2816 8.44997 59.2014 8.53026C59.1211 8.61056 59.0122 8.65571 58.8987 8.65583Z" fill="#FFDC55"/>
<path d="M72.7241 11.6111H55.3329C55.2328 11.6131 55.1356 11.577 55.061 11.5102C54.9865 11.4433 54.9401 11.3506 54.9312 11.2508C54.9284 11.1992 54.9362 11.1475 54.9541 11.0989C54.9719 11.0504 54.9995 11.006 55.035 10.9685C55.0706 10.9309 55.1135 10.901 55.161 10.8806C55.2085 10.8601 55.2597 10.8496 55.3114 10.8496H72.9071C73.2892 11.1854 73.0563 11.6111 72.7241 11.6111V11.6111Z" fill="#CCCCCC"/>
<path d="M72.7241 13.6111H55.3329C55.2328 13.6131 55.1356 13.577 55.061 13.5102C54.9865 13.4433 54.9401 13.3506 54.9312 13.2508C54.9284 13.1992 54.9362 13.1475 54.9541 13.0989C54.9719 13.0504 54.9995 13.006 55.035 12.9685C55.0706 12.9309 55.1135 12.901 55.161 12.8806C55.2085 12.8601 55.2597 12.8496 55.3114 12.8496H72.9071C73.2892 13.1854 73.0564 13.6111 72.7241 13.6111V13.6111Z" fill="#CCCCCC"/>
<path d="M72.7241 15.6091H55.3329C55.2328 15.6111 55.1356 15.5751 55.061 15.5082C54.9865 15.4413 54.9401 15.3486 54.9312 15.2489C54.9284 15.1972 54.9362 15.1455 54.9541 15.097C54.9719 15.0484 54.9995 15.004 55.035 14.9665C55.0706 14.929 55.1135 14.8991 55.161 14.8786C55.2085 14.8582 55.2597 14.8477 55.3114 14.8477H72.9071C73.2892 15.1834 73.0563 15.6091 72.7241 15.6091V15.6091Z" fill="#CCCCCC"/>
<path d="M72.7241 17.6071H55.3329C55.2328 17.6092 55.1356 17.5731 55.061 17.5062C54.9865 17.4394 54.9401 17.3467 54.9312 17.2469C54.9284 17.1953 54.9362 17.1436 54.9541 17.095C54.9719 17.0465 54.9995 17.0021 55.035 16.9646C55.0706 16.927 55.1135 16.8971 55.161 16.8767C55.2085 16.8562 55.2597 16.8457 55.3114 16.8457H72.9071C73.2892 17.1815 73.0563 17.6072 72.7241 17.6072V17.6071Z" fill="#CCCCCC"/>
<path d="M72.7241 19.6052H55.3329C55.2328 19.6072 55.1356 19.5712 55.061 19.5043C54.9865 19.4374 54.9401 19.3447 54.9312 19.2449C54.9284 19.1933 54.9362 19.1416 54.9541 19.0931C54.9719 19.0445 54.9995 19.0001 55.035 18.9626C55.0706 18.9251 55.1135 18.8952 55.161 18.8747C55.2085 18.8543 55.2597 18.8438 55.3114 18.8438H72.9071C73.2892 19.1795 73.0563 19.6052 72.7241 19.6052V19.6052Z" fill="#CCCCCC"/>
<path d="M121.711 56.7098H105.356C104.845 56.7093 104.356 56.5061 103.994 56.1448C103.633 55.7835 103.43 55.2937 103.429 54.7828V41.468C103.43 40.9571 103.633 40.4673 103.994 40.1061C104.356 39.7448 104.845 39.5416 105.356 39.541H121.711C122.222 39.5416 122.712 39.7448 123.073 40.1061C123.435 40.4673 123.638 40.9571 123.638 41.468V54.7828C123.638 55.2937 123.435 55.7835 123.073 56.1448C122.712 56.5061 122.222 56.7093 121.711 56.7098ZM105.356 39.8305C104.922 39.831 104.506 40.0037 104.199 40.3107C103.892 40.6176 103.719 41.0339 103.719 41.468V54.7828C103.719 55.217 103.892 55.6332 104.199 55.9402C104.506 56.2472 104.922 56.4199 105.356 56.4204H121.711C122.145 56.4199 122.562 56.2472 122.869 55.9402C123.176 55.6332 123.348 55.217 123.349 54.7828V41.468C123.348 41.0339 123.176 40.6176 122.869 40.3106C122.562 40.0036 122.145 39.831 121.711 39.8305L105.356 39.8305Z" fill="#3F3D56"/>
<path d="M119.852 43.6824H111.598C111.525 43.6839 111.455 43.6578 111.401 43.6093C111.347 43.5609 111.313 43.4937 111.307 43.4215C111.305 43.3841 111.311 43.3466 111.324 43.3115C111.337 43.2763 111.356 43.2441 111.382 43.217C111.408 43.1898 111.439 43.1681 111.473 43.1533C111.508 43.1385 111.545 43.1309 111.582 43.1309H119.985C120.262 43.3741 120.093 43.6824 119.852 43.6824L119.852 43.6824Z" fill="#CCCCCC"/>
<path d="M119.852 45.1316H111.598C111.525 45.1331 111.455 45.107 111.401 45.0586C111.347 45.0101 111.313 44.943 111.307 44.8707C111.305 44.8333 111.311 44.7958 111.324 44.7607C111.337 44.7255 111.356 44.6934 111.382 44.6662C111.408 44.639 111.439 44.6173 111.473 44.6025C111.508 44.5877 111.545 44.5801 111.582 44.5801H119.985C120.262 44.8233 120.093 45.1316 119.852 45.1316L119.852 45.1316Z" fill="#CCCCCC"/>
<path d="M109.814 45.9545H107.295C107.212 45.9544 107.133 45.9217 107.075 45.8636C107.017 45.8054 106.984 45.7266 106.984 45.6443V42.6715C106.984 42.5893 107.017 42.5104 107.075 42.4523C107.133 42.3941 107.212 42.3614 107.295 42.3613H109.814C109.896 42.3614 109.975 42.3942 110.033 42.4523C110.091 42.5105 110.124 42.5893 110.124 42.6715V45.6443C110.124 45.7266 110.091 45.8054 110.033 45.8636C109.975 45.9217 109.896 45.9544 109.814 45.9545Z" fill="#FFDC55"/>
<path d="M119.828 48.0965H107.231C107.158 48.098 107.088 48.0718 107.034 48.0234C106.98 47.975 106.946 47.9078 106.94 47.8355C106.938 47.7981 106.943 47.7607 106.956 47.7255C106.969 47.6904 106.989 47.6582 107.015 47.631C107.041 47.6038 107.072 47.5822 107.106 47.5674C107.141 47.5526 107.178 47.5449 107.215 47.5449H119.961C120.238 47.7882 120.069 48.0965 119.828 48.0965V48.0965Z" fill="#CCCCCC"/>
<path d="M119.828 49.5438H107.231C107.158 49.5452 107.088 49.5191 107.034 49.4707C106.98 49.4222 106.946 49.3551 106.94 49.2828C106.938 49.2454 106.943 49.208 106.956 49.1728C106.969 49.1376 106.989 49.1055 107.015 49.0783C107.041 49.0511 107.072 49.0294 107.106 49.0146C107.141 48.9998 107.178 48.9922 107.215 48.9922H119.961C120.238 49.2354 120.069 49.5437 119.828 49.5437V49.5438Z" fill="#CCCCCC"/>
<path d="M119.828 50.991H107.231C107.158 50.9925 107.088 50.9664 107.034 50.9179C106.98 50.8695 106.946 50.8023 106.94 50.7301C106.938 50.6927 106.943 50.6552 106.956 50.6201C106.969 50.5849 106.989 50.5527 107.015 50.5255C107.041 50.4983 107.072 50.4767 107.106 50.4619C107.141 50.4471 107.178 50.4395 107.215 50.4395H119.961C120.238 50.6827 120.069 50.991 119.828 50.991V50.991Z" fill="#CCCCCC"/>
<path d="M119.828 52.4402H107.231C107.158 52.4417 107.088 52.4156 107.034 52.3671C106.98 52.3187 106.946 52.2516 106.94 52.1793C106.938 52.1419 106.943 52.1044 106.956 52.0693C106.969 52.0341 106.989 52.002 107.015 51.9748C107.041 51.9476 107.072 51.9259 107.106 51.9111C107.141 51.8963 107.178 51.8887 107.215 51.8887H119.961C120.238 52.1319 120.069 52.4402 119.828 52.4402V52.4402Z" fill="#CCCCCC"/>
<path d="M119.828 53.8875H107.231C107.158 53.889 107.088 53.8629 107.034 53.8144C106.98 53.766 106.946 53.6988 106.94 53.6265C106.938 53.5891 106.943 53.5517 106.956 53.5165C106.969 53.4814 106.989 53.4492 107.015 53.422C107.041 53.3948 107.072 53.3732 107.106 53.3584C107.141 53.3436 107.178 53.3359 107.215 53.3359H119.961C120.238 53.5792 120.069 53.8875 119.828 53.8875V53.8875Z" fill="#CCCCCC"/>
<path d="M81.5212 51.8834H71.1522C70.8142 51.883 70.4902 51.7486 70.2512 51.5097C70.0122 51.2707 69.8778 50.9467 69.8774 50.6087V42.1673C69.8778 41.8293 70.0122 41.5053 70.2512 41.2663C70.4902 41.0274 70.8142 40.893 71.1522 40.8926H81.5212C81.8592 40.893 82.1832 41.0274 82.4222 41.2663C82.6611 41.5053 82.7955 41.8293 82.7959 42.1673V50.6087C82.7955 50.9467 82.6611 51.2707 82.4222 51.5097C82.1832 51.7486 81.8592 51.883 81.5212 51.8834ZM71.1522 41.182C70.8909 41.1823 70.6405 41.2862 70.4558 41.4709C70.2711 41.6556 70.1672 41.9061 70.1669 42.1673V50.6087C70.1672 50.8699 70.2711 51.1204 70.4558 51.3051C70.6405 51.4898 70.8909 51.5937 71.1522 51.594H81.5212C81.7824 51.5937 82.0329 51.4898 82.2176 51.3051C82.4023 51.1204 82.5062 50.8699 82.5065 50.6087V42.1673C82.5062 41.9061 82.4023 41.6556 82.2176 41.4709C82.0329 41.2862 81.7824 41.1823 81.5212 41.182H71.1522Z" fill="#3F3D56"/>
<path d="M79.8825 47.2929H72.7905C72.6177 47.2929 72.4521 47.2242 72.3299 47.1021C72.2078 46.9799 72.1392 46.8143 72.1392 46.6415C72.1392 46.4688 72.2078 46.3031 72.3299 46.181C72.4521 46.0589 72.6177 45.9902 72.7905 45.9902H79.8825C80.0552 45.9902 80.2209 46.0589 80.3431 46.181C80.4652 46.3031 80.5338 46.4688 80.5338 46.6415C80.5338 46.8143 80.4652 46.9799 80.3431 47.1021C80.2209 47.2242 80.0552 47.2929 79.8825 47.2929Z" fill="#FFDC55"/>
<path d="M78.4351 44.6151H74.2377C74.065 44.6151 73.8993 44.5465 73.7772 44.4244C73.6551 44.3022 73.5864 44.1365 73.5864 43.9638C73.5864 43.7911 73.6551 43.6254 73.7772 43.5033C73.8993 43.3811 74.065 43.3125 74.2377 43.3125H78.4351C78.6078 43.3125 78.7735 43.3811 78.8956 43.5033C79.0178 43.6254 79.0864 43.7911 79.0864 43.9638C79.0864 44.1365 79.0178 44.3022 78.8956 44.4244C78.7735 44.5465 78.6078 44.6151 78.4351 44.6151Z" fill="#FFDC55"/>
<path d="M79.8825 49.4628H72.7905C72.6177 49.4628 72.4521 49.3942 72.3299 49.272C72.2078 49.1499 72.1392 48.9842 72.1392 48.8115C72.1392 48.6387 72.2078 48.4731 72.3299 48.3509C72.4521 48.2288 72.6177 48.1602 72.7905 48.1602H79.8825C80.0552 48.1602 80.2209 48.2288 80.3431 48.3509C80.4652 48.4731 80.5338 48.6387 80.5338 48.8115C80.5338 48.9842 80.4652 49.1499 80.3431 49.272C80.2209 49.3942 80.0552 49.4628 79.8825 49.4628Z" fill="#FFDC55"/>
<path d="M18.2942 68.547C18.1941 68.3593 18.1364 68.1519 18.1251 67.9394C18.1138 67.7269 18.1492 67.5146 18.2289 67.3173C18.3086 67.12 18.4305 66.9425 18.5862 66.7975C18.7418 66.6524 18.9274 66.5432 19.1298 66.4776L19.2364 61.3066L21.4492 62.8322L21.0087 67.5088C21.0963 67.8561 21.0535 68.2236 20.8884 68.5415C20.7232 68.8594 20.4472 69.1056 20.1126 69.2336C19.778 69.3616 19.4081 69.3624 19.073 69.2358C18.7378 69.1093 18.4608 68.8642 18.2942 68.547H18.2942Z" fill="#A0616A"/>
<path d="M20.7411 48.6364L18.5752 64.9211L21.1826 65.0194L23.3617 47.9245L22.8387 47.6159C22.6397 47.4986 22.4148 47.4323 22.184 47.423C21.9531 47.4137 21.7236 47.4618 21.5159 47.5628C21.3081 47.6639 21.1286 47.8148 20.9934 48.0022C20.8583 48.1895 20.7716 48.4074 20.7411 48.6364Z" fill="#FFDC55"/>
<path d="M27.6538 92.276L29.4281 92.2759L30.2723 85.4316L27.6533 85.4318L27.6538 92.276Z" fill="#A0616A"/>
<path d="M32.8501 93.9238L27.2733 93.9241L27.2732 91.7694L30.6953 91.7693C31.2668 91.7692 31.8148 91.9962 32.2189 92.4003C32.623 92.8043 32.8501 93.3524 32.8501 93.9238Z" fill="#2F2E41"/>
<path d="M12.8901 90.1562L14.5003 90.9016L18.1419 85.0454L15.7653 83.9453L12.8901 90.1562Z" fill="#A0616A"/>
<path d="M16.9136 93.834L11.8528 91.4912L12.758 89.5359L15.8634 90.9735C16.382 91.2136 16.784 91.6498 16.9809 92.1863C17.1779 92.7227 17.1536 93.3154 16.9136 93.834Z" fill="#2F2E41"/>
<path d="M29.514 90.8294C29.488 90.8294 29.462 90.8279 29.4362 90.8248L28.0324 90.6597C27.8847 90.6417 27.7476 90.5739 27.6436 90.4676C27.5395 90.3612 27.4748 90.2227 27.4601 90.0746L25.7749 72.3965C25.7705 72.3503 25.7514 72.3068 25.7204 72.2722C25.6895 72.2377 25.6483 72.214 25.6029 72.2045C25.5574 72.1951 25.5102 72.2005 25.4681 72.2199C25.4259 72.2393 25.3911 72.2716 25.3687 72.3123L15.9926 89.2993C15.9221 89.4279 15.8101 89.5288 15.6749 89.5856C15.5397 89.6424 15.3892 89.6518 15.248 89.6121L13.671 89.174C13.5858 89.1504 13.5064 89.1098 13.4375 89.0545C13.3686 88.9992 13.3116 88.9305 13.2701 88.8525C13.2286 88.7745 13.2035 88.6889 13.1961 88.6009C13.1888 88.5128 13.1994 88.4242 13.2274 88.3404C14.6009 84.2308 21.4822 63.6341 22.0705 61.7384C22.7735 59.4732 28.0213 58.5806 28.4734 58.5078L28.7332 58.248L28.7832 58.3153C31.0995 61.4334 32.2203 65.563 31.9392 69.9436L31.9391 69.9453L30.1611 90.2349C30.1469 90.3968 30.0726 90.5476 29.9529 90.6577C29.8331 90.7677 29.6766 90.8289 29.514 90.8294Z" fill="#2F2E41"/>
<path d="M22.1178 44.9281C24.0811 44.9281 25.6727 43.3365 25.6727 41.3732C25.6727 39.4099 24.0811 37.8184 22.1178 37.8184C20.1545 37.8184 18.563 39.4099 18.563 41.3732C18.563 43.3365 20.1545 44.9281 22.1178 44.9281Z" fill="#A0616A"/>
<path d="M22.2994 61.1949L20.19 50.2005C20.0135 49.2717 20.1966 48.3106 20.7023 47.5118C21.2079 46.713 21.9982 46.1362 22.9131 45.8983C23.4786 45.7513 24.0734 45.7612 24.6337 45.927C25.1939 46.0929 25.6983 46.4083 26.0926 46.8394C27.1693 48.0147 28.537 49.7251 28.9382 51.1994C29.2778 52.4508 30.2337 57.1401 30.2433 57.1873L30.2509 57.2246L30.2245 57.252C30.2194 57.2572 29.7073 57.7865 28.9102 58.4471C28.4424 58.8348 27.9643 59.1946 27.4891 59.5167C26.1549 60.4176 22.5247 61.1498 22.3709 61.1806L22.2994 61.1949Z" fill="#FFDC55"/>
<path opacity="0.2" d="M27.4484 59.4561C27.9781 59.0972 28.4587 58.7266 28.8639 58.3908C28.7178 56.2285 25.5321 51.7012 24.2411 51.7012C24.2411 51.7012 23.9357 58.6789 27.4484 59.4561Z" fill="black"/>
<path d="M34.0055 65.1353C33.8054 65.0628 33.6237 64.9473 33.4732 64.797C33.3226 64.6466 33.2068 64.4651 33.134 64.2652C33.0612 64.0653 33.0331 63.8518 33.0517 63.6398C33.0703 63.4279 33.1352 63.2226 33.2417 63.0384L29.8608 59.1243L32.5261 58.7773L35.328 62.5475C35.6255 62.7469 35.8396 63.0486 35.9296 63.3954C36.0195 63.7421 35.9792 64.1098 35.8162 64.4288C35.6532 64.7478 35.3788 64.9959 35.0451 65.1261C34.7113 65.2564 34.3414 65.2596 34.0055 65.1353H34.0055Z" fill="#A0616A"/>
<path d="M24.5534 46.1329C24.7006 46.1359 24.8473 46.1527 24.9914 46.1831C25.2831 46.2497 25.5538 46.3878 25.779 46.5848C26.0043 46.7818 26.1772 47.0317 26.2821 47.312L30.4618 56.0437L34.9485 60.8199L32.7051 62.6291L25.6131 56.2608L22.7798 48.5491C22.6893 48.2706 22.6664 47.9745 22.7129 47.6854C22.7594 47.3963 22.8741 47.1225 23.0473 46.8864C23.2206 46.6504 23.4475 46.4589 23.7094 46.3279C23.9713 46.1969 24.2606 46.13 24.5534 46.1329Z" fill="#FFDC55"/>
<path d="M21.9076 44.8954C21.4017 44.1381 21.0024 43.088 21.5594 42.3674C22.1093 41.6562 23.1938 41.761 24.0359 41.4462C25.2089 41.0079 25.8891 39.6299 25.677 38.3958C25.4648 37.1618 24.4742 36.1388 23.294 35.7202C22.1139 35.3016 20.7831 35.4378 19.6274 35.9198C18.2048 36.5132 16.9844 37.661 16.4727 39.115C15.9609 40.569 16.2345 42.3148 17.2961 43.4324C18.4343 44.6306 20.2206 44.9499 21.873 44.9305" fill="#2F2E41"/>
<path d="M16.3255 40.7039C16.1806 41.5131 15.2929 41.9727 14.4771 42.0737C13.6612 42.1747 12.8173 42.0452 12.023 42.2574C10.6229 42.6315 9.69935 43.978 9.19104 45.3353C8.68273 46.6925 8.4573 48.1574 7.79687 49.4474C7.13643 50.7375 5.85589 51.8748 4.41162 51.7542C4.69456 52.4665 5.19038 53.0742 5.83143 53.4943C6.47249 53.9145 7.22756 54.1266 7.99362 54.1017C8.75968 54.0769 9.49942 53.8163 10.1119 53.3555C10.7244 52.8947 11.1798 52.2562 11.416 51.527C11.9466 49.8891 11.3375 47.9357 12.2654 46.4854C12.7788 45.6828 13.6654 45.2108 14.5203 44.7901C15.3751 44.3695 16.2724 43.9377 16.8455 43.1767C17.4187 42.4156 17.5332 41.2136 16.8269 40.5742" fill="#2F2E41"/>
<path d="M0.172324 94.0009H46.5302C46.5758 94.0008 46.6195 93.9826 46.6517 93.9503C46.684 93.918 46.702 93.8742 46.702 93.8286C46.702 93.783 46.684 93.7392 46.6517 93.7069C46.6195 93.6746 46.5758 93.6564 46.5302 93.6562H0.172324C0.126705 93.6564 0.0829999 93.6746 0.0507888 93.7069C0.0185777 93.7392 0.000488281 93.783 0.000488281 93.8286C0.000488281 93.8742 0.0185777 93.918 0.0507888 93.9503C0.0829999 93.9826 0.126705 94.0008 0.172324 94.0009Z" fill="#3F3D56"/>
<path d="M38.2172 36.6463C39.3363 36.6463 40.2435 35.7391 40.2435 34.62C40.2435 33.501 39.3363 32.5938 38.2172 32.5938C37.0981 32.5938 36.1909 33.501 36.1909 34.62C36.1909 35.7391 37.0981 36.6463 38.2172 36.6463Z" fill="#E6E6E6"/>
<path d="M102.624 18.8436C103.744 18.8436 104.651 17.9364 104.651 16.8173C104.651 15.6982 103.744 14.791 102.624 14.791C101.505 14.791 100.598 15.6982 100.598 16.8173C100.598 17.9364 101.505 18.8436 102.624 18.8436Z" fill="#E6E6E6"/>
<path d="M80.4799 73.5526C81.599 73.5526 82.5062 72.6454 82.5062 71.5263C82.5062 70.4072 81.599 69.5 80.4799 69.5C79.3608 69.5 78.4536 70.4072 78.4536 71.5263C78.4536 72.6454 79.3608 73.5526 80.4799 73.5526Z" fill="#E6E6E6"/>
</g>
<defs>
<clipPath id="clip0_225_22850">
<rect width="123.638" height="94" fill="white"/>
</clipPath>
</defs>
</svg>
