<svg width="190" height="101" viewBox="0 0 190 101" fill="none" xmlns="http://www.w3.org/2000/svg">
<g clip-path="url(#clip0_1139_57384)">
<path d="M161.042 100.946H70.8225C70.5445 100.946 70.278 100.836 70.0815 100.642C69.8849 100.448 69.7743 100.184 69.7739 99.909V17.0372C69.7743 16.7622 69.8849 16.4986 70.0815 16.3042C70.278 16.1097 70.5445 16.0004 70.8225 16H161.042C161.32 16.0004 161.586 16.1097 161.783 16.3042C161.979 16.4986 162.09 16.7622 162.09 17.0372V99.9089C162.09 100.184 161.979 100.447 161.783 100.642C161.586 100.836 161.32 100.946 161.042 100.946V100.946ZM70.8225 16.4141C70.6559 16.4144 70.4963 16.48 70.3784 16.5966C70.2606 16.7131 70.1943 16.871 70.1939 17.0358V99.9089C70.1943 100.074 70.2606 100.232 70.3784 100.348C70.4963 100.465 70.6559 100.53 70.8225 100.531H161.042C161.208 100.53 161.368 100.465 161.486 100.348C161.604 100.232 161.67 100.074 161.67 99.9089V17.0372C161.67 16.8724 161.604 16.7145 161.486 16.5979C161.368 16.4814 161.208 16.4158 161.042 16.4154L70.8225 16.4141Z" fill="#E6E6E6"/>
<path d="M113.429 37.5059C113.239 37.5059 113.057 37.5625 112.922 37.6633C112.787 37.7642 112.712 37.9009 112.712 38.0435C112.712 38.1861 112.787 38.3228 112.922 38.4237C113.057 38.5245 113.239 38.5811 113.429 38.5811H152.786C152.976 38.5811 153.158 38.5245 153.293 38.4237C153.427 38.3228 153.503 38.1861 153.503 38.0435C153.503 37.9009 153.427 37.7642 153.293 37.6633C153.158 37.5625 152.976 37.5059 152.786 37.5059H113.429Z" fill="#E6E6E6"/>
<path d="M113.427 41.8066C113.238 41.8066 113.056 41.8633 112.921 41.9641C112.787 42.0649 112.712 42.2017 112.712 42.3443C112.712 42.4869 112.787 42.6236 112.921 42.7244C113.056 42.8253 113.238 42.8819 113.427 42.8819H133.466C133.655 42.8819 133.837 42.8253 133.971 42.7244C134.105 42.6236 134.181 42.4869 134.181 42.3443C134.181 42.2017 134.105 42.0649 133.971 41.9641C133.837 41.8633 133.655 41.8066 133.466 41.8066H113.427Z" fill="#E6E6E6"/>
<path d="M79.078 62.2363C78.888 62.2363 78.7058 62.293 78.5714 62.3938C78.4371 62.4946 78.3616 62.6314 78.3616 62.774C78.3616 62.9165 78.4371 63.0533 78.5714 63.1541C78.7058 63.255 78.888 63.3116 79.078 63.3116H152.786C152.976 63.3116 153.159 63.255 153.293 63.1541C153.427 63.0533 153.503 62.9165 153.503 62.774C153.503 62.6314 153.427 62.4946 153.293 62.3938C153.159 62.293 152.976 62.2363 152.786 62.2363H79.078Z" fill="#E6E6E6"/>
<path d="M79.077 66.5371C78.8872 66.5371 78.7053 66.5938 78.5711 66.6946C78.4369 66.7954 78.3616 66.9322 78.3616 67.0747C78.3616 67.2173 78.4369 67.3541 78.5711 67.4549C78.7053 67.5557 78.8872 67.6124 79.077 67.6124H133.465C133.655 67.6124 133.837 67.5557 133.971 67.4549C134.105 67.3541 134.181 67.2173 134.181 67.0747C134.181 66.9322 134.105 66.7954 133.971 66.6946C133.837 66.5938 133.655 66.5371 133.465 66.5371H79.077Z" fill="#E6E6E6"/>
<path d="M79.078 69.7637C78.888 69.7637 78.7058 69.877 78.5714 70.0786C78.4371 70.2803 78.3616 70.5538 78.3616 70.8389C78.3616 71.1241 78.4371 71.3976 78.5714 71.5993C78.7058 71.8009 78.888 71.9142 79.078 71.9142H152.786C152.976 71.9142 153.159 71.8009 153.293 71.5993C153.427 71.3976 153.503 71.1241 153.503 70.8389C153.503 70.5538 153.427 70.2803 153.293 70.0786C153.159 69.877 152.976 69.7637 152.786 69.7637H79.078Z" fill="#E6E6E6"/>
<path d="M79.077 74.0645C78.8872 74.0645 78.7053 74.1777 78.5711 74.3794C78.4369 74.5811 78.3616 74.8546 78.3616 75.1397C78.3616 75.4249 78.4369 75.6984 78.5711 75.9001C78.7053 76.1017 78.8872 76.215 79.077 76.215H133.465C133.655 76.215 133.837 76.1017 133.971 75.9001C134.105 75.6984 134.181 75.4249 134.181 75.1397C134.181 74.8546 134.105 74.5811 133.971 74.3794C133.837 74.1777 133.655 74.0645 133.465 74.0645H79.077Z" fill="#E6E6E6"/>
<path d="M103.089 52.5595H47.1933C46.9188 52.5591 46.6557 52.4488 46.4617 52.2527C46.2677 52.0566 46.1585 51.7908 46.1582 51.5134V26.7237C46.1585 26.4464 46.2677 26.1805 46.4617 25.9844C46.6557 25.7883 46.9188 25.678 47.1933 25.6777H103.089C103.364 25.678 103.627 25.7883 103.821 25.9844C104.015 26.1805 104.124 26.4464 104.124 26.7237V51.5134C104.124 51.7908 104.015 52.0566 103.821 52.2527C103.627 52.4488 103.364 52.5591 103.089 52.5595Z" fill="#FFDC55"/>
<path d="M152.452 91.2689H130.938C130.659 91.2686 130.392 91.1612 130.195 90.9703C129.998 90.7794 129.887 90.5206 129.887 90.2506V86.9109C129.887 86.6409 129.998 86.3821 130.195 86.1912C130.392 86.0003 130.659 85.8929 130.938 85.8926H152.452C152.73 85.8929 152.998 86.0003 153.195 86.1912C153.392 86.3821 153.502 86.6409 153.503 86.9109V90.2506C153.502 90.5206 153.392 90.7794 153.195 90.9703C152.998 91.1612 152.73 91.2686 152.452 91.2689Z" fill="#FFDC55"/>
<path d="M24.6082 57.519C23.6086 56.8412 23.3152 55.5748 23.953 54.6904C24.0163 54.6037 24.088 54.5224 24.1671 54.4472L24.231 36.4297L27.1801 36.9297L27.3096 54.6504C27.9815 55.3582 28.1172 56.3897 27.573 57.1444C26.9352 58.0289 25.6079 58.1966 24.6082 57.519Z" fill="#FFB8B8"/>
<path d="M38.6444 97.7205L41.5537 97.7203L42.9378 86.9678L38.644 86.968L38.6444 97.7205Z" fill="#FFB8B8"/>
<path d="M38.644 96.6448L43.8889 96.6445H43.8892C44.7756 96.6446 45.6257 97.0834 46.2526 97.8646C46.8794 98.6457 47.2316 99.7052 47.2316 100.81V100.945L38.6442 100.946L38.644 96.6448Z" fill="#2F2E41"/>
<path d="M12.8818 97.7205L15.7912 97.7203L17.1751 86.9678L12.8813 86.968L12.8818 97.7205Z" fill="#FFB8B8"/>
<path d="M11.8079 96.6448L17.7084 96.6445H17.7086C18.7059 96.6446 19.6623 97.0834 20.3674 97.8646C21.0726 98.6457 21.4688 99.7052 21.4689 100.81V100.945L11.808 100.946L11.8079 96.6448Z" fill="#2F2E41"/>
<path d="M38.672 94.4944L38.4381 93.1136C38.1979 93.031 37.9938 92.8697 37.8598 92.6568C37.6087 92.2664 37.5687 91.7169 37.7408 91.0233L35.8583 75.3782L26.0299 65.3432L19.7248 80.3091L17.2288 92.1521V93.8632L12.2454 94.4929L12.4722 92.8801C12.2816 92.7997 12.1227 92.6604 12.0197 92.4833C11.7334 92.0143 11.7373 91.2874 12.0313 90.3231L12.0441 90.2812L12.0278 90.1372C12.0164 90.0362 12.0913 80.3627 15.0135 75.5699L17.9401 61.0186C17.8641 60.8137 17.4889 59.6205 18.177 57.6044C18.8561 55.6147 20.7555 52.4093 25.9473 48.4383L25.9652 48.4248L25.9873 48.4202C26.0448 48.4085 31.7711 47.2882 34.7326 51.0993L34.7526 51.125V51.1575C34.7526 51.3931 34.7475 56.8763 34.3069 58.0929L41.3343 70.8088C41.4712 70.9515 42.6997 72.3476 42.2633 76.0184L43.3986 88.5311C43.5285 88.7751 44.7036 91.0733 43.4084 91.9831L43.6406 93.563L38.672 94.4944Z" fill="#2F2E41"/>
<path d="M26.7542 41.8063C25.4207 41.8063 23.6486 41.3561 22.5638 39.2812L22.5425 39.2404L25.2149 33.8298C25.5612 33.1288 26.1809 32.5851 26.9415 32.3149C27.7021 32.0448 28.5432 32.0697 29.2849 32.3843C30.0265 32.6989 30.6098 33.2783 30.9099 33.9984C31.21 34.7185 31.2031 35.5222 30.8906 36.2376L28.5801 41.5277L28.5399 41.542C27.9629 41.719 27.3603 41.8082 26.7542 41.8063Z" fill="#FFDC55"/>
<path d="M34.3209 52.559L25.7627 48.6911L26.9391 34.9548L29.0838 32.446L29.4992 32.3609C31.4086 31.9696 33.3926 32.0748 35.2451 32.6655L35.2859 32.6784L38.8087 39.8712C38.8308 39.9071 41.3713 44.2 37.8593 46.4634L34.3209 52.559Z" fill="#FFDC55"/>
<path d="M45.6052 48.435C45.5099 48.4784 45.4179 48.53 45.33 48.5892L36.9151 44.38L36.6992 41.933L33.2797 41.8066L33.2769 46.1791C33.2766 46.5323 33.3812 46.8761 33.5748 47.1588C33.7685 47.4415 34.0408 47.6479 34.3508 47.747L44.4557 50.9764C44.5595 51.3963 44.7777 51.7716 45.0813 52.0526C45.385 52.3335 45.7596 52.5067 46.1555 52.5491C46.5513 52.5915 46.9496 52.5011 47.2973 52.29C47.6451 52.0788 47.9257 51.7569 48.1021 51.3671C48.2784 50.9772 48.342 50.5379 48.2845 50.1075C48.2269 49.6772 48.0509 49.2761 47.7798 48.9578C47.5088 48.6395 47.1555 48.419 46.7671 48.3256C46.3786 48.2322 45.9733 48.2704 45.6052 48.435L45.6052 48.435Z" fill="#FFB8B8"/>
<path d="M35.2542 42.8815C34.314 42.8815 33.2531 42.5572 32.2348 41.5412L32.2034 41.5099L32.8915 35.7434C32.9806 34.9963 33.3593 34.3137 33.9465 33.8416C34.5337 33.3695 35.2827 33.1454 36.0334 33.2173C36.7841 33.2892 37.4768 33.6513 37.9633 34.2263C38.4497 34.8012 38.6913 35.5432 38.6364 36.2936L38.2302 41.8428L38.1991 41.8677C38.1792 41.8837 36.9027 42.8815 35.2542 42.8815Z" fill="#FFDC55"/>
<path d="M37.8348 27.425C39.3285 24.7187 38.3243 21.3255 35.5918 19.8461C32.8593 18.3667 29.4332 19.3613 27.9395 22.0676C26.4458 24.7739 27.45 28.1671 30.1825 29.6464C32.915 31.1258 36.3411 30.1312 37.8348 27.425Z" fill="#FFB8B8"/>
<path d="M38.5932 21.8107C38.3122 20.2684 37.0004 18.9899 35.4376 18.4668C33.8747 17.9437 32.1124 18.1138 30.582 18.7162C30.3271 18.817 30.0779 18.93 29.8354 19.055C29.276 18.0487 27.9046 17.4651 26.6503 17.5281C25.1349 17.6042 23.7664 18.3609 22.4503 19.0741C21.1342 19.7872 19.7219 20.4968 18.2048 20.4636C15.463 20.4036 13.4233 18.0047 10.7868 17.2918C9.61319 16.9744 8.36438 17.0065 7.21079 17.3837C6.0572 17.7609 5.05501 18.4648 4.34095 19.3993C3.6269 20.3339 3.23576 21.4536 3.2209 22.6057C3.20604 23.7578 3.56818 24.8861 4.25792 25.8368C5.38283 23.9343 8.02456 23.2917 10.3168 23.5507C12.6089 23.8097 14.7452 24.7579 16.9908 25.263C19.2365 25.7681 21.8373 25.7464 23.5767 24.3141C24.5634 23.5016 25.1427 22.3403 26.0017 21.4076C26.5827 20.7767 27.4099 20.244 28.2551 20.1186C27.4226 20.8261 26.787 21.7158 26.4043 22.7094C25.7266 24.5266 26.0889 26.7084 27.4948 28.1051C29.0019 29.6025 31.3675 30.0016 33.5558 29.9774L33.6015 29.9335C32.9315 28.987 32.4028 27.6747 33.1404 26.7742C33.8686 25.8853 35.3048 26.0163 36.42 25.6229C37.9732 25.0751 38.8741 23.353 38.5932 21.8107Z" fill="#2F2E41"/>
<path d="M72.3787 34.2793C72.1254 34.2799 71.9204 34.5211 71.9209 34.818C71.9214 35.1141 72.1261 35.354 72.3787 35.3546H94.0055C94.2588 35.354 94.4638 35.1128 94.4633 34.8159C94.4628 34.5198 94.2581 34.2799 94.0055 34.2793H72.3787Z" fill="white"/>
<path d="M72.3787 38.5801C72.1254 38.5807 71.9204 38.8219 71.9209 39.1188C71.9214 39.4149 72.1261 39.6548 72.3787 39.6553H94.0055C94.2588 39.6548 94.4638 39.4136 94.4633 39.1166C94.4628 38.8206 94.2581 38.5807 94.0055 38.5801H72.3787Z" fill="white"/>
<path d="M72.4017 41.8066C72.1356 41.8078 71.9204 42.2902 71.9209 42.884C71.9214 43.4762 72.1364 43.956 72.4017 43.9572H82.1746C82.4406 43.956 82.6559 43.4736 82.6554 42.8798C82.6548 42.2876 82.4399 41.8078 82.1746 41.8066H72.4017Z" fill="white"/>
<path d="M61.723 43.9568C64.9837 43.9568 67.627 41.5497 67.627 38.5804C67.627 35.6112 64.9837 33.2041 61.723 33.2041C58.4624 33.2041 55.8191 35.6112 55.8191 38.5804C55.8191 41.5497 58.4624 43.9568 61.723 43.9568Z" fill="white"/>
</g>
<defs>
<clipPath id="clip0_1139_57384">
<rect width="190" height="100" fill="white" transform="translate(0 0.5)"/>
</clipPath>
</defs>
</svg>
