<svg width="1440" height="16" viewBox="0 0 1440 16" fill="none" xmlns="http://www.w3.org/2000/svg">
<g clip-path="url(#clip0_9459_4395)">
<g clip-path="url(#clip1_9459_4395)">
<path d="M0 15.4736H3.73296V9.6058H7.83149V6.31504H3.73296V3.81719H8.25606V0.526471H0V15.4835V15.4736ZM14.2606 0.526471H8.95728V15.4835H14.2606C18.2504 15.4835 21.5686 12.2126 21.5686 8.00999C21.5686 3.80734 18.2702 0.526471 14.2606 0.526471ZM13.5495 12.1929H12.7101V3.81719H13.589C15.9986 3.81719 17.6874 5.3239 17.6874 8.0001C17.6874 10.9142 15.7815 12.1829 13.5495 12.1829M22.1117 15.4835H25.8448V0.526471H22.1117V15.4835ZM34.0713 3.89659C35.3551 3.89659 36.5897 4.4715 37.35 5.54191V0.883372C36.2441 0.407615 35.1379 0.130118 33.933 0.130118C31.9085 0.130118 29.8741 1.04201 28.4619 2.54856C27.0892 4.01545 26.3485 5.97805 26.3485 8.02001C26.3485 10.2402 27.0794 12.1829 28.6594 13.6697C30.1506 15.0772 32.0567 15.8701 34.0615 15.8701C35.2267 15.8701 36.1156 15.5727 37.36 15.1762V10.5177C36.5797 11.4891 35.3551 12.1036 34.1404 12.1036C31.8097 12.1036 30.2494 10.3988 30.2494 8.03972C30.2494 5.68064 31.7901 3.89659 34.0813 3.89659" fill="#1B3152"/>
</g>
<g clip-path="url(#clip2_9459_4395)">
<path d="M43.448 13L45.1248 4.6032H49.7584L49.592 5.4352H45.944L45.368 8.3536H48.4528L48.2864 9.1984H45.2144L44.4464 13H43.448ZM49.498 13L51.1748 4.6032H52.7364C53.9055 4.6032 54.7887 4.89333 55.386 5.4736C55.9919 6.04533 56.2948 6.84747 56.2948 7.88C56.2948 8.89547 56.1113 9.7872 55.7444 10.5552C55.386 11.3232 54.8655 11.9248 54.1828 12.36C53.5087 12.7867 52.698 13 51.7508 13H49.498ZM50.65 12.1808H51.7508C52.4761 12.1808 53.1033 12.0016 53.6324 11.6432C54.1615 11.2848 54.5668 10.7856 54.8484 10.1456C55.1385 9.5056 55.2836 8.77173 55.2836 7.944C55.2836 7.1504 55.0617 6.53173 54.618 6.088C54.1828 5.63573 53.5428 5.4096 52.698 5.4096H52.0068L50.65 12.1808ZM57.073 13L58.7498 4.6032H59.7482L58.0714 13H57.073ZM63.562 13.1536C62.922 13.1536 62.3801 13.0128 61.9364 12.7312C61.4927 12.4411 61.1556 12.04 60.9252 11.528C60.6948 11.016 60.5796 10.4272 60.5796 9.7616C60.5796 9.10453 60.682 8.46027 60.8868 7.8288C61.0916 7.19733 61.386 6.62987 61.77 6.1264C62.154 5.6144 62.6105 5.20907 63.1396 4.9104C63.6772 4.6032 64.2703 4.4496 64.9188 4.4496C65.3967 4.4496 65.8063 4.56907 66.1476 4.808C66.4975 5.0384 66.7748 5.3328 66.9796 5.6912L66.2884 6.216C66.1263 5.94293 65.93 5.72533 65.6996 5.5632C65.4692 5.39253 65.1919 5.3072 64.8676 5.3072C64.3727 5.3072 63.9204 5.43947 63.5108 5.704C63.1097 5.96 62.7684 6.30133 62.4868 6.728C62.2052 7.15467 61.9876 7.624 61.834 8.136C61.6804 8.648 61.6036 9.16 61.6036 9.672C61.6036 10.1755 61.6761 10.6277 61.8212 11.0288C61.9663 11.4213 62.1967 11.7328 62.5124 11.9632C62.8281 12.1851 63.2377 12.296 63.7412 12.296C64.0825 12.296 64.394 12.2277 64.6756 12.0912C64.9657 11.9547 65.2473 11.7712 65.5204 11.5408L65.9684 12.1808C65.6612 12.4453 65.3071 12.6757 64.906 12.872C64.5135 13.0597 64.0655 13.1536 63.562 13.1536ZM66.7105 10.1584L66.8641 9.4032H69.6673L69.5009 10.1584H66.7105ZM70.5355 13L72.2123 4.6032H73.2107L71.5339 13H70.5355ZM73.7093 13L74.9509 6.7792H75.7573L75.6677 7.7136H75.7189C76.0688 7.4064 76.4186 7.1504 76.7685 6.9456C77.1184 6.73227 77.4896 6.6256 77.8821 6.6256C78.4112 6.6256 78.7866 6.7664 79.0085 7.048C79.2389 7.32107 79.3541 7.69653 79.3541 8.1744C79.3541 8.43893 79.32 8.7248 79.2517 9.032L78.4581 13H77.4853L78.2533 9.16C78.2874 8.98933 78.313 8.8528 78.3301 8.7504C78.3472 8.648 78.3557 8.54133 78.3557 8.4304C78.3557 7.7904 78.0485 7.4704 77.4341 7.4704C77.1952 7.4704 76.9221 7.56 76.6149 7.7392C76.3077 7.9184 75.9578 8.20427 75.5653 8.5968L74.6821 13H73.7093ZM82.1239 13.1536C81.7058 13.1536 81.2962 13.0427 80.8951 12.8208C80.5026 12.5989 80.1996 12.3173 79.9863 11.976L80.6007 11.4896C80.797 11.7541 81.0316 11.9717 81.3047 12.1424C81.5778 12.3131 81.8764 12.3984 82.2007 12.3984C82.5591 12.3984 82.8663 12.3003 83.1223 12.104C83.3868 11.9077 83.5191 11.6603 83.5191 11.3616C83.5191 11.1397 83.4295 10.9477 83.2503 10.7856C83.0796 10.6149 82.7554 10.3973 82.2775 10.1328C81.885 9.91093 81.565 9.66773 81.3175 9.4032C81.0786 9.13867 80.9591 8.83147 80.9591 8.4816C80.9591 8.11467 81.053 7.79467 81.2407 7.5216C81.4284 7.24 81.6759 7.0224 81.9831 6.8688C82.2988 6.70667 82.6444 6.6256 83.0199 6.6256C83.4124 6.6256 83.7666 6.7024 84.0823 6.856C84.398 7.0096 84.6754 7.2144 84.9143 7.4704L84.3255 7.9824C84.1634 7.81173 83.9714 7.67093 83.7495 7.56C83.5362 7.44907 83.2887 7.3936 83.0071 7.3936C82.6828 7.3936 82.414 7.49173 82.2007 7.688C81.9959 7.87573 81.8935 8.10187 81.8935 8.3664C81.8935 8.6224 82.0087 8.83147 82.2391 8.9936C82.4695 9.15573 82.7212 9.3136 82.9943 9.4672C83.5234 9.75733 83.8988 10.0304 84.1207 10.2864C84.3426 10.5424 84.4535 10.8581 84.4535 11.2336C84.4535 11.6176 84.3511 11.9547 84.1463 12.2448C83.9415 12.5349 83.6642 12.7611 83.3143 12.9232C82.9644 13.0768 82.5676 13.1536 82.1239 13.1536ZM87.3763 13.1536C86.8558 13.1536 86.4803 13.0128 86.2499 12.7312C86.0195 12.4496 85.9043 12.0741 85.9043 11.6048C85.9043 11.4597 85.9128 11.3232 85.9299 11.1952C85.947 11.0587 85.9726 10.9093 86.0067 10.7472L86.8003 6.7792H87.7859L87.0051 10.6192C86.971 10.7813 86.9454 10.9179 86.9283 11.0288C86.9112 11.1312 86.9027 11.2379 86.9027 11.3488C86.9027 11.9888 87.2099 12.3088 87.8243 12.3088C88.0718 12.3088 88.3448 12.2192 88.6435 12.04C88.9507 11.8608 89.292 11.5749 89.6675 11.1824L90.5507 6.7792H91.5235L90.2819 13H89.4755L89.5779 12.0528H89.5267C89.1854 12.3515 88.8355 12.6117 88.4771 12.8336C88.1187 13.0469 87.7518 13.1536 87.3763 13.1536ZM92.3468 13L93.5884 6.7792H94.3948L94.254 7.9696H94.3052C94.5527 7.59413 94.8385 7.2784 95.1628 7.0224C95.4871 6.75787 95.8412 6.6256 96.2252 6.6256C96.4385 6.6256 96.6348 6.664 96.814 6.7408L96.4684 7.6112C96.3319 7.54293 96.1527 7.5088 95.9308 7.5088C95.6236 7.5088 95.3079 7.64533 94.9836 7.9184C94.6593 8.18293 94.3649 8.56693 94.1004 9.0704L93.3196 13H92.3468ZM99.1184 13.1536C98.3845 13.1536 97.7915 12.9275 97.3392 12.4752C96.8955 12.0229 96.6736 11.3829 96.6736 10.5552C96.6736 9.9664 96.7675 9.43307 96.9552 8.9552C97.1515 8.47733 97.4075 8.06347 97.7232 7.7136C98.0475 7.36373 98.4059 7.09493 98.7984 6.9072C99.1909 6.71947 99.592 6.6256 100.002 6.6256C100.471 6.6256 100.842 6.72373 101.115 6.92C101.397 7.11627 101.602 7.38507 101.73 7.7264C101.858 8.06773 101.922 8.45173 101.922 8.8784C101.922 9.11733 101.896 9.34773 101.845 9.5696C101.794 9.78293 101.747 9.94933 101.704 10.0688H97.6592C97.5824 10.6064 97.6123 11.0459 97.7488 11.3872C97.8853 11.7285 98.0944 11.9803 98.376 12.1424C98.6661 12.296 98.9904 12.3728 99.3488 12.3728C99.5963 12.3728 99.8395 12.3216 100.078 12.2192C100.326 12.1083 100.548 11.9803 100.744 11.8352L101.128 12.488C100.881 12.6672 100.582 12.8251 100.232 12.9616C99.8907 13.0896 99.5195 13.1536 99.1184 13.1536ZM97.7616 9.4032H101.026C101.043 9.30933 101.055 9.2112 101.064 9.1088C101.081 9.0064 101.09 8.89973 101.09 8.7888C101.09 8.54987 101.051 8.328 100.974 8.1232C100.898 7.90987 100.77 7.7392 100.59 7.6112C100.42 7.47467 100.185 7.4064 99.8864 7.4064C99.4341 7.4064 99.0075 7.58987 98.6064 7.9568C98.2053 8.3152 97.9237 8.79733 97.7616 9.4032ZM104.654 13.1536C104.108 13.1536 103.672 12.9616 103.348 12.5776C103.024 12.1851 102.862 11.6261 102.862 10.9008C102.862 10.3035 102.956 9.7488 103.143 9.2368C103.331 8.71627 103.583 8.25973 103.898 7.8672C104.214 7.47467 104.573 7.17173 104.974 6.9584C105.375 6.73653 105.793 6.6256 106.228 6.6256C106.561 6.6256 106.851 6.71093 107.098 6.8816C107.346 7.04373 107.546 7.26133 107.7 7.5344H107.738L107.943 6.3184L108.43 3.8864H109.415L107.572 13H106.766L106.868 12.0784H106.817C106.518 12.3941 106.181 12.6544 105.806 12.8592C105.43 13.0555 105.046 13.1536 104.654 13.1536ZM105.012 12.3344C105.336 12.3344 105.665 12.2363 105.998 12.04C106.33 11.8437 106.655 11.5451 106.97 11.144L107.534 8.3664C107.354 8.04213 107.158 7.80747 106.945 7.6624C106.732 7.51733 106.505 7.4448 106.266 7.4448C105.959 7.4448 105.661 7.5344 105.37 7.7136C105.089 7.8928 104.833 8.14027 104.602 8.456C104.381 8.7632 104.201 9.11733 104.065 9.5184C103.937 9.91093 103.873 10.3205 103.873 10.7472C103.873 11.2848 103.975 11.6859 104.18 11.9504C104.393 12.2064 104.671 12.3344 105.012 12.3344ZM112.223 10.1584L112.377 9.4032H115.18L115.013 10.1584H112.223ZM118.61 13L120.287 4.6032H122.527C123.338 4.6032 123.974 4.76107 124.434 5.0768C124.895 5.39253 125.126 5.85333 125.126 6.4592C125.126 6.83467 125.032 7.16747 124.844 7.4576C124.665 7.74773 124.43 7.98667 124.14 8.1744C123.858 8.36213 123.564 8.49013 123.257 8.5584L123.244 8.6096C123.679 8.712 124.046 8.904 124.345 9.1856C124.644 9.45867 124.793 9.83413 124.793 10.312C124.793 10.9349 124.639 11.4469 124.332 11.848C124.033 12.2405 123.62 12.5307 123.09 12.7184C122.561 12.9061 121.964 13 121.298 13H118.61ZM120.556 8.2128H121.759C122.561 8.2128 123.154 8.06347 123.538 7.7648C123.922 7.4576 124.114 7.06933 124.114 6.6C124.114 6.216 123.965 5.91733 123.666 5.704C123.376 5.49067 122.916 5.384 122.284 5.384H121.119L120.556 8.2128ZM119.75 12.2192H121.209C122.011 12.2192 122.647 12.0741 123.116 11.784C123.585 11.4853 123.82 11.0117 123.82 10.3632C123.82 9.93653 123.654 9.5952 123.321 9.3392C122.997 9.07467 122.523 8.9424 121.9 8.9424H120.415L119.75 12.2192ZM127.916 13.1536C127.37 13.1536 126.935 12.9616 126.611 12.5776C126.286 12.1851 126.124 11.6261 126.124 10.9008C126.124 10.3035 126.218 9.7488 126.406 9.2368C126.594 8.71627 126.845 8.25973 127.161 7.8672C127.477 7.47467 127.835 7.17173 128.236 6.9584C128.637 6.73653 129.055 6.6256 129.491 6.6256C129.823 6.6256 130.118 6.71093 130.374 6.8816C130.638 7.05227 130.843 7.2784 130.988 7.56H131.039L131.283 6.7792H132.076L130.835 13H130.028L130.131 12.0784H130.079C129.781 12.3941 129.444 12.6544 129.068 12.8592C128.693 13.0555 128.309 13.1536 127.916 13.1536ZM128.275 12.3344C128.599 12.3344 128.927 12.2363 129.26 12.04C129.602 11.8437 129.926 11.5451 130.233 11.144L130.796 8.3664C130.617 8.04213 130.421 7.80747 130.207 7.6624C129.994 7.51733 129.768 7.4448 129.529 7.4448C129.222 7.4448 128.923 7.5344 128.633 7.7136C128.351 7.8928 128.095 8.14027 127.865 8.456C127.643 8.7632 127.464 9.11733 127.327 9.5184C127.199 9.91093 127.135 10.3205 127.135 10.7472C127.135 11.2848 127.238 11.6859 127.443 11.9504C127.656 12.2064 127.933 12.3344 128.275 12.3344ZM135.265 13.1536C134.591 13.1536 134.04 12.936 133.614 12.5008C133.187 12.0656 132.974 11.4512 132.974 10.6576C132.974 10.0773 133.067 9.544 133.255 9.0576C133.443 8.56267 133.699 8.136 134.023 7.7776C134.356 7.41067 134.727 7.12907 135.137 6.9328C135.555 6.728 135.99 6.6256 136.442 6.6256C136.818 6.6256 137.134 6.69813 137.39 6.8432C137.646 6.98827 137.867 7.16747 138.055 7.3808L137.479 7.9952C137.317 7.79893 137.155 7.65813 136.993 7.5728C136.831 7.47893 136.626 7.432 136.378 7.432C135.969 7.432 135.581 7.57707 135.214 7.8672C134.847 8.15733 134.548 8.54133 134.318 9.0192C134.087 9.49707 133.972 10.0219 133.972 10.5936C133.972 11.1568 134.091 11.5877 134.33 11.8864C134.578 12.1851 134.949 12.3344 135.444 12.3344C135.717 12.3344 135.969 12.2789 136.199 12.168C136.43 12.0571 136.639 11.9291 136.826 11.784L137.262 12.424C137.04 12.5947 136.762 12.7611 136.43 12.9232C136.105 13.0768 135.717 13.1536 135.265 13.1536ZM138.459 13L140.277 3.8864H141.263L140.034 10.0688H140.059L143.247 6.7792H144.373L141.89 9.3776L143.387 13H142.389L141.199 9.9664L139.765 11.4256L139.432 13H138.459ZM146.856 13.1536C146.122 13.1536 145.529 12.9275 145.077 12.4752C144.633 12.0229 144.411 11.3829 144.411 10.5552C144.411 9.9664 144.505 9.43307 144.693 8.9552C144.889 8.47733 145.145 8.06347 145.461 7.7136C145.785 7.36373 146.143 7.09493 146.536 6.9072C146.928 6.71947 147.33 6.6256 147.739 6.6256C148.208 6.6256 148.58 6.72373 148.853 6.92C149.134 7.11627 149.339 7.38507 149.467 7.7264C149.595 8.06773 149.659 8.45173 149.659 8.8784C149.659 9.11733 149.634 9.34773 149.582 9.5696C149.531 9.78293 149.484 9.94933 149.442 10.0688H145.397C145.32 10.6064 145.35 11.0459 145.486 11.3872C145.623 11.7285 145.832 11.9803 146.114 12.1424C146.404 12.296 146.728 12.3728 147.086 12.3728C147.334 12.3728 147.577 12.3216 147.816 12.2192C148.063 12.1083 148.285 11.9803 148.482 11.8352L148.866 12.488C148.618 12.6672 148.319 12.8251 147.97 12.9616C147.628 13.0896 147.257 13.1536 146.856 13.1536ZM145.499 9.4032H148.763C148.78 9.30933 148.793 9.2112 148.802 9.1088C148.819 9.0064 148.827 8.89973 148.827 8.7888C148.827 8.54987 148.789 8.328 148.712 8.1232C148.635 7.90987 148.507 7.7392 148.328 7.6112C148.157 7.47467 147.923 7.4064 147.624 7.4064C147.172 7.4064 146.745 7.58987 146.344 7.9568C145.943 8.3152 145.661 8.79733 145.499 9.4032ZM152.391 13.1536C151.845 13.1536 151.41 12.9616 151.086 12.5776C150.761 12.1851 150.599 11.6261 150.599 10.9008C150.599 10.3035 150.693 9.7488 150.881 9.2368C151.069 8.71627 151.32 8.25973 151.636 7.8672C151.952 7.47467 152.31 7.17173 152.711 6.9584C153.112 6.73653 153.53 6.6256 153.966 6.6256C154.298 6.6256 154.589 6.71093 154.836 6.8816C155.083 7.04373 155.284 7.26133 155.438 7.5344H155.476L155.681 6.3184L156.167 3.8864H157.153L155.31 13H154.503L154.606 12.0784H154.554C154.256 12.3941 153.919 12.6544 153.543 12.8592C153.168 13.0555 152.784 13.1536 152.391 13.1536ZM152.75 12.3344C153.074 12.3344 153.402 12.2363 153.735 12.04C154.068 11.8437 154.392 11.5451 154.708 11.144L155.271 8.3664C155.092 8.04213 154.896 7.80747 154.682 7.6624C154.469 7.51733 154.243 7.4448 154.004 7.4448C153.697 7.4448 153.398 7.5344 153.108 7.7136C152.826 7.8928 152.57 8.14027 152.34 8.456C152.118 8.7632 151.939 9.11733 151.802 9.5184C151.674 9.91093 151.61 10.3205 151.61 10.7472C151.61 11.2848 151.713 11.6859 151.918 11.9504C152.131 12.2064 152.408 12.3344 152.75 12.3344ZM162.508 13.1536C162.175 13.1536 161.876 13.0683 161.612 12.8976C161.356 12.7269 161.155 12.5008 161.01 12.2192H160.972L160.716 13H159.909L161.727 3.8864H162.712L162.213 6.3184L161.932 7.5472H161.957C162.264 7.29973 162.597 7.0864 162.956 6.9072C163.314 6.71947 163.685 6.6256 164.069 6.6256C164.615 6.6256 165.051 6.8176 165.375 7.2016C165.699 7.5856 165.861 8.14453 165.861 8.8784C165.861 9.47573 165.767 10.0347 165.58 10.5552C165.392 11.0672 165.14 11.5195 164.824 11.912C164.509 12.3045 164.15 12.6117 163.749 12.8336C163.348 13.0469 162.934 13.1536 162.508 13.1536ZM162.469 12.3344C162.776 12.3344 163.071 12.2448 163.352 12.0656C163.643 11.8864 163.899 11.6432 164.12 11.336C164.351 11.0203 164.53 10.6661 164.658 10.2736C164.786 9.87253 164.85 9.4544 164.85 9.0192C164.85 8.49013 164.748 8.0976 164.543 7.8416C164.338 7.57707 164.061 7.4448 163.711 7.4448C163.421 7.4448 163.101 7.5344 162.751 7.7136C162.41 7.8928 162.09 8.14027 161.791 8.456L161.202 11.4128C161.373 11.7371 161.565 11.9717 161.778 12.1168C162 12.2619 162.23 12.3344 162.469 12.3344ZM166.161 15.6752C166.075 15.6752 165.964 15.6581 165.828 15.624C165.691 15.5984 165.563 15.5557 165.444 15.496L165.764 14.7664C165.918 14.8432 166.071 14.8816 166.225 14.8816C166.54 14.8816 166.835 14.7493 167.108 14.4848C167.39 14.2288 167.637 13.8875 167.85 13.4608L168.081 13.0128L167.018 6.7792H167.991L168.478 10.2736C168.52 10.5552 168.559 10.8624 168.593 11.1952C168.627 11.5195 168.657 11.8309 168.682 12.1296H168.734C168.879 11.8309 169.028 11.5195 169.182 11.1952C169.344 10.8709 169.502 10.5637 169.655 10.2736L171.447 6.7792H172.42L168.759 13.5248C168.546 13.9259 168.311 14.2885 168.055 14.6128C167.808 14.9456 167.53 15.2059 167.223 15.3936C166.916 15.5813 166.562 15.6752 166.161 15.6752ZM176.906 13.1536C176.359 13.1536 175.975 13.0213 175.754 12.7568C175.532 12.4837 175.421 12.1552 175.421 11.7712C175.421 11.6432 175.429 11.5237 175.446 11.4128C175.463 11.3019 175.476 11.1909 175.485 11.08L176.214 7.5728H175.306L175.446 6.8432L176.419 6.7792L176.88 5.064H177.712L177.366 6.7792H178.941L178.787 7.5728H177.187L176.458 11.1312C176.432 11.2848 176.419 11.4384 176.419 11.592C176.419 11.848 176.479 12.04 176.598 12.168C176.718 12.296 176.923 12.36 177.213 12.36C177.332 12.36 177.447 12.3387 177.558 12.296C177.669 12.2533 177.772 12.2107 177.866 12.168L178.083 12.872C177.947 12.9317 177.776 12.9915 177.571 13.0512C177.375 13.1195 177.153 13.1536 176.906 13.1536ZM179.097 13L180.914 3.8864H181.9L181.286 6.8944L181.081 7.6752H181.132C181.482 7.37653 181.832 7.12907 182.182 6.9328C182.531 6.728 182.894 6.6256 183.27 6.6256C183.799 6.6256 184.174 6.7664 184.396 7.048C184.626 7.32107 184.742 7.69653 184.742 8.1744C184.742 8.43893 184.707 8.7248 184.639 9.032L183.846 13H182.873L183.641 9.16C183.675 8.98933 183.701 8.8528 183.718 8.7504C183.735 8.648 183.743 8.54133 183.743 8.4304C183.743 7.7904 183.436 7.4704 182.822 7.4704C182.583 7.4704 182.31 7.56 182.002 7.7392C181.695 7.9184 181.345 8.20427 180.953 8.5968L180.07 13H179.097ZM188.318 13.1536C187.585 13.1536 186.991 12.9275 186.539 12.4752C186.095 12.0229 185.874 11.3829 185.874 10.5552C185.874 9.9664 185.967 9.43307 186.155 8.9552C186.351 8.47733 186.607 8.06347 186.923 7.7136C187.247 7.36373 187.606 7.09493 187.998 6.9072C188.391 6.71947 188.792 6.6256 189.202 6.6256C189.671 6.6256 190.042 6.72373 190.315 6.92C190.597 7.11627 190.802 7.38507 190.93 7.7264C191.058 8.06773 191.122 8.45173 191.122 8.8784C191.122 9.11733 191.096 9.34773 191.045 9.5696C190.994 9.78293 190.947 9.94933 190.904 10.0688H186.859C186.782 10.6064 186.812 11.0459 186.949 11.3872C187.085 11.7285 187.294 11.9803 187.576 12.1424C187.866 12.296 188.19 12.3728 188.549 12.3728C188.796 12.3728 189.039 12.3216 189.278 12.2192C189.526 12.1083 189.748 11.9803 189.944 11.8352L190.328 12.488C190.081 12.6672 189.782 12.8251 189.432 12.9616C189.091 13.0896 188.719 13.1536 188.318 13.1536ZM186.962 9.4032H190.226C190.243 9.30933 190.255 9.2112 190.264 9.1088C190.281 9.0064 190.29 8.89973 190.29 8.7888C190.29 8.54987 190.251 8.328 190.174 8.1232C190.098 7.90987 189.97 7.7392 189.79 7.6112C189.62 7.47467 189.385 7.4064 189.086 7.4064C188.634 7.4064 188.207 7.58987 187.806 7.9568C187.405 8.3152 187.124 8.79733 186.962 9.4032ZM194.675 13L195.763 7.5728H194.957L195.098 6.8432L195.93 6.7792L196.135 5.7424C196.263 5.11093 196.493 4.62027 196.826 4.2704C197.159 3.912 197.585 3.7328 198.106 3.7328C198.328 3.7328 198.528 3.76267 198.707 3.8224C198.887 3.8736 199.053 3.94613 199.207 4.04L198.861 4.744C198.776 4.68427 198.673 4.63307 198.554 4.5904C198.443 4.54773 198.315 4.5264 198.17 4.5264C197.888 4.5264 197.658 4.63307 197.479 4.8464C197.308 5.05973 197.188 5.34987 197.12 5.7168L196.903 6.7792H198.157L198.003 7.5728H196.736L195.648 13H194.675ZM199.926 13.1536C199.406 13.1536 199.03 13.0128 198.8 12.7312C198.57 12.4496 198.454 12.0741 198.454 11.6048C198.454 11.4597 198.463 11.3232 198.48 11.1952C198.497 11.0587 198.523 10.9093 198.557 10.7472L199.35 6.7792H200.336L199.555 10.6192C199.521 10.7813 199.495 10.9179 199.478 11.0288C199.461 11.1312 199.453 11.2379 199.453 11.3488C199.453 11.9888 199.76 12.3088 200.374 12.3088C200.622 12.3088 200.895 12.2192 201.194 12.04C201.501 11.8608 201.842 11.5749 202.218 11.1824L203.101 6.7792H204.074L202.832 13H202.026L202.128 12.0528H202.077C201.735 12.3515 201.386 12.6117 201.027 12.8336C200.669 13.0469 200.302 13.1536 199.926 13.1536ZM205.895 13.1536C205.341 13.1536 205.063 12.8848 205.063 12.3472C205.063 12.2021 205.089 12.0229 205.14 11.8096L206.714 3.8864H207.7L206.1 11.8608C206.091 11.9205 206.083 11.9717 206.074 12.0144C206.074 12.0485 206.074 12.0784 206.074 12.104C206.074 12.2576 206.147 12.3344 206.292 12.3344C206.318 12.3344 206.343 12.3344 206.369 12.3344C206.394 12.3259 206.437 12.3131 206.497 12.296L206.51 13.0512C206.424 13.0853 206.335 13.1109 206.241 13.128C206.147 13.1451 206.032 13.1536 205.895 13.1536ZM209.07 13.1536C208.516 13.1536 208.238 12.8848 208.238 12.3472C208.238 12.2021 208.264 12.0229 208.315 11.8096L209.889 3.8864H210.875L209.275 11.8608C209.266 11.9205 209.258 11.9717 209.249 12.0144C209.249 12.0485 209.249 12.0784 209.249 12.104C209.249 12.2576 209.322 12.3344 209.467 12.3344C209.493 12.3344 209.518 12.3344 209.544 12.3344C209.569 12.3259 209.612 12.3131 209.672 12.296L209.685 13.0512C209.599 13.0853 209.51 13.1109 209.416 13.128C209.322 13.1451 209.207 13.1536 209.07 13.1536ZM213.963 13L215.051 7.5728H214.245L214.385 6.8432L215.217 6.7792L215.422 5.7424C215.55 5.11093 215.781 4.62027 216.113 4.2704C216.446 3.912 216.873 3.7328 217.393 3.7328C217.615 3.7328 217.816 3.76267 217.995 3.8224C218.174 3.8736 218.341 3.94613 218.494 4.04L218.149 4.744C218.063 4.68427 217.961 4.63307 217.841 4.5904C217.73 4.54773 217.602 4.5264 217.457 4.5264C217.176 4.5264 216.945 4.63307 216.766 4.8464C216.595 5.05973 216.476 5.34987 216.408 5.7168L216.19 6.7792H217.445L217.291 7.5728H216.024L214.936 13H213.963ZM219.191 13.1536C218.645 13.1536 218.21 12.9616 217.886 12.5776C217.561 12.1851 217.399 11.6261 217.399 10.9008C217.399 10.3035 217.493 9.7488 217.681 9.2368C217.869 8.71627 218.12 8.25973 218.436 7.8672C218.752 7.47467 219.11 7.17173 219.511 6.9584C219.912 6.73653 220.33 6.6256 220.766 6.6256C221.098 6.6256 221.393 6.71093 221.649 6.8816C221.913 7.05227 222.118 7.2784 222.263 7.56H222.314L222.558 6.7792H223.351L222.11 13H221.303L221.406 12.0784H221.354C221.056 12.3941 220.719 12.6544 220.343 12.8592C219.968 13.0555 219.584 13.1536 219.191 13.1536ZM219.55 12.3344C219.874 12.3344 220.202 12.2363 220.535 12.04C220.877 11.8437 221.201 11.5451 221.508 11.144L222.071 8.3664C221.892 8.04213 221.696 7.80747 221.482 7.6624C221.269 7.51733 221.043 7.4448 220.804 7.4448C220.497 7.4448 220.198 7.5344 219.908 7.7136C219.626 7.8928 219.37 8.14027 219.14 8.456C218.918 8.7632 218.739 9.11733 218.602 9.5184C218.474 9.91093 218.41 10.3205 218.41 10.7472C218.41 11.2848 218.513 11.6859 218.718 11.9504C218.931 12.2064 219.208 12.3344 219.55 12.3344ZM224.172 13L225.413 6.7792H226.399L225.145 13H224.172ZM226.233 5.4864C226.07 5.4864 225.925 5.43947 225.797 5.3456C225.669 5.2432 225.605 5.09813 225.605 4.9104C225.605 4.69707 225.678 4.52213 225.823 4.3856C225.977 4.24053 226.152 4.168 226.348 4.168C226.518 4.168 226.664 4.2192 226.783 4.3216C226.911 4.424 226.975 4.56907 226.975 4.7568C226.975 4.97013 226.898 5.14507 226.745 5.2816C226.6 5.41813 226.429 5.4864 226.233 5.4864ZM229.181 13.1536C228.634 13.1536 228.25 13.0213 228.029 12.7568C227.807 12.4837 227.696 12.1552 227.696 11.7712C227.696 11.6432 227.704 11.5237 227.721 11.4128C227.738 11.3019 227.751 11.1909 227.76 11.08L228.489 7.5728H227.581L227.721 6.8432L228.694 6.7792L229.155 5.064H229.987L229.641 6.7792H231.216L231.062 7.5728H229.462L228.733 11.1312C228.707 11.2848 228.694 11.4384 228.694 11.592C228.694 11.848 228.754 12.04 228.873 12.168C228.993 12.296 229.198 12.36 229.488 12.36C229.607 12.36 229.722 12.3387 229.833 12.296C229.944 12.2533 230.047 12.2107 230.141 12.168L230.358 12.872C230.222 12.9317 230.051 12.9915 229.846 13.0512C229.65 13.1195 229.428 13.1536 229.181 13.1536ZM231.372 13L233.189 3.8864H234.175L233.561 6.8944L233.356 7.6752H233.407C233.757 7.37653 234.107 7.12907 234.457 6.9328C234.806 6.728 235.169 6.6256 235.545 6.6256C236.074 6.6256 236.449 6.7664 236.671 7.048C236.901 7.32107 237.017 7.69653 237.017 8.1744C237.017 8.43893 236.982 8.7248 236.914 9.032L236.121 13H235.148L235.916 9.16C235.95 8.98933 235.976 8.8528 235.993 8.7504C236.01 8.648 236.018 8.54133 236.018 8.4304C236.018 7.7904 235.711 7.4704 235.097 7.4704C234.858 7.4704 234.585 7.56 234.277 7.7392C233.97 7.9184 233.62 8.20427 233.228 8.5968L232.345 13H231.372ZM242.529 13.1536C241.983 13.1536 241.547 12.9616 241.223 12.5776C240.899 12.1851 240.737 11.6261 240.737 10.9008C240.737 10.3035 240.831 9.7488 241.018 9.2368C241.206 8.71627 241.458 8.25973 241.774 7.8672C242.089 7.47467 242.448 7.17173 242.849 6.9584C243.25 6.73653 243.668 6.6256 244.103 6.6256C244.436 6.6256 244.73 6.71093 244.986 6.8816C245.251 7.05227 245.456 7.2784 245.601 7.56H245.652L245.895 6.7792H246.689L245.447 13H244.641L244.743 12.0784H244.692C244.393 12.3941 244.056 12.6544 243.681 12.8592C243.305 13.0555 242.921 13.1536 242.529 13.1536ZM242.887 12.3344C243.211 12.3344 243.54 12.2363 243.873 12.04C244.214 11.8437 244.538 11.5451 244.846 11.144L245.409 8.3664C245.23 8.04213 245.033 7.80747 244.82 7.6624C244.607 7.51733 244.38 7.4448 244.142 7.4448C243.834 7.4448 243.536 7.5344 243.246 7.7136C242.964 7.8928 242.708 8.14027 242.478 8.456C242.256 8.7632 242.076 9.11733 241.94 9.5184C241.812 9.91093 241.748 10.3205 241.748 10.7472C241.748 11.2848 241.85 11.6859 242.055 11.9504C242.268 12.2064 242.546 12.3344 242.887 12.3344ZM247.509 13L248.751 6.7792H249.557L249.468 7.7136H249.519C249.869 7.4064 250.219 7.1504 250.569 6.9456C250.918 6.73227 251.29 6.6256 251.682 6.6256C252.211 6.6256 252.587 6.7664 252.809 7.048C253.039 7.32107 253.154 7.69653 253.154 8.1744C253.154 8.43893 253.12 8.7248 253.052 9.032L252.258 13H251.285L252.053 9.16C252.087 8.98933 252.113 8.8528 252.13 8.7504C252.147 8.648 252.156 8.54133 252.156 8.4304C252.156 7.7904 251.849 7.4704 251.234 7.4704C250.995 7.4704 250.722 7.56 250.415 7.7392C250.108 7.9184 249.758 8.20427 249.365 8.5968L248.482 13H247.509ZM256.129 13.1536C255.583 13.1536 255.147 12.9616 254.823 12.5776C254.499 12.1851 254.337 11.6261 254.337 10.9008C254.337 10.3035 254.431 9.7488 254.618 9.2368C254.806 8.71627 255.058 8.25973 255.373 7.8672C255.689 7.47467 256.048 7.17173 256.449 6.9584C256.85 6.73653 257.268 6.6256 257.703 6.6256C258.036 6.6256 258.326 6.71093 258.573 6.8816C258.821 7.04373 259.021 7.26133 259.175 7.5344H259.213L259.418 6.3184L259.905 3.8864H260.89L259.047 13H258.241L258.343 12.0784H258.292C257.993 12.3941 257.656 12.6544 257.281 12.8592C256.905 13.0555 256.521 13.1536 256.129 13.1536ZM256.487 12.3344C256.811 12.3344 257.14 12.2363 257.473 12.04C257.805 11.8437 258.13 11.5451 258.445 11.144L259.009 8.3664C258.829 8.04213 258.633 7.80747 258.42 7.6624C258.207 7.51733 257.98 7.4448 257.741 7.4448C257.434 7.4448 257.136 7.5344 256.845 7.7136C256.564 7.8928 256.308 8.14027 256.077 8.456C255.856 8.7632 255.676 9.11733 255.54 9.5184C255.412 9.91093 255.348 10.3205 255.348 10.7472C255.348 11.2848 255.45 11.6859 255.655 11.9504C255.868 12.2064 256.146 12.3344 256.487 12.3344ZM266.015 13.1536C265.341 13.1536 264.79 12.936 264.364 12.5008C263.937 12.0656 263.724 11.4512 263.724 10.6576C263.724 10.0773 263.817 9.544 264.005 9.0576C264.193 8.56267 264.449 8.136 264.773 7.7776C265.106 7.41067 265.477 7.12907 265.887 6.9328C266.305 6.728 266.74 6.6256 267.192 6.6256C267.568 6.6256 267.884 6.69813 268.14 6.8432C268.396 6.98827 268.617 7.16747 268.805 7.3808L268.229 7.9952C268.067 7.79893 267.905 7.65813 267.743 7.5728C267.581 7.47893 267.376 7.432 267.128 7.432C266.719 7.432 266.331 7.57707 265.964 7.8672C265.597 8.15733 265.298 8.54133 265.068 9.0192C264.837 9.49707 264.722 10.0219 264.722 10.5936C264.722 11.1568 264.841 11.5877 265.08 11.8864C265.328 12.1851 265.699 12.3344 266.194 12.3344C266.467 12.3344 266.719 12.2789 266.949 12.168C267.18 12.0571 267.389 11.9291 267.576 11.784L268.012 12.424C267.79 12.5947 267.512 12.7611 267.18 12.9232C266.855 13.0768 266.467 13.1536 266.015 13.1536ZM269.209 13L270.451 6.7792H271.257L271.117 7.9696H271.168C271.415 7.59413 271.701 7.2784 272.025 7.0224C272.35 6.75787 272.704 6.6256 273.088 6.6256C273.301 6.6256 273.497 6.664 273.677 6.7408L273.331 7.6112C273.194 7.54293 273.015 7.5088 272.793 7.5088C272.486 7.5088 272.17 7.64533 271.846 7.9184C271.522 8.18293 271.227 8.56693 270.963 9.0704L270.182 13H269.209ZM275.981 13.1536C275.247 13.1536 274.654 12.9275 274.202 12.4752C273.758 12.0229 273.536 11.3829 273.536 10.5552C273.536 9.9664 273.63 9.43307 273.818 8.9552C274.014 8.47733 274.27 8.06347 274.586 7.7136C274.91 7.36373 275.268 7.09493 275.661 6.9072C276.053 6.71947 276.455 6.6256 276.864 6.6256C277.333 6.6256 277.705 6.72373 277.978 6.92C278.259 7.11627 278.464 7.38507 278.592 7.7264C278.72 8.06773 278.784 8.45173 278.784 8.8784C278.784 9.11733 278.759 9.34773 278.707 9.5696C278.656 9.78293 278.609 9.94933 278.567 10.0688H274.522C274.445 10.6064 274.475 11.0459 274.611 11.3872C274.748 11.7285 274.957 11.9803 275.239 12.1424C275.529 12.296 275.853 12.3728 276.211 12.3728C276.459 12.3728 276.702 12.3216 276.941 12.2192C277.188 12.1083 277.41 11.9803 277.607 11.8352L277.991 12.488C277.743 12.6672 277.444 12.8251 277.095 12.9616C276.753 13.0896 276.382 13.1536 275.981 13.1536ZM274.624 9.4032H277.888C277.905 9.30933 277.918 9.2112 277.927 9.1088C277.944 9.0064 277.952 8.89973 277.952 8.7888C277.952 8.54987 277.914 8.328 277.837 8.1232C277.76 7.90987 277.632 7.7392 277.453 7.6112C277.282 7.47467 277.048 7.4064 276.749 7.4064C276.297 7.4064 275.87 7.58987 275.469 7.9568C275.068 8.3152 274.786 8.79733 274.624 9.4032ZM281.516 13.1536C280.97 13.1536 280.535 12.9616 280.211 12.5776C279.886 12.1851 279.724 11.6261 279.724 10.9008C279.724 10.3035 279.818 9.7488 280.006 9.2368C280.194 8.71627 280.445 8.25973 280.761 7.8672C281.077 7.47467 281.435 7.17173 281.836 6.9584C282.237 6.73653 282.655 6.6256 283.091 6.6256C283.423 6.6256 283.714 6.71093 283.961 6.8816C284.208 7.04373 284.409 7.26133 284.563 7.5344H284.601L284.806 6.3184L285.292 3.8864H286.278L284.435 13H283.628L283.731 12.0784H283.679C283.381 12.3941 283.044 12.6544 282.668 12.8592C282.293 13.0555 281.909 13.1536 281.516 13.1536ZM281.875 12.3344C282.199 12.3344 282.527 12.2363 282.86 12.04C283.193 11.8437 283.517 11.5451 283.833 11.144L284.396 8.3664C284.217 8.04213 284.021 7.80747 283.807 7.6624C283.594 7.51733 283.368 7.4448 283.129 7.4448C282.822 7.4448 282.523 7.5344 282.233 7.7136C281.951 7.8928 281.695 8.14027 281.465 8.456C281.243 8.7632 281.064 9.11733 280.927 9.5184C280.799 9.91093 280.735 10.3205 280.735 10.7472C280.735 11.2848 280.838 11.6859 281.043 11.9504C281.256 12.2064 281.533 12.3344 281.875 12.3344ZM286.472 13L287.713 6.7792H288.699L287.445 13H286.472ZM288.533 5.4864C288.37 5.4864 288.225 5.43947 288.097 5.3456C287.969 5.2432 287.905 5.09813 287.905 4.9104C287.905 4.69707 287.978 4.52213 288.123 4.3856C288.277 4.24053 288.452 4.168 288.648 4.168C288.818 4.168 288.964 4.2192 289.083 4.3216C289.211 4.424 289.275 4.56907 289.275 4.7568C289.275 4.97013 289.198 5.14507 289.045 5.2816C288.9 5.41813 288.729 5.4864 288.533 5.4864ZM291.481 13.1536C290.934 13.1536 290.55 13.0213 290.329 12.7568C290.107 12.4837 289.996 12.1552 289.996 11.7712C289.996 11.6432 290.004 11.5237 290.021 11.4128C290.038 11.3019 290.051 11.1909 290.06 11.08L290.789 7.5728H289.881L290.021 6.8432L290.994 6.7792L291.455 5.064H292.287L291.941 6.7792H293.516L293.362 7.5728H291.762L291.033 11.1312C291.007 11.2848 290.994 11.4384 290.994 11.592C290.994 11.848 291.054 12.04 291.173 12.168C291.293 12.296 291.498 12.36 291.788 12.36C291.907 12.36 292.022 12.3387 292.133 12.296C292.244 12.2533 292.347 12.2107 292.441 12.168L292.658 12.872C292.522 12.9317 292.351 12.9915 292.146 13.0512C291.95 13.1195 291.728 13.1536 291.481 13.1536ZM298.551 13.1536C297.877 13.1536 297.339 12.9317 296.938 12.488C296.537 12.0443 296.337 11.4341 296.337 10.6576C296.337 10.0688 296.431 9.5312 296.618 9.0448C296.806 8.54987 297.058 8.1232 297.373 7.7648C297.689 7.39787 298.048 7.11627 298.449 6.92C298.85 6.72373 299.264 6.6256 299.69 6.6256C300.364 6.6256 300.902 6.84747 301.303 7.2912C301.713 7.73493 301.917 8.34507 301.917 9.1216C301.917 9.7104 301.824 10.2523 301.636 10.7472C301.448 11.2336 301.192 11.6603 300.868 12.0272C300.552 12.3856 300.194 12.6629 299.793 12.8592C299.392 13.0555 298.978 13.1536 298.551 13.1536ZM298.653 12.3344C299.037 12.3344 299.4 12.1936 299.741 11.912C300.091 11.6304 300.373 11.2507 300.586 10.7728C300.808 10.2949 300.919 9.76587 300.919 9.1856C300.919 8.6224 300.804 8.19147 300.573 7.8928C300.343 7.5856 300.015 7.432 299.588 7.432C299.204 7.432 298.837 7.57707 298.487 7.8672C298.146 8.1488 297.864 8.52853 297.642 9.0064C297.429 9.48427 297.322 10.0133 297.322 10.5936C297.322 11.1568 297.437 11.5877 297.668 11.8864C297.898 12.1851 298.227 12.3344 298.653 12.3344ZM302.975 13L304.063 7.5728H303.257L303.398 6.8432L304.23 6.7792L304.435 5.7424C304.563 5.11093 304.793 4.62027 305.126 4.2704C305.459 3.912 305.885 3.7328 306.406 3.7328C306.628 3.7328 306.828 3.76267 307.007 3.8224C307.187 3.8736 307.353 3.94613 307.507 4.04L307.161 4.744C307.076 4.68427 306.973 4.63307 306.854 4.5904C306.743 4.54773 306.615 4.5264 306.47 4.5264C306.188 4.5264 305.958 4.63307 305.779 4.8464C305.608 5.05973 305.488 5.34987 305.42 5.7168L305.203 6.7792H306.457L306.303 7.5728H305.036L303.948 13H302.975ZM310.968 13.1536C310.422 13.1536 310.038 13.0213 309.816 12.7568C309.594 12.4837 309.483 12.1552 309.483 11.7712C309.483 11.6432 309.492 11.5237 309.509 11.4128C309.526 11.3019 309.539 11.1909 309.547 11.08L310.277 7.5728H309.368L309.509 6.8432L310.482 6.7792L310.942 5.064H311.774L311.429 6.7792H313.003L312.85 7.5728H311.25L310.52 11.1312C310.494 11.2848 310.482 11.4384 310.482 11.592C310.482 11.848 310.541 12.04 310.661 12.168C310.78 12.296 310.985 12.36 311.275 12.36C311.395 12.36 311.51 12.3387 311.621 12.296C311.732 12.2533 311.834 12.2107 311.928 12.168L312.146 12.872C312.009 12.9317 311.838 12.9915 311.634 13.0512C311.437 13.1195 311.215 13.1536 310.968 13.1536ZM313.159 13L314.977 3.8864H315.963L315.348 6.8944L315.143 7.6752H315.195C315.544 7.37653 315.894 7.12907 316.244 6.9328C316.594 6.728 316.957 6.6256 317.332 6.6256C317.861 6.6256 318.237 6.7664 318.459 7.048C318.689 7.32107 318.804 7.69653 318.804 8.1744C318.804 8.43893 318.77 8.7248 318.702 9.032L317.908 13H316.935L317.703 9.16C317.737 8.98933 317.763 8.8528 317.78 8.7504C317.797 8.648 317.806 8.54133 317.806 8.4304C317.806 7.7904 317.499 7.4704 316.884 7.4704C316.645 7.4704 316.372 7.56 316.065 7.7392C315.758 7.9184 315.408 8.20427 315.015 8.5968L314.132 13H313.159ZM322.381 13.1536C321.647 13.1536 321.054 12.9275 320.602 12.4752C320.158 12.0229 319.936 11.3829 319.936 10.5552C319.936 9.9664 320.03 9.43307 320.218 8.9552C320.414 8.47733 320.67 8.06347 320.986 7.7136C321.31 7.36373 321.668 7.09493 322.061 6.9072C322.453 6.71947 322.854 6.6256 323.264 6.6256C323.733 6.6256 324.105 6.72373 324.378 6.92C324.659 7.11627 324.864 7.38507 324.992 7.7264C325.12 8.06773 325.184 8.45173 325.184 8.8784C325.184 9.11733 325.158 9.34773 325.107 9.5696C325.056 9.78293 325.009 9.94933 324.966 10.0688H320.922C320.845 10.6064 320.875 11.0459 321.011 11.3872C321.148 11.7285 321.357 11.9803 321.638 12.1424C321.929 12.296 322.253 12.3728 322.611 12.3728C322.859 12.3728 323.102 12.3216 323.341 12.2192C323.588 12.1083 323.81 11.9803 324.006 11.8352L324.39 12.488C324.143 12.6672 323.844 12.8251 323.494 12.9616C323.153 13.0896 322.782 13.1536 322.381 13.1536ZM321.024 9.4032H324.288C324.305 9.30933 324.318 9.2112 324.326 9.1088C324.344 9.0064 324.352 8.89973 324.352 8.7888C324.352 8.54987 324.314 8.328 324.237 8.1232C324.16 7.90987 324.032 7.7392 323.853 7.6112C323.682 7.47467 323.448 7.4064 323.149 7.4064C322.697 7.4064 322.27 7.58987 321.869 7.9568C321.468 8.3152 321.186 8.79733 321.024 9.4032ZM331.848 13.1536C330.995 13.1536 330.338 12.9317 329.877 12.488C329.425 12.0357 329.199 11.3744 329.199 10.504C329.199 10.3248 329.212 10.1371 329.237 9.9408C329.263 9.736 329.293 9.52693 329.327 9.3136L330.274 4.6032H331.272L330.312 9.4032C330.236 9.7872 330.197 10.1243 330.197 10.4144C330.197 11.0117 330.334 11.4768 330.607 11.8096C330.88 12.1339 331.311 12.296 331.9 12.296C332.377 12.296 332.808 12.0997 333.192 11.7072C333.576 11.3147 333.858 10.6619 334.037 9.7488L335.074 4.6032H336.047L334.997 9.7872C334.758 10.9989 334.361 11.8651 333.807 12.3856C333.252 12.8976 332.599 13.1536 331.848 13.1536ZM336.846 13.1536C336.658 13.1536 336.509 13.0939 336.398 12.9744C336.296 12.8549 336.244 12.7013 336.244 12.5136C336.244 12.2917 336.325 12.0869 336.488 11.8992C336.658 11.7115 336.863 11.6176 337.102 11.6176C337.29 11.6176 337.435 11.6816 337.537 11.8096C337.64 11.9291 337.691 12.0827 337.691 12.2704C337.691 12.4837 337.61 12.6843 337.448 12.872C337.294 13.0597 337.093 13.1536 336.846 13.1536ZM342.007 13.1536C341.435 13.1536 340.91 13.0299 340.432 12.7824C339.955 12.5349 339.545 12.1637 339.204 11.6688L339.933 11.1184C340.181 11.4853 340.484 11.7755 340.842 11.9888C341.209 12.2021 341.627 12.3088 342.096 12.3088C342.608 12.3088 343.035 12.1637 343.376 11.8736C343.726 11.5835 343.901 11.1995 343.901 10.7216C343.901 10.4144 343.803 10.1541 343.607 9.9408C343.419 9.72747 343.167 9.52693 342.852 9.3392L341.879 8.7504C341.52 8.52853 341.213 8.264 340.957 7.9568C340.71 7.64107 340.586 7.24853 340.586 6.7792C340.586 6.35253 340.697 5.96427 340.919 5.6144C341.149 5.26453 341.461 4.98293 341.853 4.7696C342.246 4.55627 342.694 4.4496 343.197 4.4496C343.701 4.4496 344.157 4.56053 344.567 4.7824C344.976 5.00427 345.313 5.28587 345.578 5.6272L344.925 6.216C344.712 5.96 344.456 5.74667 344.157 5.576C343.859 5.3968 343.513 5.3072 343.12 5.3072C342.805 5.3072 342.532 5.37547 342.301 5.512C342.079 5.64 341.904 5.8064 341.776 6.0112C341.657 6.216 341.597 6.4336 341.597 6.664C341.597 6.98827 341.7 7.2528 341.904 7.4576C342.118 7.65387 342.378 7.84587 342.685 8.0336L343.658 8.6096C344.059 8.84853 344.371 9.1216 344.592 9.4288C344.814 9.72747 344.925 10.1115 344.925 10.5808C344.925 11.0757 344.797 11.5195 344.541 11.912C344.294 12.296 343.952 12.5989 343.517 12.8208C343.082 13.0427 342.579 13.1536 342.007 13.1536ZM346.421 13.1536C346.233 13.1536 346.084 13.0939 345.973 12.9744C345.871 12.8549 345.819 12.7013 345.819 12.5136C345.819 12.2917 345.9 12.0869 346.063 11.8992C346.233 11.7115 346.438 11.6176 346.677 11.6176C346.865 11.6176 347.01 11.6816 347.112 11.8096C347.215 11.9291 347.266 12.0827 347.266 12.2704C347.266 12.4837 347.185 12.6843 347.023 12.872C346.869 13.0597 346.668 13.1536 346.421 13.1536ZM355.028 13.1536C354.021 13.1536 353.248 12.8464 352.711 12.232C352.182 11.6091 351.917 10.7856 351.917 9.7616C351.917 9.096 352.02 8.44747 352.224 7.816C352.429 7.18453 352.724 6.61707 353.108 6.1136C353.5 5.6016 353.969 5.19627 354.516 4.8976C355.07 4.59893 355.693 4.4496 356.384 4.4496C356.888 4.4496 357.31 4.56907 357.652 4.808C358.001 5.0384 358.283 5.3328 358.496 5.6912L357.792 6.216C357.63 5.94293 357.43 5.72533 357.191 5.5632C356.96 5.39253 356.674 5.3072 356.333 5.3072C355.804 5.3072 355.33 5.43947 354.912 5.704C354.494 5.96 354.136 6.30133 353.837 6.728C353.547 7.15467 353.325 7.624 353.172 8.136C353.018 8.648 352.941 9.16 352.941 9.672C352.941 10.1669 353.014 10.6149 353.159 11.016C353.312 11.4171 353.551 11.7328 353.876 11.9632C354.2 12.1936 354.631 12.3088 355.168 12.3088C355.476 12.3088 355.749 12.2576 355.988 12.1552C356.235 12.0528 356.44 11.9333 356.602 11.7968L357.076 9.48H355.335L355.501 8.6608H358.138L357.408 12.296C357.101 12.552 356.747 12.7611 356.346 12.9232C355.945 13.0768 355.505 13.1536 355.028 13.1536ZM361.426 13.1536C360.752 13.1536 360.214 12.9317 359.813 12.488C359.412 12.0443 359.212 11.4341 359.212 10.6576C359.212 10.0688 359.306 9.5312 359.493 9.0448C359.681 8.54987 359.933 8.1232 360.248 7.7648C360.564 7.39787 360.923 7.11627 361.324 6.92C361.725 6.72373 362.139 6.6256 362.565 6.6256C363.239 6.6256 363.777 6.84747 364.178 7.2912C364.588 7.73493 364.792 8.34507 364.792 9.1216C364.792 9.7104 364.699 10.2523 364.511 10.7472C364.323 11.2336 364.067 11.6603 363.743 12.0272C363.427 12.3856 363.069 12.6629 362.668 12.8592C362.267 13.0555 361.853 13.1536 361.426 13.1536ZM361.528 12.3344C361.912 12.3344 362.275 12.1936 362.616 11.912C362.966 11.6304 363.248 11.2507 363.461 10.7728C363.683 10.2949 363.794 9.76587 363.794 9.1856C363.794 8.6224 363.679 8.19147 363.448 7.8928C363.218 7.5856 362.89 7.432 362.463 7.432C362.079 7.432 361.712 7.57707 361.362 7.8672C361.021 8.1488 360.739 8.52853 360.517 9.0064C360.304 9.48427 360.197 10.0133 360.197 10.5936C360.197 11.1568 360.312 11.5877 360.543 11.8864C360.773 12.1851 361.102 12.3344 361.528 12.3344ZM366.827 13L365.918 6.7792H366.891L367.351 10.376C367.385 10.6747 367.415 10.9861 367.441 11.3104C367.467 11.6261 367.496 11.9333 367.531 12.232H367.582C367.727 11.9248 367.876 11.6176 368.03 11.3104C368.183 10.9947 368.341 10.6832 368.503 10.376L370.334 6.7792H371.319L368.004 13H366.827ZM373.768 13.1536C373.035 13.1536 372.441 12.9275 371.989 12.4752C371.545 12.0229 371.324 11.3829 371.324 10.5552C371.324 9.9664 371.417 9.43307 371.605 8.9552C371.801 8.47733 372.057 8.06347 372.373 7.7136C372.697 7.36373 373.056 7.09493 373.448 6.9072C373.841 6.71947 374.242 6.6256 374.652 6.6256C375.121 6.6256 375.492 6.72373 375.765 6.92C376.047 7.11627 376.252 7.38507 376.38 7.7264C376.508 8.06773 376.572 8.45173 376.572 8.8784C376.572 9.11733 376.546 9.34773 376.495 9.5696C376.444 9.78293 376.397 9.94933 376.354 10.0688H372.309C372.232 10.6064 372.262 11.0459 372.399 11.3872C372.535 11.7285 372.744 11.9803 373.026 12.1424C373.316 12.296 373.64 12.3728 373.999 12.3728C374.246 12.3728 374.489 12.3216 374.728 12.2192C374.976 12.1083 375.198 11.9803 375.394 11.8352L375.778 12.488C375.531 12.6672 375.232 12.8251 374.882 12.9616C374.541 13.0896 374.169 13.1536 373.768 13.1536ZM372.412 9.4032H375.676C375.693 9.30933 375.705 9.2112 375.714 9.1088C375.731 9.0064 375.74 8.89973 375.74 8.7888C375.74 8.54987 375.701 8.328 375.624 8.1232C375.548 7.90987 375.42 7.7392 375.24 7.6112C375.07 7.47467 374.835 7.4064 374.536 7.4064C374.084 7.4064 373.657 7.58987 373.256 7.9568C372.855 8.3152 372.574 8.79733 372.412 9.4032ZM377.409 13L378.651 6.7792H379.457L379.317 7.9696H379.368C379.615 7.59413 379.901 7.2784 380.225 7.0224C380.55 6.75787 380.904 6.6256 381.288 6.6256C381.501 6.6256 381.697 6.664 381.877 6.7408L381.531 7.6112C381.394 7.54293 381.215 7.5088 380.993 7.5088C380.686 7.5088 380.37 7.64533 380.046 7.9184C379.722 8.18293 379.427 8.56693 379.163 9.0704L378.382 13H377.409ZM381.784 13L383.026 6.7792H383.832L383.743 7.7136H383.794C384.144 7.4064 384.494 7.1504 384.844 6.9456C385.193 6.73227 385.565 6.6256 385.957 6.6256C386.486 6.6256 386.862 6.7664 387.084 7.048C387.314 7.32107 387.429 7.69653 387.429 8.1744C387.429 8.43893 387.395 8.7248 387.327 9.032L386.533 13H385.56L386.328 9.16C386.362 8.98933 386.388 8.8528 386.405 8.7504C386.422 8.648 386.431 8.54133 386.431 8.4304C386.431 7.7904 386.124 7.4704 385.509 7.4704C385.27 7.4704 384.997 7.56 384.69 7.7392C384.383 7.9184 384.033 8.20427 383.64 8.5968L382.757 13H381.784ZM388.509 13L389.751 6.7792H390.557L390.468 7.7136H390.519C390.843 7.4064 391.18 7.1504 391.53 6.9456C391.888 6.73227 392.23 6.6256 392.554 6.6256C393.049 6.6256 393.399 6.74507 393.604 6.984C393.817 7.2144 393.945 7.50027 393.988 7.8416C394.389 7.46613 394.777 7.17173 395.152 6.9584C395.528 6.73653 395.874 6.6256 396.189 6.6256C396.71 6.6256 397.085 6.7664 397.316 7.048C397.546 7.32107 397.661 7.69653 397.661 8.1744C397.661 8.31947 397.653 8.456 397.636 8.584C397.619 8.712 397.593 8.86133 397.559 9.032L396.765 13H395.78L396.56 9.16C396.595 8.98933 396.62 8.8528 396.637 8.7504C396.654 8.648 396.663 8.54133 396.663 8.4304C396.663 7.7904 396.36 7.4704 395.754 7.4704C395.575 7.4704 395.332 7.56 395.024 7.7392C394.717 7.9184 394.376 8.20427 394 8.5968L393.117 13H392.144L392.912 9.16C392.947 8.98933 392.972 8.8528 392.989 8.7504C393.006 8.648 393.015 8.54133 393.015 8.4304C393.015 7.7904 392.716 7.4704 392.119 7.4704C391.931 7.4704 391.684 7.56 391.376 7.7392C391.069 7.9184 390.732 8.20427 390.365 8.5968L389.482 13H388.509ZM401.256 13.1536C400.522 13.1536 399.929 12.9275 399.477 12.4752C399.033 12.0229 398.811 11.3829 398.811 10.5552C398.811 9.9664 398.905 9.43307 399.093 8.9552C399.289 8.47733 399.545 8.06347 399.861 7.7136C400.185 7.36373 400.543 7.09493 400.936 6.9072C401.328 6.71947 401.729 6.6256 402.139 6.6256C402.608 6.6256 402.98 6.72373 403.253 6.92C403.534 7.11627 403.739 7.38507 403.867 7.7264C403.995 8.06773 404.059 8.45173 404.059 8.8784C404.059 9.11733 404.033 9.34773 403.982 9.5696C403.931 9.78293 403.884 9.94933 403.841 10.0688H399.797C399.72 10.6064 399.75 11.0459 399.886 11.3872C400.023 11.7285 400.232 11.9803 400.513 12.1424C400.804 12.296 401.128 12.3728 401.486 12.3728C401.734 12.3728 401.977 12.3216 402.216 12.2192C402.463 12.1083 402.685 11.9803 402.881 11.8352L403.265 12.488C403.018 12.6672 402.719 12.8251 402.369 12.9616C402.028 13.0896 401.657 13.1536 401.256 13.1536ZM399.899 9.4032H403.163C403.18 9.30933 403.193 9.2112 403.201 9.1088C403.219 9.0064 403.227 8.89973 403.227 8.7888C403.227 8.54987 403.189 8.328 403.112 8.1232C403.035 7.90987 402.907 7.7392 402.728 7.6112C402.557 7.47467 402.323 7.4064 402.024 7.4064C401.572 7.4064 401.145 7.58987 400.744 7.9568C400.343 8.3152 400.061 8.79733 399.899 9.4032ZM404.897 13L406.138 6.7792H406.945L406.855 7.7136H406.906C407.256 7.4064 407.606 7.1504 407.956 6.9456C408.306 6.73227 408.677 6.6256 409.07 6.6256C409.599 6.6256 409.974 6.7664 410.196 7.048C410.426 7.32107 410.542 7.69653 410.542 8.1744C410.542 8.43893 410.507 8.7248 410.439 9.032L409.646 13H408.673L409.441 9.16C409.475 8.98933 409.501 8.8528 409.518 8.7504C409.535 8.648 409.543 8.54133 409.543 8.4304C409.543 7.7904 409.236 7.4704 408.622 7.4704C408.383 7.4704 408.11 7.56 407.802 7.7392C407.495 7.9184 407.145 8.20427 406.753 8.5968L405.87 13H404.897ZM413.593 13.1536C413.047 13.1536 412.663 13.0213 412.441 12.7568C412.219 12.4837 412.108 12.1552 412.108 11.7712C412.108 11.6432 412.117 11.5237 412.134 11.4128C412.151 11.3019 412.164 11.1909 412.172 11.08L412.902 7.5728H411.993L412.134 6.8432L413.107 6.7792L413.567 5.064H414.399L414.054 6.7792H415.628L415.475 7.5728H413.875L413.145 11.1312C413.119 11.2848 413.107 11.4384 413.107 11.592C413.107 11.848 413.166 12.04 413.286 12.168C413.405 12.296 413.61 12.36 413.9 12.36C414.02 12.36 414.135 12.3387 414.246 12.296C414.357 12.2533 414.459 12.2107 414.553 12.168L414.771 12.872C414.634 12.9317 414.463 12.9915 414.259 13.0512C414.062 13.1195 413.84 13.1536 413.593 13.1536Z" fill="black"/>
</g>
</g>
<defs>
<clipPath id="clip0_9459_4395">
<rect width="1440" height="16" fill="white"/>
</clipPath>
<clipPath id="clip1_9459_4395">
<rect width="37.36" height="15.74" fill="white" transform="matrix(1 0 0 -1 0 15.8701)"/>
</clipPath>
<clipPath id="clip2_9459_4395">
<rect width="373" height="16" fill="white" transform="matrix(1 0 0 -1 43 16)"/>
</clipPath>
</defs>
</svg>
