<svg width="48" height="48" viewBox="0 0 48 48" fill="none" xmlns="http://www.w3.org/2000/svg">
<circle cx="24" cy="24" r="24" fill="#111111"/>
<path fill-rule="evenodd" clip-rule="evenodd" d="M21.7234 13L14.9143 14.7831L13.0384 21.6301L15.3852 24.0396L13 26.4093L14.7659 33.2866L21.5451 35.1808L23.9303 32.8105L26.277 35.2195L33.0857 33.4364L34.9616 26.5885L32.6153 24.18L35 21.8102L33.2345 14.933L26.4544 13.0388L24.0702 15.4085L21.7234 13ZM17.5447 16.1001L21.1314 15.1604L22.6998 16.7705L20.4124 19.0433L17.5447 16.1001ZM25.4182 16.7922L27.0119 15.2086L30.5831 16.2065L27.6685 19.1024L25.4182 16.7922ZM15.1872 21.068L16.1752 17.4616L19.042 20.4048L16.7551 22.6776L15.1872 21.068ZM29.0165 20.4861L31.931 17.5897L32.8606 21.2127L31.2673 22.7963L29.0165 20.4861ZM21.7609 20.427L24.0482 18.1541L26.2981 20.4643L24.0112 22.7372L21.7609 20.427ZM18.1036 24.0613L20.3904 21.7884L22.6413 24.0987L20.3539 26.3715L18.1036 24.0613ZM25.3597 24.1209L27.6465 21.848L29.8969 24.1582L27.6096 26.4311L25.3597 24.1209ZM15.1394 27.0069L16.7336 25.4228L18.9835 27.7334L16.0699 30.6289L15.1394 27.0069ZM21.7019 27.7552L23.9892 25.4823L26.2396 27.7925L23.9527 30.0654L21.7019 27.7552ZM28.9575 27.8148L31.2449 25.5419L32.8133 27.1515L31.8252 30.7579L28.9575 27.8148ZM17.4174 32.013L20.3315 29.1166L22.5823 31.4268L20.9886 33.011L17.4174 32.013ZM25.3007 31.4491L27.5876 29.1762L30.4548 32.1194L26.8687 33.0587L25.3007 31.4491Z" fill="white"/>
</svg>
