<svg width="272" height="145" viewBox="0 0 272 145" fill="none" xmlns="http://www.w3.org/2000/svg">
<g clip-path="url(#clip0_522_31072)">
<path d="M94.02 91.8533C89.4895 87.8002 82.9242 85.4757 76.0074 85.4757L75.7406 85.4763C71.1847 85.4779 66.7101 84.4296 62.7745 82.4389L62.3649 82.2319L62.6948 81.937C64.4805 80.3343 65.9717 78.503 67.1159 76.5073C66.3032 77.1645 65.334 77.6587 64.2767 77.955C63.2195 78.2513 62.1001 78.3424 60.9977 78.2218C59.8339 78.1014 58.7167 77.754 57.7298 77.2057C56.7428 76.6573 55.9118 75.9222 55.2991 75.0555C52.8817 71.6529 50 66.825 50 63.1471C50.0038 60.0383 50.7541 56.9642 52.2033 54.1209C53.6525 51.2776 55.7687 48.7274 58.4169 46.6328C60.0935 45.3215 61.4327 43.7183 62.3471 41.9278C63.2616 40.1374 63.7307 38.1998 63.7241 36.2415L63.7227 35.9629C63.7223 33.3846 64.0855 30.8161 64.8042 28.3144L64.8772 28.0617L65.1768 28.0708C67.109 28.1279 69.0423 27.9874 70.9366 27.6522C69.1597 27.4632 67.4215 27.0621 65.7711 26.4605L65.4487 26.3473L65.5581 26.0608C73.099 22.0106 90.1208 24.108 100.001 4.49925C108.012 -11.4008 136.279 18.6137 136.279 35.9629C136.279 37.7331 134.259 40.0725 135.771 41.2426C152.115 53.891 140.838 62.0131 137.282 70.1858C136.439 72.1249 138.268 74.2536 138.268 76.3515C138.268 76.7074 138.257 77.0749 138.237 77.4436L138.205 78.0104L137.66 77.6959C136.582 77.0833 135.583 76.3722 134.68 75.575C135.617 77.446 136.059 79.4755 135.972 81.5142C135.886 83.5529 135.274 85.5488 134.181 87.3552C132.468 90.1594 130.811 92.167 129.256 93.3218C124.274 97.0201 117.851 98.9278 111.302 98.6548C104.752 98.3819 98.5703 95.9488 94.02 91.8533Z" fill="#E6E6E6"/>
<path d="M121.577 145.618C121.688 145.618 121.796 145.578 121.881 145.506C121.965 145.433 122.02 145.334 122.036 145.225C122.056 145.088 123.987 131.362 122.252 113.119C120.65 96.2705 115.505 72.0034 100.093 52.0732C100.056 52.0254 100.01 51.9851 99.9568 51.9548C99.9041 51.9246 99.8459 51.9048 99.7854 51.8967C99.725 51.8886 99.6635 51.8924 99.6045 51.9077C99.5455 51.9231 99.4902 51.9497 99.4416 51.9862C99.3931 52.0226 99.3523 52.0681 99.3217 52.1201C99.291 52.172 99.2711 52.2295 99.2629 52.289C99.2548 52.3486 99.2587 52.4092 99.2743 52.4673C99.29 52.5254 99.3171 52.5799 99.3541 52.6276C114.634 72.3857 119.737 96.4748 121.328 113.204C123.053 131.341 121.136 144.96 121.117 145.096C121.107 145.161 121.112 145.227 121.131 145.29C121.15 145.353 121.182 145.411 121.226 145.46C121.27 145.51 121.323 145.549 121.384 145.577C121.445 145.604 121.51 145.618 121.577 145.618Z" fill="#3F3D56"/>
<path d="M108.999 80.1855C109.097 80.1856 109.193 80.1551 109.272 80.0984C109.352 80.0416 109.411 79.9616 109.441 79.8697C109.472 79.7778 109.472 79.6789 109.441 79.587C109.411 79.4951 109.352 79.415 109.273 79.3582C109.217 79.3182 103.578 75.3152 95.1491 72.2741C87.3569 69.4632 75.5076 66.915 63.309 70.7403C63.2509 70.7585 63.1969 70.7877 63.1502 70.8265C63.1035 70.8652 63.065 70.9126 63.037 70.9659C63.0089 71.0193 62.9918 71.0776 62.9866 71.1375C62.9814 71.1974 62.9883 71.2577 63.0068 71.315C63.0253 71.3723 63.0551 71.4255 63.0944 71.4714C63.1338 71.5173 63.182 71.5552 63.2362 71.5827C63.2904 71.6103 63.3496 71.6271 63.4104 71.6321C63.4712 71.6371 63.5324 71.6302 63.5905 71.6119C75.5392 67.8651 87.1736 70.3713 94.8299 73.1332C103.139 76.1308 108.672 80.0588 108.727 80.0981C108.806 80.155 108.901 80.1856 108.999 80.1855Z" fill="#3F3D56"/>
<path d="M130.244 28.0502C130.251 27.9539 130.227 27.8578 130.175 27.7757C130.124 27.6936 130.047 27.6298 129.956 27.5933C129.865 27.5569 129.765 27.5497 129.67 27.5729C129.575 27.596 129.489 27.6482 129.426 27.7221C129.382 27.7742 124.923 33.0271 121.238 41.092C117.831 48.5474 114.399 60.0088 117.392 72.2725C117.421 72.3904 117.496 72.4922 117.601 72.5556C117.706 72.6189 117.833 72.6385 117.952 72.6102C118.072 72.5818 118.175 72.5078 118.24 72.4043C118.304 72.3009 118.324 72.1765 118.295 72.0586C115.363 60.0461 118.737 48.7928 122.085 41.4675C125.717 33.5177 130.092 28.3629 130.136 28.3117C130.199 28.2381 130.237 28.1465 130.244 28.0502Z" fill="#3F3D56"/>
<path d="M157.019 50.6264C157.41 53.7398 159.6 56.3068 162.784 56.3068C164.313 56.3068 165.779 55.7083 166.86 54.643C167.941 53.5778 168.549 52.1329 168.549 50.6264C168.549 47.4892 165.954 45.2361 162.784 44.946C159.42 44.6383 156.516 46.6292 157.019 50.6264Z" fill="#2F2E41"/>
<path d="M165.454 142.108L167.649 142.108L168.694 133.765L165.453 133.765L165.454 142.108Z" fill="#FFB6B6"/>
<path d="M165.377 144.366L172.128 144.365V144.281C172.128 143.595 171.851 142.936 171.358 142.451C170.865 141.965 170.197 141.692 169.5 141.692H169.5L168.267 140.771L165.966 141.692L165.377 141.692L165.377 144.366Z" fill="#2F2E41"/>
<path d="M156.806 142.108L159.002 142.108L160.046 133.765L156.806 133.765L156.806 142.108Z" fill="#FFB6B6"/>
<path d="M156.729 144.366L163.48 144.365V144.281C163.48 143.595 163.203 142.936 162.711 142.451C162.218 141.965 161.549 141.692 160.853 141.692H160.852L159.619 140.771L157.318 141.692L156.729 141.692L156.729 144.366Z" fill="#2F2E41"/>
<path d="M173.009 89.8515L174.561 95.0949L172.732 117.302C172.732 117.302 173.674 118.69 173.009 118.69C172.344 118.69 171.491 118.998 172.028 119.827C172.565 120.657 170.729 123.633 170.729 123.633L168.131 139.445L164.82 139.397C164.82 139.397 163.137 138.473 164.082 137.539C165.026 136.605 165.692 136.605 164.805 135.731C163.918 134.857 163.918 135.121 163.918 134.443C163.918 133.765 163.029 125.482 165.136 122.305L164.501 109.35L163.006 122.057L159.927 139.008L156.738 138.983C156.738 138.983 155.265 137.584 155.267 136.548C155.27 135.513 156.178 135.427 155.502 134.814C154.827 134.202 154.827 124.794 156.822 119.564C156.822 119.564 157.951 116.642 156.82 115.641C155.688 114.64 156.818 113.494 156.818 113.494C156.818 113.494 158.61 112.856 156.817 111.017C155.023 109.178 156.807 96.1717 156.807 96.1717C156.807 96.1717 154.846 90.9216 156.832 88.8572C158.818 86.7928 173.009 89.8515 173.009 89.8515Z" fill="#2F2E41"/>
<path d="M145.364 98.8851L148.134 92.291L150.316 93.4854L148.998 100.193C149.13 100.618 149.139 101.071 149.024 101.501C148.909 101.931 148.675 102.32 148.347 102.626C148.02 102.932 147.613 103.141 147.171 103.231C146.729 103.322 146.271 103.289 145.847 103.136C145.424 102.984 145.052 102.718 144.773 102.368C144.494 102.019 144.32 101.6 144.27 101.158C144.22 100.716 144.296 100.27 144.489 99.8681C144.682 99.4665 144.986 99.1261 145.364 98.8851Z" fill="#FFB6B6"/>
<path d="M191.834 46.7419L187.62 52.5462L185.77 50.8959L188.596 44.6566C188.565 44.2133 188.66 43.7702 188.871 43.3773C189.082 42.9843 189.399 42.6571 189.788 42.4324C190.178 42.2077 190.623 42.0944 191.074 42.1052C191.524 42.116 191.963 42.2506 192.341 42.4937C192.718 42.7368 193.02 43.0789 193.211 43.4815C193.402 43.8841 193.475 44.3312 193.422 44.7725C193.37 45.2139 193.193 45.6321 192.912 45.98C192.632 46.3279 192.258 46.5917 191.834 46.7419Z" fill="#FFB6B6"/>
<path d="M173.427 90.3887C176.16 94.5656 162.422 99.8663 157.151 97.7382C156.228 97.3656 153.053 96.1348 155.223 94.4284C157.393 92.722 154.971 92.4819 154.914 91.3711C154.876 90.6284 155.459 88.9993 154.851 89.0692C154.242 89.139 153.529 88.112 154.855 87.67C156.181 87.2281 154.869 86.8251 154.881 86.4055C155.008 81.8273 158.573 74.5452 158.573 74.5452L152.149 90.7248C152.149 90.7248 152.196 93.5239 151.377 92.6686C150.558 91.8132 150.618 94.5817 150.618 94.5817C150.618 94.5817 149.399 95.4193 150.1 95.8855C150.8 96.3516 149.346 97.7848 149.346 97.7848L145.952 97.546C145.952 97.546 146.005 95.0618 146.584 94.5124C147.164 93.963 146.879 93.0985 146.879 93.0985C146.879 93.0985 148.388 91.7825 147.377 90.714C146.076 89.3398 150.819 66.129 152.456 66.3588C152.687 65.2491 153.225 64.224 154.011 63.3969C154.797 62.5698 155.8 61.9729 156.908 61.6722L160.574 60.6777L161.225 58.133H166.386L167.285 59.805L171.21 61.5499C171.949 60.5223 172.501 59.4395 175.528 59.0884C175.528 59.0884 183.684 51.7768 183.286 51.2058C182.887 50.6349 184.152 49.2983 184.152 49.2983C184.152 49.2983 185.231 48.9501 184.622 48.7642C184.013 48.5783 185.165 48.1485 185.165 48.1485C185.165 48.1485 186.231 47.8723 185.728 47.5087C185.225 47.1451 187.407 46.9062 187.407 46.9062L190.238 49.1821L189.666 50.138C189.666 50.138 190.014 51.4397 189.559 50.9645C189.104 50.4892 189.018 51.8683 189.018 51.8683C189.018 51.8683 188.786 53.3784 187.407 53.8334C186.028 54.2883 184.983 58.6107 184.983 58.6107C181.731 62.7764 177.894 66.0261 173.346 68.1654C175.118 70.1697 173.427 90.3887 173.427 90.3887Z" fill="#FFCD00"/>
<path d="M163.421 56.6445C166.244 56.6445 168.533 54.3893 168.533 51.6074C168.533 48.8255 166.244 46.5703 163.421 46.5703C160.598 46.5703 158.309 48.8255 158.309 51.6074C158.309 54.3893 160.598 56.6445 163.421 56.6445Z" fill="#FFB6B6"/>
<path d="M158.127 52.156C158.289 53.2505 159.236 54.7777 159.014 54.7777C158.793 54.7777 157.216 50.2654 158.793 49.9712C159.936 49.7578 160.192 49.945 161.26 49.4884L161.11 49.6282C161.817 50.1351 162.801 49.8227 163.609 49.4928C164.418 49.165 165.4 48.8526 166.11 49.3573C166.555 49.6741 166.744 50.2247 167.021 50.6922C167.298 51.1619 167.81 51.6054 168.338 51.4612C168.762 51.3454 169.006 50.8779 169.003 50.4453C169.001 50.0127 168.429 49.6012 168.622 49.2131C169.193 48.063 168.679 47.279 167.436 46.7378C166.983 46.6701 166.531 46.6009 166.079 46.5302C166.316 46.2067 166.603 45.9221 166.93 45.6869C166.792 45.3378 166.553 45.0363 166.243 44.8196C165.881 44.6076 165.433 44.6229 165.014 44.6448C164.079 44.6929 163.144 44.7409 162.209 44.789C161.518 44.8239 160.801 44.8654 160.183 45.1779C159.411 45.5689 158.906 46.3314 158.538 47.107C157.713 48.8504 157.844 50.2531 158.127 52.156Z" fill="#2F2E41"/>
<path d="M114.348 144.886L180.652 145C180.744 145 180.833 144.953 180.898 144.87C180.963 144.787 181 144.675 181 144.557C181 144.44 180.963 144.327 180.898 144.244C180.833 144.161 180.744 144.114 180.652 144.114L114.348 144C114.256 144 114.167 144.047 114.102 144.13C114.037 144.213 114 144.325 114 144.443C114 144.56 114.037 144.673 114.102 144.756C114.167 144.839 114.256 144.886 114.348 144.886Z" fill="#CACACA"/>
<path d="M118.677 122.257C118.769 121.629 118.102 121.014 117.187 120.883C116.271 120.751 115.453 121.154 115.361 121.781C115.268 122.409 115.935 123.024 116.851 123.156C117.767 123.287 118.584 122.885 118.677 122.257Z" fill="#E6E6E6"/>
<path d="M129.58 121.209C129.672 120.581 129.005 119.966 128.089 119.835C127.174 119.704 126.356 120.106 126.263 120.734C126.171 121.361 126.838 121.977 127.754 122.108C128.669 122.239 129.487 121.837 129.58 121.209Z" fill="#3F3D56"/>
<path d="M115.691 113.56C115.784 112.932 115.117 112.317 114.201 112.185C113.285 112.054 112.468 112.457 112.375 113.084C112.282 113.712 112.95 114.327 113.865 114.458C114.781 114.59 115.599 114.187 115.691 113.56Z" fill="#FF6584"/>
<path d="M110.954 109.998C110.958 109.422 110.632 108.952 110.225 108.949C109.818 108.946 109.485 109.411 109.48 109.987C109.476 110.563 109.802 111.033 110.209 111.036C110.616 111.039 110.949 110.574 110.954 109.998Z" fill="#E6E6E6"/>
<path d="M109.347 103.362C109.351 102.786 109.025 102.316 108.618 102.313C108.212 102.31 107.878 102.775 107.874 103.351C107.869 103.927 108.196 104.397 108.602 104.4C109.009 104.403 109.343 103.938 109.347 103.362Z" fill="#3F3D56"/>
<path d="M121.841 115.04C121.845 114.464 121.519 113.994 121.112 113.991C120.705 113.988 120.372 114.453 120.367 115.029C120.363 115.605 120.689 116.075 121.096 116.078C121.503 116.081 121.836 115.616 121.841 115.04Z" fill="#E6E6E6"/>
<path d="M116.572 117.632C116.576 117.055 116.25 116.586 115.843 116.583C115.436 116.58 115.103 117.044 115.099 117.621C115.094 118.197 115.42 118.667 115.827 118.67C116.234 118.673 116.567 118.208 116.572 117.632Z" fill="#FF6584"/>
<path d="M123.906 122.423C123.911 121.846 123.584 121.377 123.177 121.374C122.771 121.371 122.437 121.835 122.433 122.412C122.428 122.988 122.755 123.458 123.161 123.461C123.568 123.464 123.902 122.999 123.906 122.423Z" fill="#3F3D56"/>
<path d="M202.491 88.6113C202.584 87.9837 201.917 87.3684 201.001 87.2371C200.085 87.1059 199.268 87.5083 199.175 88.1359C199.083 88.7636 199.75 89.3789 200.666 89.5102C201.581 89.6414 202.399 89.239 202.491 88.6113Z" fill="#E6E6E6"/>
<path d="M213.394 87.5635C213.487 86.9358 212.82 86.3206 211.904 86.1893C210.988 86.058 210.171 86.4604 210.078 87.0881C209.986 87.7158 210.653 88.331 211.568 88.4623C212.484 88.5936 213.302 88.1912 213.394 87.5635Z" fill="#3F3D56"/>
<path d="M199.506 79.9151C199.598 79.2874 198.931 78.6721 198.015 78.5408C197.1 78.4096 196.282 78.812 196.19 79.4396C196.097 80.0673 196.764 80.6826 197.68 80.8139C198.596 80.9452 199.413 80.5427 199.506 79.9151Z" fill="#FF6584"/>
<path d="M194.768 76.3524C194.773 75.7761 194.447 75.3065 194.04 75.3035C193.633 75.3005 193.3 75.7652 193.295 76.3414C193.291 76.9176 193.617 77.3872 194.024 77.3903C194.431 77.3933 194.764 76.9286 194.768 76.3524Z" fill="#E6E6E6"/>
<path d="M193.162 69.7166C193.166 69.1404 192.84 68.6708 192.433 68.6678C192.026 68.6647 191.693 69.1294 191.688 69.7057C191.684 70.2819 192.01 70.7515 192.417 70.7545C192.824 70.7575 193.157 70.2929 193.162 69.7166Z" fill="#3F3D56"/>
<path d="M205.655 81.3944C205.66 80.8181 205.333 80.3485 204.927 80.3455C204.52 80.3425 204.186 80.8072 204.182 81.3834C204.178 81.9596 204.504 82.4292 204.911 82.4322C205.317 82.4353 205.651 81.9706 205.655 81.3944Z" fill="#E6E6E6"/>
<path d="M200.386 83.9871C200.391 83.4109 200.065 82.9413 199.658 82.9383C199.251 82.9353 198.918 83.3999 198.913 83.9762C198.909 84.5524 199.235 85.022 199.642 85.025C200.049 85.0281 200.382 84.5634 200.386 83.9871Z" fill="#FF6584"/>
<path d="M207.721 88.7772C207.725 88.2009 207.399 87.7314 206.992 87.7283C206.585 87.7253 206.252 88.19 206.248 88.7662C206.243 89.3424 206.569 89.812 206.976 89.8151C207.383 89.8181 207.716 89.3534 207.721 88.7772Z" fill="#3F3D56"/>
<path d="M161.914 26.3467C162.007 25.719 161.34 25.1038 160.424 24.9725C159.508 24.8412 158.691 25.2436 158.598 25.8713C158.506 26.499 159.173 27.1142 160.089 27.2455C161.004 27.3768 161.822 26.9744 161.914 26.3467Z" fill="white"/>
<path d="M172.817 25.2979C172.91 24.6702 172.243 24.0549 171.327 23.9237C170.411 23.7924 169.594 24.1948 169.501 24.8225C169.409 25.4502 170.076 26.0654 170.992 26.1967C171.907 26.328 172.725 25.9256 172.817 25.2979Z" fill="#3F3D56"/>
<path d="M158.929 17.6494C159.022 17.0218 158.354 16.4065 157.439 16.2752C156.523 16.1439 155.705 16.5463 155.613 17.174C155.52 17.8017 156.187 18.417 157.103 18.5483C158.019 18.6795 158.836 18.2771 158.929 17.6494Z" fill="#FF6584"/>
<path d="M154.191 14.0867C154.196 13.5105 153.87 13.0409 153.463 13.0379C153.056 13.0349 152.723 13.4995 152.718 14.0758C152.714 14.652 153.04 15.1216 153.447 15.1246C153.854 15.1277 154.187 14.663 154.191 14.0867Z" fill="#E6E6E6"/>
<path d="M152.585 7.45101C152.589 6.87477 152.263 6.40518 151.856 6.40215C151.449 6.39912 151.116 6.86379 151.112 7.44003C151.107 8.01626 151.433 8.48586 151.84 8.48889C152.247 8.49192 152.58 8.02724 152.585 7.45101Z" fill="#3F3D56"/>
<path d="M165.078 19.1287C165.083 18.5525 164.757 18.0829 164.35 18.0799C163.943 18.0769 163.609 18.5415 163.605 19.1178C163.601 19.694 163.927 20.1636 164.334 20.1666C164.741 20.1697 165.074 19.705 165.078 19.1287Z" fill="#E6E6E6"/>
<path d="M159.81 21.7215C159.814 21.1453 159.488 20.6757 159.081 20.6727C158.674 20.6696 158.341 21.1343 158.336 21.7105C158.332 22.2868 158.658 22.7564 159.065 22.7594C159.472 22.7624 159.805 22.2977 159.81 21.7215Z" fill="#FF6584"/>
<path d="M167.144 26.5116C167.148 25.9353 166.822 25.4657 166.415 25.4627C166.008 25.4597 165.675 25.9243 165.671 26.5006C165.666 27.0768 165.992 27.5464 166.399 27.5494C166.806 27.5525 167.139 27.0878 167.144 26.5116Z" fill="#3F3D56"/>
</g>
<defs>
<clipPath id="clip0_522_31072">
<rect width="272" height="145" fill="white"/>
</clipPath>
</defs>
</svg>
