<svg width="100" height="96" viewBox="0 0 100 96" fill="none" xmlns="http://www.w3.org/2000/svg">
<path d="M86.0054 14.7906C86.0055 14.6853 86.0472 14.5844 86.1212 14.51C86.1953 14.4355 86.2958 14.3937 86.4005 14.3936H89.0874C89.1922 14.3936 89.2927 14.4354 89.3668 14.5098C89.4409 14.5843 89.4826 14.6853 89.4826 14.7906C89.4826 14.8959 89.4409 14.9968 89.3668 15.0713C89.2927 15.1457 89.1922 15.1876 89.0874 15.1876H86.4005C86.2957 15.1874 86.1953 15.1456 86.1212 15.0711C86.0472 14.9967 86.0055 14.8958 86.0054 14.7906Z" fill="#E6E6E6"/>
<path d="M90.4312 14.7906C90.4313 14.6853 90.4729 14.5844 90.547 14.51C90.6211 14.4355 90.7215 14.3937 90.8263 14.3936H93.5132C93.618 14.3936 93.7185 14.4354 93.7926 14.5098C93.8667 14.5843 93.9083 14.6853 93.9083 14.7906C93.9083 14.8959 93.8667 14.9968 93.7926 15.0713C93.7185 15.1457 93.618 15.1876 93.5132 15.1876H90.8263C90.7215 15.1874 90.6211 15.1456 90.547 15.0712C90.4729 14.9967 90.4313 14.8958 90.4312 14.7906Z" fill="#E6E6E6"/>
<path d="M88.7714 21.819C89.2349 21.819 89.6106 21.433 89.6106 20.957C89.6106 20.4809 89.2349 20.095 88.7714 20.095C88.3079 20.095 87.9321 20.4809 87.9321 20.957C87.9321 21.433 88.3079 21.819 88.7714 21.819Z" fill="#3F3D56"/>
<path d="M91.6708 21.819C92.1343 21.819 92.51 21.433 92.51 20.957C92.51 20.4809 92.1343 20.095 91.6708 20.095C91.2073 20.095 90.8315 20.4809 90.8315 20.957C90.8315 21.433 91.2073 21.819 91.6708 21.819Z" fill="#3F3D56"/>
<path d="M94.5697 21.819C95.0332 21.819 95.4089 21.433 95.4089 20.957C95.4089 20.4809 95.0332 20.095 94.5697 20.095C94.1062 20.095 93.7305 20.4809 93.7305 20.957C93.7305 21.433 94.1062 21.819 94.5697 21.819Z" fill="#3F3D56"/>
<path d="M64.1048 49.5481H44.1013C43.8183 49.5485 43.5471 49.6618 43.3473 49.8632C43.1474 50.0645 43.0353 50.3373 43.0356 50.6216V82.3707H65.1732V50.6216C65.1733 50.4806 65.1457 50.341 65.092 50.2107C65.0384 50.0804 64.9597 49.962 64.8604 49.8623C64.7612 49.7626 64.6434 49.6836 64.5137 49.6297C64.3841 49.5757 64.2451 49.548 64.1048 49.5481ZM54.1704 67.5876C53.5448 67.5846 52.9457 67.3336 52.5033 66.8892C52.061 66.4448 51.8112 65.8428 51.8083 65.2143V61.5523C51.8088 60.9233 52.0579 60.3201 52.5008 59.8755C52.9437 59.4309 53.5442 59.1811 54.1703 59.1811C54.7965 59.1811 55.397 59.4309 55.8399 59.8755C56.2828 60.3201 56.5319 60.9233 56.5324 61.5523V65.2143C56.5295 65.8428 56.2797 66.4448 55.8374 66.8892C55.395 67.3337 54.7959 67.5846 54.1704 67.5876Z" fill="#E6E6E6"/>
<path d="M42.9668 81.3552V84.4184C42.9671 84.5771 43.03 84.7292 43.1417 84.8415C43.2534 84.9537 43.4049 85.0169 43.5628 85.0172H64.6457C64.8035 85.0164 64.9547 84.9531 65.0663 84.8409C65.1779 84.7288 65.2409 84.577 65.2417 84.4184V81.3552L42.9668 81.3552Z" fill="#CCCCCC"/>
<path d="M97.2288 0H11.7218C10.9871 0.00117426 10.2829 0.294909 9.76343 0.816834C9.24396 1.33876 8.95161 2.04631 8.95044 2.78442V60.7579C8.95115 61.4962 9.24335 62.204 9.76292 62.7261C10.2825 63.2481 10.987 63.5417 11.7218 63.5424H97.2288C97.9636 63.5417 98.6681 63.2481 99.1876 62.7261C99.7072 62.204 99.9994 61.4962 100 60.7579V2.78442C99.9989 2.04631 99.7066 1.33876 99.1871 0.816834C98.6676 0.294909 97.9634 0.0011738 97.2288 0Z" fill="#E6E6E6"/>
<path d="M96.5148 2.01123H12.436C12.0426 2.01209 11.6657 2.16968 11.3878 2.44942C11.11 2.72917 10.9539 3.10823 10.9539 3.50344V60.04C10.9545 60.4348 11.1109 60.8131 11.3887 61.0922C11.6665 61.3713 12.0431 61.5285 12.436 61.5291H96.5148C96.9077 61.5285 97.2843 61.3713 97.5621 61.0922C97.8399 60.8131 97.9963 60.4348 97.9969 60.04V3.50344C97.9969 3.10823 97.8408 2.72917 97.563 2.44942C97.2851 2.16968 96.9082 2.01209 96.5148 2.01123Z" fill="white"/>
<path d="M97.9969 3.50344V60.04C97.9963 60.4348 97.8399 60.8131 97.5621 61.0922C97.2843 61.3713 96.9077 61.5285 96.5148 61.5291H66.8668C63.5869 58.473 60.8962 54.8355 58.9294 50.7989C58.8 50.5388 58.6767 50.2757 58.5596 50.0094C56.7676 46.1024 55.6825 41.906 55.3551 37.6167C55.3335 37.3536 55.315 37.0904 55.3027 36.8242C55.2627 36.1431 55.2442 35.4527 55.2442 34.7592C55.2383 30.1471 56.1051 25.5759 57.7985 21.2891C57.9002 21.0229 58.0081 20.7597 58.119 20.4966C61.5271 12.4513 67.6852 5.8951 75.482 2.01123H96.5148C96.9082 2.01209 97.2851 2.16968 97.563 2.44942C97.8408 2.72917 97.9969 3.10823 97.9969 3.50344Z" fill="#FFDC55"/>
<path d="M92.2884 9.80055H13.6161C13.5343 9.7988 13.4564 9.76491 13.3991 9.70615C13.3419 9.64739 13.3098 9.56844 13.3098 9.48621C13.3098 9.40399 13.3419 9.32503 13.3991 9.26627C13.4564 9.20751 13.5343 9.17363 13.6161 9.17188H92.2884C92.3702 9.17363 92.4481 9.20751 92.5053 9.26627C92.5626 9.32503 92.5946 9.40399 92.5946 9.48621C92.5946 9.56844 92.5626 9.64739 92.5053 9.70615C92.4481 9.76491 92.3702 9.7988 92.2884 9.80055Z" fill="#CACACA"/>
<path d="M18.9714 7.56698C19.984 7.56698 20.8049 6.72383 20.8049 5.68376C20.8049 4.64368 19.984 3.80054 18.9714 3.80054C17.9588 3.80054 17.1379 4.64368 17.1379 5.68376C17.1379 6.72383 17.9588 7.56698 18.9714 7.56698Z" fill="#3F3D56"/>
<path d="M25.3054 7.56698C26.318 7.56698 27.1389 6.72383 27.1389 5.68376C27.1389 4.64368 26.318 3.80054 25.3054 3.80054C24.2928 3.80054 23.4719 4.64368 23.4719 5.68376C23.4719 6.72383 24.2928 7.56698 25.3054 7.56698Z" fill="#3F3D56"/>
<path d="M31.6392 7.56698C32.6518 7.56698 33.4727 6.72383 33.4727 5.68376C33.4727 4.64368 32.6518 3.80054 31.6392 3.80054C30.6265 3.80054 29.8057 4.64368 29.8057 5.68376C29.8057 6.72383 30.6265 7.56698 31.6392 7.56698Z" fill="#3F3D56"/>
<path d="M88.4749 4.26733H83.9756C83.8864 4.26911 83.8015 4.30595 83.739 4.36995C83.6766 4.43394 83.6416 4.52 83.6416 4.60962C83.6416 4.69925 83.6766 4.7853 83.739 4.8493C83.8015 4.91329 83.8864 4.95013 83.9756 4.95191H88.4749C88.5641 4.95013 88.649 4.91329 88.7114 4.8493C88.7739 4.7853 88.8089 4.69925 88.8089 4.60962C88.8089 4.52 88.7739 4.43394 88.7114 4.36995C88.649 4.30595 88.5641 4.26911 88.4749 4.26733Z" fill="#3F3D56"/>
<path d="M88.4749 5.55225H83.9756C83.8864 5.55402 83.8015 5.59086 83.739 5.65486C83.6766 5.71886 83.6416 5.80491 83.6416 5.89453C83.6416 5.98416 83.6766 6.07021 83.739 6.13421C83.8015 6.19821 83.8864 6.23505 83.9756 6.23682H88.4749C88.5641 6.23505 88.649 6.19821 88.7114 6.13421C88.7739 6.07021 88.8089 5.98416 88.8089 5.89453C88.8089 5.80491 88.7739 5.71886 88.7114 5.65486C88.649 5.59086 88.5641 5.55402 88.4749 5.55225Z" fill="#3F3D56"/>
<path d="M88.4749 6.83545H83.9756C83.8864 6.83722 83.8015 6.87406 83.739 6.93806C83.6766 7.00206 83.6416 7.08811 83.6416 7.17774C83.6416 7.26736 83.6766 7.35341 83.739 7.41741C83.8015 7.48141 83.8864 7.51825 83.9756 7.52002H88.4749C88.5641 7.51825 88.649 7.48141 88.7114 7.41741C88.7739 7.35341 88.8089 7.26736 88.8089 7.17774C88.8089 7.08811 88.7739 7.00206 88.7114 6.93806C88.649 6.87406 88.5641 6.83722 88.4749 6.83545Z" fill="#3F3D56"/>
<path d="M37.7047 28.1646H26.7031C26.2881 28.1646 25.9517 28.5026 25.9517 28.9195V30.0962C25.9517 30.5131 26.2881 30.8511 26.7031 30.8511H37.7047C38.1197 30.8511 38.4561 30.5131 38.4561 30.0962V28.9195C38.4561 28.5026 38.1197 28.1646 37.7047 28.1646Z" fill="#FFDC55"/>
<path d="M44.055 33.5378H20.3522C19.9372 33.5378 19.6008 33.8758 19.6008 34.2928V35.4695C19.6008 35.8864 19.9372 36.2244 20.3522 36.2244H44.055C44.47 36.2244 44.8064 35.8864 44.8064 35.4695V34.2928C44.8064 33.8758 44.47 33.5378 44.055 33.5378Z" fill="#E6E6E6"/>
<path d="M44.055 38.9109H20.3522C19.9372 38.9109 19.6008 39.2489 19.6008 39.6658V40.8425C19.6008 41.2595 19.9372 41.5975 20.3522 41.5975H44.055C44.47 41.5975 44.8064 41.2595 44.8064 40.8425V39.6658C44.8064 39.2489 44.47 38.9109 44.055 38.9109Z" fill="#E6E6E6"/>
<path d="M21.6582 58.2876C21.6601 59.3942 21.4639 60.4921 21.0789 61.5289H12.436C12.0431 61.5283 11.6665 61.3711 11.3887 61.092C11.1109 60.8129 10.9545 60.4346 10.9539 60.0398V49.1176C11.4368 49.0392 11.9252 48.9998 12.4144 49C13.6283 48.9999 14.8304 49.2401 15.9519 49.7068C17.0735 50.1735 18.0925 50.8577 18.9509 51.7201C19.8093 52.5825 20.4902 53.6064 20.9547 54.7333C21.4193 55.8601 21.6583 57.0679 21.6582 58.2876Z" fill="#FFDC55"/>
<path opacity="0.2" d="M98.074 21.289V20.4964H84.8522V11.311H84.0665V20.4964H68.9127V11.311H68.127V20.4964H58.119C58.0081 20.7596 57.9003 21.0227 57.7986 21.289H68.127V36.824H55.3027C55.3151 37.0903 55.3335 37.3534 55.3551 37.6166H68.127V50.0093H58.5597C58.6767 50.2755 58.8 50.5387 58.9294 50.7987H68.127V61.2163H68.9127V50.7987H84.0665V61.2163H84.8522V50.7987H98.074V50.0093H84.8522V50.0093C84.8522 48.3818 85.1713 46.7703 85.7911 45.2668C86.411 43.7632 87.3195 42.3971 88.4649 41.2463C89.6102 40.0955 90.97 39.1827 92.4664 38.5599C93.9629 37.9371 95.5668 37.6165 97.1866 37.6165H98.074V36.824H84.8522V21.289H98.074ZM84.0665 50.0093H68.9127V37.6165H84.0665V50.0093ZM84.0665 36.824H68.9127V36.5144C68.9127 32.4764 70.5093 28.6037 73.3512 25.7484C76.193 22.8931 80.0475 21.289 84.0665 21.289H84.0665V36.824Z" fill="#333333"/>
<path d="M87.4284 55.6636C87.2598 55.6714 87.0928 55.6269 86.9501 55.5362C86.8075 55.4454 86.6961 55.3128 86.6309 55.1563C86.5658 54.9998 86.5501 54.827 86.586 54.6613C86.6219 54.4955 86.7077 54.3448 86.8317 54.2297C86.8524 54.1468 86.8673 54.0872 86.8881 54.0043C86.8807 53.9863 86.8732 53.9683 86.8657 53.9502C86.1076 52.1341 83.5385 52.1466 82.7869 53.9655C82.1197 55.5798 81.2704 57.1968 81.0613 58.9037C80.9692 59.6582 81.008 60.423 81.1761 61.1641C79.6093 57.73 78.7956 53.9976 78.7904 50.2199C78.7901 49.2719 78.8425 48.3247 78.9474 47.3826C79.0341 46.6103 79.1544 45.8434 79.3083 45.0821C80.1481 40.9512 81.9512 37.0795 84.5695 33.7847C85.8368 33.09 86.8616 32.0217 87.5059 30.7237C87.7394 30.2571 87.9044 29.7591 87.9958 29.245C87.8528 29.2638 87.7075 29.2756 87.5645 29.285C87.52 29.2874 87.4731 29.2897 87.4286 29.2921L87.4118 29.2928C87.2547 29.2999 87.0989 29.2612 86.9632 29.1814C86.8274 29.1016 86.7175 28.9841 86.6468 28.843C86.576 28.7019 86.5473 28.5432 86.5641 28.3861C86.581 28.229 86.6427 28.0802 86.7418 27.9575C86.8035 27.8811 86.8653 27.8049 86.9271 27.7286C87.0208 27.6109 87.1169 27.4955 87.2106 27.3778C87.2215 27.3666 87.2316 27.3548 87.2411 27.3425C87.3489 27.2082 87.4567 27.0764 87.5645 26.9422C87.3678 26.6353 87.1031 26.3783 86.7912 26.1911C85.7108 25.5553 84.2203 25.9956 83.4399 26.9775C82.6572 27.9594 82.5096 29.3368 82.7814 30.5636C83.0134 31.6137 83.5196 32.5768 84.0891 33.4927C84.0305 33.5681 83.9695 33.641 83.911 33.7164C82.84 35.1001 81.9065 36.5859 81.124 38.1525C81.3143 36.3974 81.0872 34.622 80.4613 32.9723C79.827 31.4349 78.6381 30.1401 77.5911 28.8109C76.3335 27.2145 73.7547 27.9112 73.5331 29.935C73.531 29.9546 73.5289 29.9742 73.5268 29.9938C73.6823 30.0819 73.8346 30.1755 73.9835 30.2744C74.1706 30.4 74.3156 30.5795 74.3995 30.7893C74.4833 30.9991 74.5022 31.2295 74.4535 31.4502C74.4048 31.671 74.2909 31.8718 74.1267 32.0264C73.9625 32.181 73.7556 32.2821 73.5332 32.3166L73.5104 32.3201C73.5658 32.8832 73.6638 33.4413 73.8034 33.9895C74.2079 35.52 74.9227 36.9499 75.9031 38.1898C76.8835 39.4296 78.1082 40.4526 79.5005 41.1947C79.5919 41.2417 79.6809 41.2888 79.7723 41.3336C78.9861 43.5721 78.493 45.9039 78.3053 48.2703C78.199 49.6663 78.2053 51.0688 78.324 52.4638L78.317 52.4144C78.017 50.8631 77.1934 49.4634 75.9852 48.4516C74.1907 46.9705 71.6555 46.4251 69.7196 45.2346C68.7877 44.6616 67.5936 45.4021 67.7562 46.4876C67.7588 46.505 67.7614 46.5223 67.7641 46.5396C68.0527 46.6577 68.3337 46.7938 68.6054 46.947C68.7609 47.0351 68.9132 47.1287 69.0621 47.2276C69.2492 47.3532 69.3942 47.5327 69.4781 47.7425C69.5619 47.9523 69.5808 48.1827 69.5321 48.4034C69.4834 48.6242 69.3695 48.825 69.2053 48.9796C69.0411 49.1342 68.8342 49.2353 68.6118 49.2698L68.589 49.2733C68.5726 49.2757 68.5585 49.278 68.5422 49.2804C69.0352 50.4633 69.7273 51.5521 70.588 52.4991C71.6513 53.6455 72.9365 54.5615 74.3646 55.1911C75.7928 55.8207 77.3339 56.1506 78.8935 56.1606H78.8958C79.3192 58.0089 79.9326 59.8081 80.7261 61.5291H87.2645C87.288 61.4561 87.3091 61.3807 87.3302 61.3077C86.725 61.346 86.1174 61.3096 85.521 61.1994C86.0061 60.6014 86.4912 59.9986 86.9763 59.4005C86.9871 59.3893 86.9973 59.3775 87.0068 59.3652C87.2528 59.0591 87.5012 58.7553 87.7473 58.4493L87.7474 58.4489C87.7606 57.5106 87.6534 56.5745 87.4286 55.6637L87.4284 55.6636ZM79.9411 40.865L79.9445 40.8603L79.9411 40.8697V40.865ZM78.4928 53.9825L78.4365 53.8554C78.4389 53.7636 78.4389 53.6717 78.4365 53.5776C78.4365 53.5516 78.4318 53.5258 78.4318 53.4999C78.4529 53.6623 78.4717 53.8248 78.4951 53.9873L78.4928 53.9825Z" fill="#2F2E41"/>
<path d="M29.2062 40.2992V31.4701C29.2062 30.1149 28.6703 28.8151 27.7165 27.8568C26.7627 26.8985 25.4691 26.3601 24.1202 26.3601H5.5027C4.15382 26.3601 2.86019 26.8985 1.90639 27.8568C0.952587 28.8151 0.416748 30.1149 0.416748 31.4701V79.9071C0.416748 81.2624 0.952588 82.5621 1.90639 83.5204C2.86019 84.4787 4.15382 85.0171 5.5027 85.0171H24.1202C24.7881 85.0171 25.4495 84.8849 26.0665 84.6281C26.6836 84.3713 27.2442 83.9949 27.7165 83.5204C28.1888 83.0459 28.5634 82.4826 28.819 81.8626C29.0746 81.2426 29.2062 80.5782 29.2062 79.9071V46.5839C29.2912 46.5839 29.3728 46.5499 29.433 46.4895C29.4931 46.429 29.5269 46.3471 29.5269 46.2616V40.6215C29.5269 40.536 29.4931 40.454 29.433 40.3936C29.3728 40.3332 29.2912 40.2992 29.2062 40.2992Z" fill="#E6E6E6"/>
<path d="M28.1237 31.5052V79.8722C28.1238 80.8768 27.7293 81.841 27.026 82.5551C26.3227 83.2692 25.3674 83.6757 24.3675 83.6861C24.3537 83.6876 24.3398 83.6882 24.3259 83.6879H5.6178C4.61061 83.6878 3.64469 83.2857 2.9325 82.5702C2.22031 81.8546 1.82016 80.8841 1.82007 79.8722V31.5052C1.82016 30.4932 2.22031 29.5227 2.9325 28.8071C3.64469 28.0916 4.61061 27.6895 5.6178 27.6895H7.88812C7.77652 27.9648 7.73398 28.2636 7.76426 28.5593C7.79454 28.8551 7.89671 29.1389 8.06177 29.3857C8.22683 29.6324 8.44973 29.8347 8.71086 29.9746C8.97199 30.1145 9.26333 30.1878 9.55927 30.188H20.2251C20.5208 30.1872 20.8118 30.1135 21.0725 29.9734C21.3332 29.8333 21.5557 29.631 21.7205 29.3844C21.8853 29.1377 21.9874 28.8542 22.0177 28.5587C22.048 28.2632 22.0058 27.9647 21.8945 27.6895H24.3259C25.3331 27.6895 26.299 28.0916 27.0112 28.8071C27.7234 29.5227 28.1236 30.4932 28.1237 31.5052Z" fill="white"/>
<path d="M24.4142 82.1951C24.4142 82.6963 24.3987 83.1933 24.3675 83.6863C24.3537 83.6877 24.3398 83.6883 24.3259 83.688H5.6178C4.61061 83.6879 3.64469 83.2859 2.9325 82.5703C2.22031 81.8548 1.82016 80.8843 1.82007 79.8723V58.3179C7.91549 58.6267 13.6597 61.2771 17.865 65.7212C22.0703 70.1653 24.4149 76.0631 24.4142 82.1951Z" fill="#F2F2F2"/>
<path d="M0.519956 45.2385C0.405083 45.2384 0.294953 45.1925 0.213726 45.111C0.132498 45.0294 0.0868052 44.9189 0.0866699 44.8035V41.8456C0.0866699 41.7303 0.132321 41.6196 0.213577 41.5381C0.294834 41.4565 0.405041 41.4106 0.519956 41.4106C0.634871 41.4106 0.745078 41.4565 0.826335 41.5381C0.907591 41.6196 0.953242 41.7303 0.953242 41.8456V44.8035C0.953107 44.9189 0.907414 45.0294 0.826186 45.111C0.744959 45.1925 0.634829 45.2384 0.519956 45.2385Z" fill="#E6E6E6"/>
<path d="M17.2689 42.8767H12.6747C12.2598 42.8767 11.9233 43.2147 11.9233 43.6317V44.8083C11.9233 45.2253 12.2598 45.5633 12.6747 45.5633H17.2689C17.6839 45.5633 18.0203 45.2253 18.0203 44.8083V43.6317C18.0203 43.2147 17.6839 42.8767 17.2689 42.8767Z" fill="#FFDC55"/>
<path d="M23.6197 48.25H6.3244C5.90941 48.25 5.573 48.588 5.573 49.005V50.1816C5.573 50.5986 5.90941 50.9366 6.3244 50.9366H23.6197C24.0347 50.9366 24.3711 50.5986 24.3711 50.1816V49.005C24.3711 48.588 24.0347 48.25 23.6197 48.25Z" fill="#E6E6E6"/>
<path d="M23.6197 53.623H6.3244C5.90941 53.623 5.573 53.961 5.573 54.378V55.5547C5.573 55.9716 5.90941 56.3096 6.3244 56.3096H23.6197C24.0347 56.3096 24.3711 55.9716 24.3711 55.5547V54.378C24.3711 53.961 24.0347 53.623 23.6197 53.623Z" fill="#E6E6E6"/>
<path d="M19.4582 80.9356C19.379 80.9392 19.3007 80.9183 19.2337 80.8758C19.1668 80.8332 19.1145 80.771 19.0839 80.6975C19.0534 80.6241 19.046 80.543 19.0629 80.4652C19.0797 80.3874 19.1199 80.3167 19.1781 80.2627L19.2046 80.1569C19.2011 80.1484 19.1976 80.14 19.1941 80.1315C19.1143 79.9423 18.9807 79.781 18.81 79.6678C18.6394 79.5546 18.4392 79.4947 18.2347 79.4954C18.0302 79.4962 17.8305 79.5577 17.6606 79.6721C17.4908 79.7866 17.3584 79.9489 17.28 80.1387C16.967 80.8962 16.5684 81.6551 16.4703 82.456C16.427 82.8101 16.4453 83.169 16.5242 83.5168C15.7889 81.9053 15.4071 80.1538 15.4046 78.381C15.4045 77.9361 15.4291 77.4916 15.4783 77.0495C15.519 76.6871 15.5754 76.3273 15.6477 75.97C16.0418 74.0315 16.8879 72.2146 18.1166 70.6685C18.7112 70.3425 19.1922 69.8412 19.4945 69.2321C19.6041 69.0131 19.6815 68.7794 19.7244 68.5382C19.6573 68.547 19.5891 68.5526 19.522 68.557C19.5011 68.5581 19.4791 68.5592 19.4583 68.5603L19.4504 68.5606C19.3766 68.564 19.3035 68.5458 19.2398 68.5083C19.1761 68.4709 19.1246 68.4157 19.0914 68.3495C19.0581 68.2833 19.0447 68.2089 19.0526 68.1351C19.0605 68.0614 19.0894 67.9916 19.136 67.934C19.1649 67.8982 19.1939 67.8624 19.2229 67.8266C19.2669 67.7713 19.312 67.7172 19.356 67.662C19.361 67.6567 19.3658 67.6512 19.3703 67.6454C19.4209 67.5824 19.4714 67.5205 19.522 67.4575C19.4297 67.3135 19.3055 67.1929 19.1591 67.1051C18.6521 66.8067 17.9527 67.0134 17.5865 67.4741C17.2192 67.9349 17.1499 68.5813 17.2775 69.1569C17.4029 69.6468 17.6104 70.1116 17.8911 70.5315C17.8636 70.5668 17.835 70.6011 17.8075 70.6365C17.305 71.2858 16.8669 71.983 16.4997 72.7182C16.589 71.8946 16.4824 71.0614 16.1887 70.2873C15.8911 69.5658 15.3331 68.9582 14.8418 68.3345C14.7119 68.1669 14.5354 68.0419 14.3347 67.9751C14.134 67.9083 13.9182 67.9028 13.7143 67.9592C13.5105 68.0157 13.328 68.1316 13.1897 68.2922C13.0514 68.4529 12.9637 68.6512 12.9376 68.862C12.9365 68.8712 12.9356 68.8804 12.9346 68.8896C13.0076 68.9309 13.079 68.9748 13.1489 69.0213C13.2367 69.0802 13.3048 69.1644 13.3441 69.2629C13.3835 69.3613 13.3923 69.4694 13.3695 69.573C13.3466 69.6766 13.2932 69.7709 13.2161 69.8434C13.139 69.9159 13.042 69.9634 12.9376 69.9796L12.9269 69.9812C12.9529 70.2455 12.9989 70.5074 13.0644 70.7646C13.2542 71.4828 13.5897 72.1539 14.0497 72.7357C14.5098 73.3175 15.0845 73.7976 15.7378 74.1458C15.7807 74.1679 15.8225 74.19 15.8654 74.2109C15.4965 75.2614 15.2651 76.3557 15.177 77.4661C15.1271 78.1212 15.1301 78.7793 15.1858 79.434L15.1825 79.4108C15.0417 78.6828 14.6552 78.026 14.0882 77.5512C13.2462 76.8562 12.0565 76.6002 11.148 76.0416C11.0515 75.9793 10.9392 75.9461 10.8245 75.9458C10.7097 75.9455 10.5973 75.9782 10.5005 76.04C10.4036 76.1018 10.3264 76.1902 10.2779 76.2946C10.2293 76.3991 10.2116 76.5153 10.2266 76.6296L10.2304 76.654C10.3658 76.7094 10.4976 76.7732 10.6252 76.8451C10.6981 76.8865 10.7696 76.9304 10.8395 76.9768C10.9273 77.0358 10.9953 77.12 11.0347 77.2184C11.074 77.3169 11.0829 77.425 11.06 77.5286C11.0372 77.6322 10.9837 77.7264 10.9067 77.799C10.8296 77.8715 10.7325 77.919 10.6282 77.9352L10.6175 77.9368C10.6098 77.9379 10.6032 77.939 10.5955 77.9401C10.8269 78.4952 11.1516 79.0062 11.5555 79.4506C12.0545 79.9885 12.6576 80.4184 13.3278 80.7138C13.998 81.0093 14.7211 81.1641 15.453 81.1688H15.4541C15.6528 82.0361 15.9406 82.8804 16.313 83.688H19.3813C19.3923 83.6538 19.4022 83.6184 19.4121 83.5842C19.1281 83.6021 18.8429 83.585 18.5631 83.5333C18.7907 83.2527 19.0183 82.9698 19.246 82.6891C19.2511 82.6839 19.2558 82.6784 19.2603 82.6726C19.3758 82.5289 19.4923 82.3864 19.6078 82.2428L19.6079 82.2426C19.614 81.8023 19.5637 81.363 19.4582 80.9356L19.4582 80.9356ZM15.9446 73.9911L15.9462 73.9889L15.9446 73.9933V73.9911ZM15.265 80.1467L15.2386 80.087C15.2397 80.0439 15.2397 80.0008 15.2386 79.9566C15.2386 79.9445 15.2364 79.9323 15.2364 79.9202C15.2463 79.9964 15.2551 80.0727 15.266 80.1489L15.265 80.1467Z" fill="#CCCCCC"/>
<path d="M0.433286 39.4968C0.318413 39.4967 0.208283 39.4508 0.127056 39.3693C0.0458281 39.2877 0.000135311 39.1772 0 39.0618V36.1039C0 35.9886 0.0456506 35.8779 0.126908 35.7964C0.208164 35.7148 0.318371 35.6689 0.433286 35.6689C0.548201 35.6689 0.658408 35.7148 0.739665 35.7964C0.820922 35.8779 0.866572 35.9886 0.866572 36.1039V39.0618C0.866437 39.1772 0.820744 39.2877 0.739517 39.3693C0.658289 39.4508 0.548159 39.4967 0.433286 39.4968Z" fill="#E6E6E6"/>
<path d="M11.9492 28.1869C11.9494 28.0716 11.995 27.9611 12.0762 27.8795C12.1573 27.798 12.2674 27.7521 12.3822 27.752H15.3261C15.441 27.752 15.5511 27.7978 15.6323 27.8794C15.7135 27.9609 15.7591 28.0716 15.7591 28.1869C15.7591 28.3023 15.7135 28.4129 15.6323 28.4945C15.5511 28.5761 15.441 28.6219 15.3261 28.6219H12.3822C12.2674 28.6218 12.1573 28.5759 12.0762 28.4944C11.995 28.4128 11.9494 28.3023 11.9492 28.1869Z" fill="white"/>
<path d="M0.519956 50.2844C0.405083 50.2843 0.294953 50.2384 0.213726 50.1569C0.132498 50.0753 0.0868052 49.9648 0.0866699 49.8494V46.8915C0.0866699 46.7762 0.132321 46.6655 0.213577 46.5839C0.294834 46.5024 0.405041 46.4565 0.519956 46.4565C0.634871 46.4565 0.745078 46.5024 0.826335 46.5839C0.907591 46.6655 0.953242 46.7762 0.953242 46.8915V49.8494C0.953107 49.9648 0.907414 50.0753 0.826186 50.1569C0.744959 50.2384 0.634829 50.2843 0.519956 50.2844Z" fill="#E6E6E6"/>
<path d="M16.9716 28.6219C17.2109 28.6219 17.4049 28.4272 17.4049 28.1869C17.4049 27.9467 17.2109 27.752 16.9716 27.752C16.7323 27.752 16.5383 27.9467 16.5383 28.1869C16.5383 28.4272 16.7323 28.6219 16.9716 28.6219Z" fill="white"/>
<path d="M47.0079 39.3411L46.2266 39.5094C46.2215 39.181 46.1808 38.8542 46.1051 38.5347C46.0341 38.9259 45.8844 39.2986 45.6652 39.6298L41.1841 40.5913L36.8819 36.0295C36.8753 33.7487 38.1359 32.0154 40.3962 32.0154C40.5324 32.0154 40.6736 32.0219 40.8164 32.0351C42.0376 31.8298 43.2904 32.1085 44.3112 32.8126C45.332 33.5168 46.041 34.5914 46.289 35.8102C47.891 37.3951 47.31 38.3269 47.0079 39.3411Z" fill="#2F2E41"/>
<path d="M49.2108 92.6889H50.8362L51.6096 86.3894L49.2104 86.3896L49.2108 92.6889Z" fill="#FFB6B6"/>
<path d="M48.8079 91.8831L51.3774 91.729V92.8351L53.8203 94.5302C53.941 94.614 54.0318 94.7342 54.0797 94.8735C54.1275 95.0128 54.1297 95.1638 54.0861 95.3044C54.0425 95.4451 53.9552 95.568 53.8371 95.6553C53.719 95.7426 53.5762 95.7897 53.4295 95.7897H50.3704L49.8432 94.6956L49.6373 95.7897H48.4839L48.8079 91.8831Z" fill="#2F2E41"/>
<path d="M30.168 90.911L31.5818 91.717L35.3483 86.6216L33.2617 85.4321L30.168 90.911Z" fill="#FFB6B6"/>
<path d="M30.2131 90.0105L32.5236 91.1505L31.9803 92.1125L33.2724 94.7982C33.3362 94.9308 33.3562 95.0805 33.3294 95.2253C33.3026 95.3701 33.2304 95.5026 33.1233 95.6033C33.0163 95.704 32.88 95.7677 32.7344 95.785C32.5888 95.8024 32.4415 95.7726 32.3139 95.6998L29.6533 94.183L29.7321 92.97L29.0156 93.8195L28.0125 93.2476L30.2131 90.0105Z" fill="#2F2E41"/>
<path d="M55.2194 40.4448C55.0111 40.4751 54.812 40.5509 54.636 40.6669C54.46 40.7828 54.3115 40.9361 54.2008 41.116C54.0902 41.2959 54.0202 41.498 53.9957 41.708C53.9712 41.918 53.9929 42.1308 54.0591 42.3315L51.5718 44.4946L52.5114 46.3339L55.9813 43.2297C56.3095 43.0955 56.5773 42.8451 56.734 42.5258C56.8907 42.2065 56.9254 41.8405 56.8315 41.4972C56.7376 41.154 56.5216 40.8572 56.2245 40.6633C55.9274 40.4693 55.5697 40.3916 55.2194 40.4448H55.2194Z" fill="#FFB6B6"/>
<path d="M52.7147 47.8831C51.885 49.1456 50.0255 50.365 47.2657 51.446C47.1135 51.5073 46.9502 51.5362 46.7863 51.5308C46.6224 51.5254 46.4614 51.4859 46.3135 51.4147C45.272 50.9385 44.6046 49.1681 44.5419 48.9964L42.5248 46.2625C42.489 46.2226 41.5457 45.1471 41.6536 44.0897C41.6779 43.8681 41.7497 43.6544 41.8639 43.4633C41.9782 43.2723 42.1323 43.1083 42.3156 42.9827C43.8426 41.8454 47.2647 45.7953 47.7088 46.3205L49.9422 44.9533L51.5696 44.2238L52.8833 42.6177L54.733 44.5178L53.0694 47.177C52.9807 47.4261 52.8615 47.6633 52.7147 47.8831Z" fill="#2F2E41"/>
<path d="M46.9136 52.7273C46.9136 52.7273 51.693 60.3762 50.8271 61.2462C49.9612 62.1162 48.6138 62.3446 48.6138 62.3446L45.6318 58.4623L46.9136 52.7273Z" fill="#2F2E41"/>
<path d="M42.6875 42.2808L44.94 43.8118C45.987 44.5234 46.7745 45.5586 47.183 46.7604C47.5915 47.9623 47.5988 49.2652 47.2038 50.4716L46.5696 52.4083L42.6875 42.2808Z" fill="#2F2E41"/>
<path d="M38.7044 63.1599L38.4033 64.2138L37.3757 76.9226L32.2417 86.5358L34.692 88.2941L41.6929 79.1499L44.462 70.0703L48.8106 90.17L52.0777 89.9354L49.8086 62.0676L45.5029 54.2234L38.7044 63.1599Z" fill="#2F2E41"/>
<path d="M42.3049 42.6658L45.44 45.24C46.1281 45.805 46.6235 46.5716 46.8573 47.433C46.9635 47.8241 47.014 48.2284 47.0072 48.6337L46.9138 54.2237L49.7882 61.9422C49.7882 61.9422 41.9953 64.9001 40.9563 62.2902C39.9172 59.6802 42.3049 42.6658 42.3049 42.6658Z" fill="#FFDC55"/>
<path d="M43.2421 63.6448C39.3491 63.6448 38.4004 63.6742 38.3389 63.6617L38.2773 63.6492V61.2967L39.224 57.0702C39.1134 55.758 38.8542 54.0278 38.8777 52.5463C38.9625 47.1916 38.7006 41.961 38.7006 41.961L40.761 40.05L41.6971 40.6621L43.4334 42.4065C45.4516 47.397 47.0532 52.0952 47.0632 52.397L47.1901 57.5922L46.6706 59.6801C44.3204 61.347 46.4678 63.6448 43.2421 63.6448Z" fill="#2F2E41"/>
<path opacity="0.2" d="M39.5739 46.626L39.1006 49.594L42.3045 50.9217L39.5739 46.626Z" fill="#333333"/>
<path d="M42.8014 39.4933C44.5338 39.4933 45.9382 38.0822 45.9382 36.3416C45.9382 34.601 44.5338 33.1899 42.8014 33.1899C41.069 33.1899 39.6646 34.601 39.6646 36.3416C39.6646 38.0822 41.069 39.4933 42.8014 39.4933Z" fill="#FFB6B6"/>
<path opacity="0.2" d="M37.5454 52.333C38.3803 53.3043 39.5127 53.9693 40.7646 54.2235C42.0166 54.4778 43.3172 54.3069 44.462 53.7376L45.1447 53.3982L37.5454 52.333Z" fill="#333333"/>
<path d="M48.461 51.6074C48.3211 51.4495 48.1484 51.3243 47.9551 51.2406C47.7618 51.157 47.5526 51.117 47.3422 51.1233C47.1319 51.1297 46.9255 51.1824 46.7375 51.2776C46.5496 51.3728 46.3848 51.5082 46.2546 51.6744L43.0874 50.781L42.0776 52.5824L46.568 53.7809C46.8603 53.9821 47.2159 54.0686 47.5674 54.024C47.9189 53.9794 48.242 53.8068 48.4753 53.5389C48.7086 53.271 48.8361 52.9264 48.8334 52.5704C48.8308 52.2144 48.6983 51.8718 48.461 51.6074H48.461Z" fill="#FFB6B6"/>
<path d="M40.903 53.6066C39.3972 53.6067 37.3597 52.7197 34.9411 51.0016C34.8063 50.9077 34.6924 50.7868 34.6065 50.6464C34.5207 50.506 34.4647 50.3493 34.4423 50.186C34.2639 49.0504 35.3664 47.5152 35.4745 47.368L36.6335 44.1703C36.6468 44.1183 37.0203 42.7347 37.958 42.2425C38.1554 42.1407 38.3724 42.0832 38.5941 42.0737C38.8157 42.0642 39.0368 42.103 39.2421 42.1875C41.0282 42.8409 39.6335 47.8868 39.4421 48.5485L41.8084 49.6676L43.3111 50.63L45.3689 50.8463L44.8102 53.4442L41.6849 53.5148C41.4291 53.5778 41.1664 53.6086 40.903 53.6066Z" fill="#2F2E41"/>
<path d="M46.5632 34.2683C46.3121 34.5965 45.447 34.8868 44.4195 35.121C44.4211 35.0995 44.4211 35.0781 44.4211 35.0567C44.416 34.7283 44.3753 34.4015 44.2997 34.082C44.2286 34.4732 44.0789 34.8458 43.8597 35.177C43.8433 35.2018 43.8269 35.2265 43.8089 35.2513C42.9274 35.4261 41.9951 35.5613 41.2646 35.652C41.7669 37.4695 43.6923 38.9603 43.4839 40.0653L37.8422 41.2231C37.8769 40.7639 37.8404 40.3021 37.7339 39.8542C37.626 40.4453 37.3407 40.9891 36.9164 41.4127L36.4371 41.5117L36.2943 40.8042C35.0567 37.8174 36.7818 34.7598 39.6084 33.1782C40.1124 32.4192 40.8949 31.8914 41.785 31.7104L42.4891 31.5653C42.9333 31.474 43.391 31.4715 43.8361 31.5579C44.2813 31.6443 44.7051 31.818 45.0834 32.069C45.4617 32.32 45.7871 32.6434 46.041 33.0208C46.2949 33.3981 46.4724 33.8221 46.5632 34.2683Z" fill="#2F2E41"/>
<path d="M60.0399 91.4056L60.1233 89.521C60.993 89.0539 61.963 88.8072 62.9491 88.8022C61.5919 89.9171 61.7615 92.0661 60.8414 93.5653C60.5508 94.0307 60.1598 94.4244 59.6972 94.7173C59.2346 95.0102 58.7124 95.1947 58.1692 95.2572L57.0334 95.9559C56.8776 95.083 56.9119 94.1865 57.1341 93.3283C57.3563 92.47 57.7611 91.6703 58.3205 90.9843C58.6381 90.6026 59.0023 90.2626 59.4045 89.9724C59.6765 90.693 60.0399 91.4056 60.0399 91.4056Z" fill="#F2F2F2"/>
<path d="M62.7935 96H23.2434C23.1889 95.9999 23.1366 95.978 23.098 95.9391C23.0595 95.9003 23.0378 95.8477 23.0378 95.7929C23.0378 95.738 23.0595 95.6854 23.098 95.6466C23.1366 95.6077 23.1889 95.5859 23.2434 95.5857H62.7935C62.8207 95.5856 62.8475 95.5909 62.8726 95.6013C62.8977 95.6117 62.9205 95.6269 62.9397 95.6462C62.959 95.6654 62.9742 95.6883 62.9846 95.7134C62.995 95.7386 63.0003 95.7656 63.0003 95.7929C63.0003 95.8201 62.995 95.8471 62.9846 95.8723C62.9742 95.8975 62.959 95.9203 62.9397 95.9396C62.9205 95.9588 62.8977 95.9741 62.8726 95.9844C62.8475 95.9948 62.8207 96.0001 62.7935 96Z" fill="#CACACA"/>
</svg>
