<svg xmlns="http://www.w3.org/2000/svg" xmlns:xlink="http://www.w3.org/1999/xlink" width="247" height="37" viewBox="0 0 247 37"><defs><path id="rts7a" d="M188.7 141h4.6l9.7 23h-5.2l-2.08-5.12h-9.57l-2.07 5.12H179zm5.24 13.44l-3-7.4-3.01 7.4z"/><path id="rts7b" d="M213 141h5.2v18.4H230v4.6h-17z"/><path id="rts7c" d="M240 141h5.2v18.4H257v4.6h-17z"/><path id="rts7d" d="M267 164h5v-23h-5z"/><path id="rts7e" d="M292.7 141h4.6l9.7 23h-5.2l-2.08-5.12h-9.57l-2.07 5.12H283zm5.24 13.44l-3-7.4-3.01 7.4z"/><path id="rts7f" d="M317 141h4.57l10.54 14.16V141H337v23h-4.21l-10.9-14.62V164H317z"/><path id="rts7g" d="M348 141v4.67h6.98V164h5.04v-18.33H367V141z"/><path id="rts7h" d="M144.43 158.29h.03a12.1 12.1 0 0 1 12.18-11.44c.01-.16.03-.31.03-.48 0-6.57-5.47-11.91-12.22-11.91-6.76 0-12.23 5.34-12.23 11.91 0 .17.03.32.03.48 6.57.02 11.92 5.1 12.18 11.44"/><path id="rts7i" d="M132.25 146.85h-.03c-6.75 0-12.22 5.34-12.22 11.92s5.47 11.91 12.22 11.91c6.75 0 12.23-5.33 12.23-11.91l-.03-.48a12.08 12.08 0 0 1-12.17-11.44"/><path id="rts7j" d="M156.67 146.85h-.02a12.07 12.07 0 0 1-12.17 11.44l-.03.48c0 6.58 5.47 11.91 12.22 11.91 6.75 0 12.23-5.33 12.23-11.91s-5.48-11.92-12.23-11.92"/><path id="rts7k" d="M144.47 158.29a12.07 12.07 0 0 0 12.17-11.44c-6.57.02-11.91 5.1-12.17 11.44"/><path id="rts7l" d="M144.43 158.29c-.26-6.35-5.6-11.42-12.18-11.44a12.08 12.08 0 0 0 12.18 11.44"/></defs><g><g transform="translate(-120 -134)"><use fill="#004a87" xlink:href="#rts7a"/></g><g transform="translate(-120 -134)"><use fill="#004a87" xlink:href="#rts7b"/></g><g transform="translate(-120 -134)"><use fill="#004a87" xlink:href="#rts7c"/></g><g transform="translate(-120 -134)"><use fill="#004a87" xlink:href="#rts7d"/></g><g transform="translate(-120 -134)"><use fill="#004a87" xlink:href="#rts7e"/></g><g transform="translate(-120 -134)"><use fill="#004a87" xlink:href="#rts7f"/></g><g transform="translate(-120 -134)"><use fill="#004a87" xlink:href="#rts7g"/></g><g transform="translate(-120 -134)"><use fill="#87b922" xlink:href="#rts7h"/></g><g transform="translate(-120 -134)"><use fill="#004a87" xlink:href="#rts7i"/></g><g transform="translate(-120 -134)"><use fill="#01a3e0" xlink:href="#rts7j"/></g><g transform="translate(-120 -134)"><use fill="#31afe1" xlink:href="#rts7k"/></g><g transform="translate(-120 -134)"><use fill="#4379a2" xlink:href="#rts7l"/></g></g></svg>
