<?xml version="1.0" encoding="utf-8"?>
<!-- Generator: Adobe Illustrator 27.7.0, SVG Export Plug-In . SVG Version: 6.00 Build 0)  -->
<svg version="1.1" id="Layer_1" xmlns="http://www.w3.org/2000/svg" xmlns:xlink="http://www.w3.org/1999/xlink" x="0px" y="0px"
	 viewBox="0 0 390 16" style="enable-background:new 0 0 390 16;" xml:space="preserve">
<style type="text/css">
	.st0{clip-path:url(#SVGID_00000169526260011046731470000012303651874197404549_);}
	.st1{fill:#FFFFFF;}
</style>
<g>
	<defs>
		<rect id="SVGID_1_" x="0.4" y="0.1" width="389.1" height="15.9"/>
	</defs>
	<clipPath id="SVGID_00000054236810871919018990000008728443221091059591_">
		<use xlink:href="#SVGID_1_"  style="overflow:visible;"/>
	</clipPath>
	<g style="clip-path:url(#SVGID_00000054236810871919018990000008728443221091059591_);">
		<path class="st1" d="M34.9,3.9c1.3,0,2.5,0.6,3.3,1.7V0.8c-1.1-0.5-2.2-0.8-3.5-0.8c-2,0-4.1,0.9-5.5,2.4C27.8,4,27.1,6,27.1,8
			c0,2.2,0.7,4.2,2.3,5.7c1.5,1.4,3.4,2.2,5.5,2.2c1.2,0,2.1-0.3,3.3-0.7v-4.7c-0.8,1-2,1.6-3.3,1.6c-2.4,0-3.9-1.7-3.9-4.1
			S32.6,3.9,34.9,3.9 M22.8,15.6h3.8V0.5h-3.8C22.8,0.5,22.8,15.6,22.8,15.6z M14.1,12.2h-0.9V3.8h0.9c2.4,0,4.2,1.5,4.2,4.2
			C18.3,10.9,16.4,12.2,14.1,12.2 M14.9,0.5H9.5v15.1h5.4c4,0,7.4-3.3,7.4-7.5S18.9,0.5,14.9,0.5 M0.4,15.5h3.8V9.6h4.2V6.3H4.2V3.8
			h4.6V0.5H0.4V15.5L0.4,15.5z"/>
		<path class="st1" d="M387.8,11.1c0.4,0,0.8-0.1,1-0.2l-0.2-0.6c-0.2,0.1-0.4,0.2-0.6,0.2c-0.5,0-0.7-0.2-0.7-0.7
			c0-0.1,0-0.3,0-0.4l0.6-3.2h1.4l0.1-0.7h-1.4l0.3-1.5h-0.7l-0.4,1.5l-0.9,0.1l-0.1,0.7h0.8l-0.6,3.1c0,0.2-0.1,0.4-0.1,0.6
			C386.4,10.5,386.8,11.1,387.8,11.1 M379.9,10.9h0.9l0.8-3.9c0.7-0.7,1.2-1,1.7-1c0.6,0,0.8,0.3,0.8,0.9c0,0.2,0,0.3-0.1,0.7
			l-0.7,3.4h0.9l0.7-3.6c0.1-0.3,0.1-0.5,0.1-0.8c0-0.9-0.4-1.4-1.3-1.4c-0.7,0-1.3,0.4-2,1h0l0.1-0.8H381L379.9,10.9L379.9,10.9z
			 M375.2,7.7c0.3-1.1,1.1-1.8,1.9-1.8s1.1,0.6,1.1,1.2c0,0.2,0,0.4-0.1,0.6H375.2L375.2,7.7z M374.2,8.7c0,1.5,0.9,2.3,2.2,2.3
			c0.7,0,1.4-0.3,1.8-0.6l-0.3-0.6c-0.4,0.3-0.8,0.5-1.2,0.5c-1,0-1.7-0.6-1.5-2h3.6c0.1-0.2,0.2-0.6,0.2-1.1c0-1.2-0.5-2-1.7-2
			C375.7,5.2,374.2,6.7,374.2,8.7 M364.7,10.9h0.9l0.8-3.9c0.6-0.7,1.2-1,1.6-1c0.5,0,0.8,0.3,0.8,0.9c0,0.2,0,0.3-0.1,0.7l-0.7,3.4
			h0.9l0.8-3.9c0.7-0.7,1.2-1,1.6-1c0.5,0,0.8,0.3,0.8,0.9c0,0.2,0,0.3-0.1,0.7l-0.7,3.4h0.9l0.7-3.6c0.1-0.3,0.1-0.5,0.1-0.8
			c0-0.9-0.4-1.4-1.3-1.4c-0.6,0-1.3,0.4-2,1.1c-0.1-0.6-0.4-1.1-1.3-1.1c-0.6,0-1.2,0.4-1.8,1h0l0.1-0.8h-0.7L364.7,10.9
			L364.7,10.9z M358.6,10.9h0.9l0.8-3.9c0.7-0.7,1.2-1,1.7-1c0.6,0,0.8,0.3,0.8,0.9c0,0.2,0,0.3-0.1,0.7l-0.7,3.4h0.9l0.7-3.6
			c0.1-0.3,0.1-0.5,0.1-0.8c0-0.9-0.4-1.4-1.3-1.4c-0.7,0-1.3,0.4-1.9,1h0l0.1-0.8h-0.7L358.6,10.9L358.6,10.9z M354.4,10.9h0.9
			l0.7-3.5c0.5-0.9,1.1-1.4,1.6-1.4c0.2,0,0.4,0,0.5,0.1l0.3-0.8c-0.2-0.1-0.3-0.1-0.5-0.1c-0.7,0-1.3,0.5-1.7,1.2h0l0.1-1.1h-0.7
			L354.4,10.9L354.4,10.9z M349.7,7.7c0.3-1.1,1.1-1.8,1.9-1.8s1.1,0.6,1.1,1.2c0,0.2,0,0.4-0.1,0.6H349.7L349.7,7.7z M348.7,8.8
			c0,1.5,0.9,2.3,2.2,2.3c0.7,0,1.4-0.3,1.8-0.6l-0.3-0.6c-0.4,0.3-0.8,0.5-1.2,0.5c-1,0-1.7-0.6-1.5-2h3.6c0.1-0.2,0.2-0.6,0.2-1.1
			c0-1.2-0.5-2-1.7-2C350.3,5.2,348.7,6.7,348.7,8.8 M344.5,10.9h1l3-5.6h-0.9L346,8.6c-0.3,0.6-0.6,1.1-0.8,1.7h0
			c-0.1-0.5-0.1-1.1-0.2-1.7l-0.4-3.2h-0.9L344.5,10.9L344.5,10.9z M339.5,10.4c-0.8,0-1.2-0.6-1.2-1.6c0-1.6,1-2.8,2-2.8
			c0.8,0,1.2,0.6,1.2,1.6C341.5,9.1,340.5,10.4,339.5,10.4 M339.4,11.1c1.5,0,3-1.5,3-3.6c0-1.4-0.8-2.2-2-2.2c-1.5,0-3,1.5-3,3.6
			C337.4,10.2,338.2,11.1,339.4,11.1 M333.4,11.1c0.9,0,1.6-0.3,2.1-0.8l0.6-3.2h-2.4l-0.1,0.7h1.5l-0.4,2.1
			c-0.3,0.2-0.7,0.5-1.3,0.5c-1.4,0-2-1-2-2.4c0-1.8,1.1-3.9,3-3.9c0.6,0,1,0.3,1.3,0.8l0.6-0.5c-0.4-0.6-1-1.1-1.9-1.1
			c-2.5,0-4,2.4-4,4.8C330.6,9.9,331.6,11.1,333.4,11.1 M325.8,11.1c0.4,0,0.8-0.4,0.8-0.8c0-0.3-0.2-0.6-0.5-0.6
			c-0.4,0-0.8,0.4-0.8,0.8C325.3,10.8,325.5,11.1,325.8,11.1 M321.4,11.1c1.5,0,2.6-1,2.6-2.3c0-0.8-0.4-1.3-1.1-1.8L322,6.5
			c-0.5-0.3-1-0.6-1-1.2s0.5-1.2,1.4-1.2c0.7,0,1.2,0.3,1.6,0.8l0.6-0.5c-0.5-0.6-1.2-1-2.1-1c-1.4,0-2.3,1-2.3,2.1
			c0,0.8,0.5,1.4,1.1,1.8l0.9,0.5c0.6,0.3,0.9,0.7,0.9,1.2c0,0.9-0.7,1.4-1.6,1.4c-0.8,0-1.5-0.4-1.9-1.1l-0.6,0.5
			C319.5,10.6,320.4,11.1,321.4,11.1 M316.5,11.1c0.4,0,0.8-0.4,0.8-0.8c0-0.3-0.2-0.6-0.5-0.6c-0.4,0-0.8,0.4-0.8,0.8
			C316,10.8,316.2,11.1,316.5,11.1 M309.5,7.7c-0.1,0.4-0.1,0.7-0.1,1.1c0,1.6,0.8,2.4,2.4,2.4c1.3,0,2.4-0.8,2.8-3l0.9-4.6h-0.9
			L313.7,8c-0.3,1.6-1,2.3-1.9,2.3c-1,0-1.5-0.6-1.5-1.7c0-0.3,0-0.6,0.1-0.9l0.9-4.3h-0.9L309.5,7.7L309.5,7.7z M302.2,7.8
			c0.3-1.1,1.1-1.8,1.9-1.8s1.1,0.6,1.1,1.2c0,0.2,0,0.4-0.1,0.6H302.2L302.2,7.8z M301.3,8.8c0,1.5,0.9,2.3,2.2,2.3
			c0.7,0,1.4-0.3,1.8-0.6l-0.3-0.6c-0.4,0.3-0.8,0.5-1.2,0.5c-1,0-1.7-0.6-1.5-2h3.6c0.1-0.2,0.2-0.6,0.2-1.1c0-1.2-0.5-2-1.7-2
			C302.8,5.3,301.3,6.7,301.3,8.8 M295,11h0.9l0.8-3.9c0.7-0.7,1.2-1,1.7-1c0.6,0,0.8,0.3,0.8,0.9c0,0.2,0,0.3-0.1,0.7l-0.7,3.4h0.9
			l0.7-3.6c0.1-0.3,0.1-0.5,0.1-0.8c0-0.9-0.4-1.4-1.3-1.4c-0.7,0-1.3,0.4-1.9,0.9h0l0.2-0.7l0.5-2.7h-0.9L295,11L295,11z
			 M292.8,11.1c0.4,0,0.8-0.1,1-0.2l-0.2-0.6c-0.2,0.1-0.4,0.2-0.6,0.2c-0.5,0-0.7-0.2-0.7-0.7c0-0.1,0-0.3,0-0.4l0.6-3.2h1.4
			l0.1-0.7h-1.4l0.3-1.5h-0.7l-0.4,1.5l-0.9,0.1l-0.1,0.7h0.8l-0.6,3.1c0,0.2-0.1,0.4-0.1,0.6C291.4,10.5,291.8,11.1,292.8,11.1
			 M286,6.1h0.7l-1,4.9h0.9l1-4.8h1.1l0.1-0.7h-1.1l0.2-0.9c0.1-0.7,0.4-1.1,0.9-1.1c0.3,0,0.5,0.1,0.6,0.2l0.3-0.6
			c-0.3-0.2-0.6-0.3-1-0.3c-0.9,0-1.5,0.7-1.8,1.8l-0.2,0.9l-0.7,0.1L286,6.1L286,6.1z M281.7,10.4c-0.8,0-1.2-0.6-1.2-1.6
			c0-1.6,1-2.8,2-2.8c0.8,0,1.2,0.6,1.2,1.6C283.7,9.1,282.7,10.4,281.7,10.4 M281.6,11.1c1.5,0,3-1.5,3-3.6c0-1.4-0.8-2.2-2-2.2
			c-1.5,0-3,1.5-3,3.6C279.6,10.2,280.4,11.1,281.6,11.1 M275.4,11.1c0.4,0,0.8-0.1,1-0.2l-0.2-0.6c-0.2,0.1-0.4,0.2-0.6,0.2
			c-0.5,0-0.7-0.2-0.7-0.7c0-0.1,0-0.3,0-0.4l0.6-3.2h1.4l0.1-0.7h-1.4l0.3-1.5h-0.7l-0.4,1.5l-0.9,0.1l-0.1,0.7h0.8l-0.6,3.1
			c0,0.2-0.1,0.4-0.1,0.6C274,10.5,274.4,11.1,275.4,11.1 M272.6,4.2c0.4,0,0.7-0.3,0.7-0.7c0-0.3-0.3-0.5-0.6-0.5
			c-0.4,0-0.7,0.3-0.7,0.7C272,4,272.3,4.2,272.6,4.2 M270.7,10.9h0.9l1.1-5.6h-0.9L270.7,10.9z M266.4,10.3c-0.6,0-1-0.5-1-1.4
			c0-1.5,1-2.9,2.1-2.9c0.4,0,0.8,0.2,1.1,0.8l-0.5,2.5C267.6,10,267,10.3,266.4,10.3 M268.9,6L268.9,6c-0.3-0.5-0.8-0.8-1.4-0.8
			c-1.5,0-3,1.7-3,3.8c0,1.3,0.6,2,1.6,2c0.7,0,1.4-0.4,1.9-1h0l-0.1,0.8h0.7l1.6-8.1h-0.9L269,5L268.9,6z M259.7,7.7
			c0.3-1.1,1.1-1.8,1.9-1.8s1.1,0.6,1.1,1.2c0,0.2,0,0.4-0.1,0.6H259.7L259.7,7.7z M258.7,8.7c0,1.5,0.9,2.3,2.2,2.3
			c0.7,0,1.4-0.3,1.8-0.6l-0.3-0.6c-0.4,0.3-0.8,0.5-1.2,0.5c-1,0-1.7-0.6-1.5-2h3.6c0.1-0.2,0.2-0.6,0.2-1.1c0-1.2-0.5-2-1.7-2
			C260.2,5.2,258.7,6.7,258.7,8.7 M254.6,10.9h0.9l0.7-3.5c0.5-0.9,1.1-1.4,1.6-1.4c0.2,0,0.4,0,0.5,0.1l0.3-0.8
			c-0.2-0.1-0.3-0.1-0.5-0.1c-0.7,0-1.3,0.5-1.7,1.2h0l0.1-1.1h-0.7L254.6,10.9L254.6,10.9z M251.5,11.1c0.8,0,1.4-0.3,1.8-0.6
			l-0.4-0.6c-0.3,0.3-0.7,0.5-1.2,0.5c-0.9,0-1.3-0.6-1.3-1.6c0-1.5,1-2.8,2.1-2.8c0.4,0,0.7,0.2,1,0.5l0.5-0.6
			c-0.3-0.4-0.8-0.7-1.4-0.7c-1.6,0-3.1,1.5-3.1,3.6C249.5,10.3,250.3,11.1,251.5,11.1 M243.1,10.3c-0.6,0-1-0.5-1-1.4
			c0-1.5,1-2.9,2.1-2.9c0.4,0,0.8,0.2,1.1,0.8l-0.5,2.5C244.3,10,243.7,10.3,243.1,10.3 M245.6,6L245.6,6c-0.3-0.5-0.8-0.8-1.4-0.8
			c-1.5,0-3,1.7-3,3.8c0,1.3,0.6,2,1.6,2c0.7,0,1.4-0.4,1.9-1h0l-0.1,0.8h0.7l1.6-8.1h-0.9L245.7,5L245.6,6z M234.9,10.9h0.9
			l0.8-3.9c0.7-0.7,1.2-1,1.7-1c0.6,0,0.8,0.3,0.8,0.9c0,0.2,0,0.3-0.1,0.7l-0.7,3.4h0.9l0.7-3.6c0.1-0.3,0.1-0.5,0.1-0.8
			c0-0.9-0.4-1.4-1.3-1.4c-0.7,0-1.3,0.4-1.9,1h-0.1l0.1-0.8H236L234.9,10.9L234.9,10.9z M230.6,10.3c-0.6,0-1-0.5-1-1.4
			c0-1.5,1-2.9,2.1-2.9c0.4,0,0.8,0.2,1.1,0.8l-0.5,2.5C231.8,10,231.1,10.3,230.6,10.3 M230.2,11.1c0.7,0,1.4-0.4,1.9-1h0l-0.1,0.8
			h0.7l1.1-5.6h-0.7L233,6h0c-0.3-0.5-0.7-0.8-1.3-0.8c-1.5,0-3,1.7-3,3.8C228.6,10.3,229.3,11,230.2,11.1 M220.4,10.9h0.9l0.8-3.9
			c0.7-0.7,1.2-1,1.7-1c0.6,0,0.8,0.3,0.8,0.9c0,0.2,0,0.3-0.1,0.7l-0.7,3.4h0.9l0.7-3.6c0.1-0.3,0.1-0.5,0.1-0.8
			c0-0.9-0.4-1.4-1.3-1.4c-0.7,0-1.3,0.4-1.9,0.9h-0.1l0.2-0.7l0.6-2.7H222L220.4,10.9L220.4,10.9z M218.2,11c0.4,0,0.8-0.1,1.1-0.2
			l-0.2-0.6c-0.2,0.1-0.4,0.2-0.6,0.2c-0.5,0-0.7-0.2-0.7-0.7c0-0.1,0-0.3,0-0.4l0.6-3.2h1.4l0.1-0.7h-1.4l0.3-1.5h-0.7l-0.4,1.5
			l-0.9,0.1l-0.1,0.7h0.8l-0.6,3.1c0,0.2-0.1,0.4-0.1,0.6C216.8,10.5,217.2,11,218.2,11 M215.4,4.2c0.4,0,0.7-0.3,0.7-0.7
			c0-0.3-0.3-0.5-0.6-0.5c-0.4,0-0.7,0.3-0.7,0.7C214.8,4,215.1,4.2,215.4,4.2 M213.5,10.9h0.9l1.1-5.6h-0.9L213.5,10.9L213.5,10.9z
			 M209.2,10.3c-0.6,0-1-0.5-1-1.4c0-1.5,1-2.9,2.1-2.9c0.4,0,0.8,0.2,1.1,0.8L211,9.2C210.4,10,209.8,10.3,209.2,10.3 M208.9,11
			c0.7,0,1.4-0.4,1.9-1h0l-0.1,0.8h0.7l1.1-5.6h-0.7L211.7,6h0c-0.3-0.5-0.7-0.8-1.3-0.8c-1.6,0-3,1.7-3,3.8
			C207.3,10.3,207.9,11,208.9,11 M204.2,6h0.7l-1,4.9h0.9l1-4.8h1.1l0.1-0.7h-1.1l0.2-0.9c0.1-0.7,0.4-1.1,0.9-1.1
			c0.3,0,0.5,0.1,0.6,0.2l0.3-0.6c-0.3-0.2-0.6-0.3-1-0.3c-0.9,0-1.5,0.7-1.8,1.8l-0.2,0.9l-0.7,0.1L204.2,6L204.2,6z M199.7,11
			c0.2,0,0.4,0,0.6-0.1v-0.7c-0.1,0-0.1,0-0.2,0c-0.1,0-0.2-0.1-0.2-0.2c0,0,0-0.1,0-0.2l1.4-7.1h-0.9L199,9.8
			c-0.1,0.2-0.1,0.4-0.1,0.5C198.9,10.7,199.2,11,199.7,11 M196.7,11c0.2,0,0.4,0,0.6-0.1v-0.7c-0.1,0-0.1,0-0.2,0
			c-0.1,0-0.2-0.1-0.2-0.2c0,0,0-0.1,0-0.2l1.4-7.1h-0.9L196,9.8c-0.1,0.2-0.1,0.4-0.1,0.5C196,10.7,196.2,11,196.7,11 M194.9,5.3
			H194l-0.8,3.9c-0.7,0.7-1.2,1-1.6,1c-0.6,0-0.8-0.3-0.8-0.9c0-0.2,0-0.4,0.1-0.6l0.7-3.4h-0.9L190,8.9c-0.1,0.3-0.1,0.5-0.1,0.8
			c0,0.8,0.4,1.4,1.3,1.4c0.7,0,1.3-0.4,1.9-1h0l-0.1,0.8h0.7L194.9,5.3L194.9,5.3z M186.5,6h0.7l-1,4.8h0.9l1-4.8h1.1l0.1-0.7h-1.1
			l0.2-0.9c0.1-0.7,0.4-1.1,0.9-1.1c0.3,0,0.5,0.1,0.6,0.2l0.3-0.6c-0.3-0.2-0.6-0.3-1-0.3c-0.9,0-1.5,0.7-1.8,1.8l-0.2,0.9
			l-0.7,0.1L186.5,6L186.5,6z M179.5,7.7c0.3-1.1,1.1-1.8,1.9-1.8s1.1,0.6,1.1,1.2c0,0.2,0,0.4-0.1,0.6H179.5z M178.5,8.7
			c0,1.5,0.9,2.3,2.2,2.3c0.7,0,1.4-0.3,1.8-0.6l-0.3-0.6c-0.4,0.3-0.8,0.5-1.2,0.5c-1,0-1.7-0.6-1.5-2h3.6c0.1-0.2,0.2-0.6,0.2-1.1
			c0-1.2-0.5-2-1.7-2C180.1,5.2,178.5,6.6,178.5,8.7 M172.3,10.9h0.9l0.8-3.9c0.7-0.7,1.2-1,1.7-1c0.6,0,0.8,0.3,0.8,0.9
			c0,0.2,0,0.3-0.1,0.7l-0.7,3.4h0.9l0.7-3.6c0.1-0.3,0.1-0.5,0.1-0.8c0-0.9-0.4-1.4-1.3-1.4c-0.7,0-1.3,0.4-1.9,0.9H174l0.2-0.7
			l0.6-2.7h-0.9L172.3,10.9L172.3,10.9z M170,11c0.4,0,0.8-0.1,1.1-0.2l-0.2-0.6c-0.2,0.1-0.4,0.2-0.6,0.2c-0.5,0-0.7-0.2-0.7-0.7
			c0-0.1,0-0.3,0-0.4l0.6-3.2h1.4l0.1-0.7h-1.4l0.3-1.5H170l-0.4,1.5l-0.9,0.1L168.6,6h0.8l-0.6,3.1c0,0.2-0.1,0.4-0.1,0.6
			C168.7,10.5,169.1,11,170,11 M160.5,13.3c1.1,0,1.7-0.8,2.3-1.9l3.3-6h-0.9l-1.6,3.1c-0.3,0.5-0.6,1.1-0.8,1.7h0
			c-0.1-0.5-0.1-1.1-0.2-1.7l-0.4-3.1h-0.9l0.9,5.6l-0.2,0.4c-0.4,0.8-0.9,1.3-1.4,1.3c-0.1,0-0.3,0-0.4-0.1l-0.3,0.6
			C160.1,13.2,160.4,13.3,160.5,13.3 M158.1,5.9c0.6,0,1,0.5,1,1.4c0,1.5-1,3-2.1,3c-0.4,0-0.8-0.2-1.1-0.8l0.5-2.6
			C157,6.2,157.6,5.9,158.1,5.9 M155.5,10.9l0.2-0.7h0c0.3,0.5,0.7,0.8,1.3,0.8c1.5,0,3-1.7,3-3.8c0-1.3-0.6-2-1.6-2
			c-0.7,0-1.3,0.4-1.9,0.8h0l0.2-1.1l0.4-2.2h-0.9l-1.6,8.1L155.5,10.9L155.5,10.9z M148.4,10.3c-0.6,0-1-0.5-1-1.4
			c0-1.5,1-2.9,2.1-2.9c0.4,0,0.8,0.2,1.1,0.8l-0.5,2.5C149.6,9.9,149,10.3,148.4,10.3 M150.9,6L150.9,6c-0.3-0.5-0.8-0.8-1.4-0.8
			c-1.5,0-3,1.7-3,3.8c0,1.3,0.6,2,1.6,2c0.7,0,1.4-0.4,1.9-1h0l-0.1,0.8h0.7l1.6-8.1h-0.9l-0.4,2.2L150.9,6z M141.7,7.7
			c0.3-1.1,1.1-1.8,1.9-1.8s1.1,0.6,1.1,1.2c0,0.2,0,0.4-0.1,0.6H141.7z M140.7,8.7c0,1.5,0.9,2.3,2.2,2.3c0.7,0,1.4-0.3,1.8-0.6
			l-0.3-0.6c-0.4,0.3-0.8,0.5-1.2,0.5c-1,0-1.7-0.6-1.5-2h3.6c0.1-0.2,0.2-0.6,0.2-1.1c0-1.2-0.5-2-1.7-2
			C142.3,5.2,140.8,6.6,140.7,8.7 M135.1,10.9h0.9l0.3-1.4l1.3-1.3l1.1,2.7h0.9l-1.3-3.2l2.2-2.3h-1l-2.9,2.9h0l1.1-5.5h-0.9
			L135.1,10.9L135.1,10.9z M132.1,11c0.8,0,1.4-0.3,1.8-0.6l-0.4-0.6c-0.3,0.3-0.7,0.5-1.2,0.5c-0.9,0-1.3-0.6-1.3-1.6
			c0-1.5,1-2.8,2.1-2.8c0.4,0,0.7,0.2,1,0.5l0.5-0.6c-0.3-0.4-0.8-0.7-1.4-0.7c-1.6,0-3.1,1.5-3.1,3.6C130,10.2,130.9,11,132.1,11
			 M125.6,10.3c-0.6,0-1-0.5-1-1.4c0-1.5,1-2.9,2.1-2.9c0.4,0,0.8,0.2,1.1,0.8l-0.5,2.5C126.8,9.9,126.2,10.3,125.6,10.3 M125.3,11
			c0.7,0,1.4-0.4,1.9-1h0l-0.1,0.8h0.7l1.1-5.6h-0.7L128.1,6h0c-0.3-0.5-0.7-0.8-1.3-0.8c-1.6,0-3,1.7-3,3.8
			C123.7,10.3,124.3,11,125.3,11 M117.8,10.2l0.6-2.9h1.3c1.1,0,1.7,0.5,1.7,1.3c0,1.2-0.9,1.7-2.3,1.7
			C119.1,10.2,117.8,10.2,117.8,10.2z M118.5,6.6l0.5-2.5h1c1.1,0,1.6,0.4,1.6,1.1c0,0.8-0.7,1.4-2.1,1.4
			C119.6,6.6,118.5,6.6,118.5,6.6z M116.7,10.9h2.4c1.8,0,3.1-0.7,3.1-2.4c0-0.9-0.6-1.3-1.4-1.5v0c0.8-0.2,1.7-0.9,1.7-1.9
			c0-1.1-0.9-1.7-2.3-1.7h-2C118.2,3.4,116.7,10.9,116.7,10.9z M111.1,8.3h2.5l0.2-0.7h-2.5L111.1,8.3z M104.8,10.3
			c-0.6,0-1-0.5-1-1.4c0-1.5,1-2.9,2.1-2.9c0.4,0,0.8,0.2,1.1,0.8l-0.5,2.5C106,9.9,105.4,10.3,104.8,10.3 M107.2,6L107.2,6
			c-0.3-0.5-0.8-0.8-1.3-0.8c-1.6,0-3,1.7-3,3.8c0,1.3,0.6,2,1.6,2c0.7,0,1.4-0.4,1.9-1h0l-0.1,0.8h0.7l1.7-8.1h-0.9l-0.4,2.2
			C107.4,4.9,107.2,6,107.2,6z M98,7.7c0.3-1.1,1.1-1.8,1.9-1.8s1.1,0.6,1.1,1.2c0,0.2,0,0.4-0.1,0.6C101,7.7,98,7.7,98,7.7z
			 M97.1,8.7c0,1.5,0.9,2.3,2.2,2.3c0.7,0,1.3-0.3,1.8-0.6l-0.3-0.6c-0.3,0.3-0.8,0.5-1.2,0.5c-1,0-1.7-0.6-1.5-2h3.6
			c0.1-0.2,0.2-0.6,0.2-1.1c0-1.2-0.5-2-1.7-2C98.6,5.2,97.1,6.6,97.1,8.7 M92.9,10.9h0.9l0.7-3.5C95,6.5,95.6,6,96.1,6
			c0.2,0,0.4,0,0.5,0.1l0.3-0.8c-0.2-0.1-0.3-0.1-0.5-0.1c-0.7,0-1.3,0.5-1.7,1.2h0l0.1-1.1H94L92.9,10.9L92.9,10.9z M92,5.3h-0.9
			l-0.8,3.9c-0.7,0.7-1.2,1-1.7,1c-0.6,0-0.8-0.3-0.8-0.9c0-0.2,0-0.4,0.1-0.6l0.7-3.4h-0.9l-0.7,3.6C87,9.2,87,9.4,87,9.6
			c0,0.8,0.4,1.4,1.3,1.4c0.7,0,1.3-0.4,1.9-1h0l-0.1,0.8h0.7L92,5.3L92,5.3z M83.5,11c1.2,0,2.1-0.7,2.1-1.7c0-0.6-0.3-1-1.3-1.6
			c-0.5-0.3-1-0.5-1-1s0.5-0.9,1.1-0.9c0.5,0,0.9,0.2,1.2,0.6L86,5.9c-0.4-0.4-1-0.7-1.6-0.7c-1,0-1.9,0.7-1.9,1.7
			c0,0.6,0.4,1.1,1.3,1.5c0.8,0.4,1,0.6,1,1.1c0,0.5-0.5,0.9-1.2,0.9c-0.6,0-1.1-0.3-1.4-0.8L81.6,10C82,10.5,82.7,11,83.5,11
			 M75.8,10.9h0.9l0.8-3.9c0.7-0.7,1.2-1,1.7-1c0.6,0,0.8,0.3,0.8,0.9c0,0.2,0,0.3-0.1,0.7l-0.7,3.4H80l0.7-3.6
			c0.1-0.3,0.1-0.5,0.1-0.8c0-0.9-0.4-1.4-1.3-1.4c-0.7,0-1.3,0.4-1.9,1h0l0.1-0.8h-0.7L75.8,10.9L75.8,10.9z M72.7,10.9h0.9
			l1.5-7.5h-0.9L72.7,10.9z M68.9,8.3h2.5l0.2-0.7H69L68.9,8.3z M65.6,11c0.9,0,1.6-0.4,2.2-0.9l-0.4-0.6c-0.5,0.4-1,0.7-1.6,0.7
			c-1.3,0-1.9-1-1.9-2.3C63.9,6.1,65,4,66.8,4c0.6,0,1,0.3,1.3,0.8l0.6-0.5c-0.4-0.6-1-1.1-1.8-1.1C64.5,3.2,63,5.6,63,8
			C63,9.8,63.9,11,65.6,11 M59.6,10.9h0.9L62,3.4h-0.9L59.6,10.9z M53.6,10.1l1.2-6.1h0.6c1.5,0,2.3,0.8,2.3,2.3
			c0,2.2-1.2,3.8-3.2,3.8L53.6,10.1L53.6,10.1z M52.6,10.9h2c2.5,0,4.1-1.9,4.1-4.6c0-1.8-1.1-2.9-3.2-2.9h-1.4L52.6,10.9L52.6,10.9
			z M47,10.9h0.9l0.7-3.4h2.8l0.2-0.8h-2.8l0.5-2.6h3.3l0.2-0.7h-4.1L47,10.9L47,10.9z"/>
	</g>
</g>
</svg>
